<?xml version="1.0" standalone="no"?>
<!DOCTYPE svg PUBLIC "-//W3C//DTD SVG 1.1//EN" "http://www.w3.org/Graphics/SVG/1.1/DTD/svg11.dtd" >
<svg>
<metadata>
Created by FontForge 20110222 at Tue May 27 04:12:36 2014
 By deploy user
Typeface (c) (your company). 2006. All Rights Reserved
</metadata>
<defs>
<font id="CafeRojo" horiz-adv-x="40" >
  <font-face 
    font-family="Cafe Rojo"
    font-weight="400"
    font-stretch="normal"
    units-per-em="2048"
    panose-1="2 0 0 0 0 0 0 0 0 0"
    ascent="1638"
    descent="-410"
    x-height="1584"
    cap-height="1656"
    bbox="0 -400 3384 1768"
    underline-thickness="150"
    underline-position="-142"
    unicode-range="U+0020-F005"
  />
<missing-glyph horiz-adv-x="1064" 
d="M0 0v1280h1024v-1280h-1024zM32 32h960v1216h-960v-1216z" />
    <glyph glyph-name=".notdef" horiz-adv-x="1064" 
d="M0 0v1280h1024v-1280h-1024zM32 32h960v1216h-960v-1216z" />
    <glyph glyph-name=".null" 
 />
    <glyph glyph-name="nonmarkingreturn" 
 />
    <glyph glyph-name="space" unicode=" " horiz-adv-x="569" 
 />
    <glyph glyph-name="space" unicode="&#xa0;" horiz-adv-x="569" 
 />
    <glyph glyph-name="exclam" unicode="!" horiz-adv-x="552" 
d="M224 1664h64q192 0 224 -344q0 -92 -176 -712q-34 -32 -64 -32h-32q-84 0 -120 264q-120 374 -120 504q36 320 224 320zM264 472q192 0 224 -248q-42 -216 -184 -216l-56 -8q-186 0 -224 240q0 196 240 232z" />
    <glyph glyph-name="quotedbl" unicode="&#x22;" horiz-adv-x="989" 
d="M204 1444q74 0 148 -104q36 -79 36 -116l-4 -4v-4l4 -16q0 -179 -172 -332q-79 -68 -128 -68h-4l-4 4v24q156 101 156 160q10 0 20 80q0 64 -48 64h-44q-126 0 -156 104l-8 32q0 119 116 168zM636 1444l16 -4l28 4q124 0 188 -156l16 -76q-10 -139 -92 -260
q-11 0 -44 -48q-117 -104 -160 -104h-8l-8 8v20l72 48q100 88 100 192q-9 68 -44 68l-28 -4h-48q-100 27 -100 60q-21 0 -36 88q0 90 104 152z" />
    <glyph glyph-name="numbersign" unicode="#" horiz-adv-x="1393" 
d="M596 1288l12 -4l12 4l36 -4l20 4l4 -4h4l36 4l28 -4l32 4l4 -4v-4l-116 -328l4 -4h96l4 -4l4 4h80q26 0 36 60l92 260q0 20 60 20l4 -4h4l16 4h8l20 -4l20 4l28 -4l24 4l20 -4l16 4l4 -12q-16 -29 -116 -324l4 -4h60l20 4l24 -4h56l60 4l4 -12l-68 -188h-8l-36 -4l-4 4
h-4l-4 -4h-4l-24 4l-4 -4l-20 4h-80l-24 -4l-16 4q-22 -41 -72 -196l8 -8h16l16 4l28 -4h88l36 4l4 -4h4l24 4q8 0 8 -12l-72 -192l-40 -4l-40 8q0 -8 -12 -8l-16 4l-4 -4h-4l-24 4h-8l-16 -4l-4 4h-4l-16 -4l-28 4q-31 0 -40 -76q-40 -92 -100 -268l-4 -4h-4l-16 4l-28 -4
h-76l-24 4l-20 -4h-36q-8 0 -8 12q16 28 52 148l64 168v16h-192l-4 4q-13 0 -32 -76l-96 -268l-4 -4h-28l-16 4l-28 -4h-116l-4 4l-4 -4h-8q-8 0 -8 12l116 320v12h-232v4q41 144 76 200h72l4 -4l4 4h44l12 -4l20 4h76l64 196l-4 4h-228l-4 4h-4q66 192 76 196h236l84 220
q35 116 48 116zM628 1236l8 -8h4v8h-12zM520 552v-4h4l24 4l12 -8l20 4h148q23 26 72 196v4h-68l-4 4l-4 -4h-4l-12 4l-20 -4l-4 4h-4l-24 -4h-16l-16 4q-48 0 -48 -48q-14 -22 -56 -152z" />
    <glyph glyph-name="dollar" unicode="$" 
 />
    <glyph glyph-name="percent" unicode="%" 
 />
    <glyph glyph-name="ampersand" unicode="&#x26;" horiz-adv-x="1696" 
d="M608 0q-470 0 -592 320l-16 96v48q16 100 80 184l216 184v24q-96 206 -96 336q0 138 152 312q170 104 248 104h88q294 0 408 -224q24 -40 24 -104v-40q0 -186 -248 -320l-24 -32q0 -96 208 -216h16l16 16v24q-56 60 -56 128q40 56 136 56h264q80 -12 80 -72v-8
q0 -112 -136 -400v-8q0 -74 248 -224l32 -56q0 -80 -96 -80l-376 -8l-136 56q-214 -96 -440 -96zM872 240q0 60 -344 352h-24q-32 0 -32 -104q56 -288 304 -288q96 14 96 40zM744 1256v40l8 8q-30 136 -128 136q-96 -14 -96 -128q28 -224 128 -224q88 38 88 168z" />
    <glyph glyph-name="quotesingle" unicode="'" horiz-adv-x="455" 
d="M204 1444q74 0 148 -104q36 -79 36 -116l-4 -4v-4l4 -16q0 -179 -172 -332q-79 -68 -128 -68h-4l-4 4v24q156 101 156 160q10 0 20 80q0 64 -48 64h-44q-126 0 -156 104l-8 32q0 119 116 168z" />
    <glyph glyph-name="parenleft" unicode="(" horiz-adv-x="682" 
d="M632 1600l4 -4v-40q0 -11 -64 -20q-90 -47 -140 -180q-19 -30 -44 -160q-23 -108 -36 -336l4 -36v-100l-4 -4l4 -4v-4q0 -225 60 -444q61 -157 124 -184q0 -12 56 -24q44 0 44 -44v-4l-12 -12q-116 23 -228 72q-112 53 -200 152q-129 120 -180 368l-8 36l4 4
q-16 51 -16 164h4l-4 4v28l4 4l-4 12q9 167 100 364q15 12 28 48q153 224 368 304q32 16 136 40z" />
    <glyph glyph-name="parenright" unicode=")" horiz-adv-x="682" 
d="M144 1560q215 -80 368 -304q13 -36 28 -48q91 -197 100 -364l-4 -12l4 -4v-28l-4 -4h4q0 -113 -16 -164l4 -4l-8 -36q-51 -248 -180 -368q-88 -99 -200 -152q-112 -49 -228 -72l-12 12v4q0 44 44 44q56 12 56 24q63 27 124 184q60 219 60 444v4l4 4l-4 4v100l4 36
q-13 228 -36 336q-25 130 -44 160q-50 133 -140 180q-64 9 -64 20v40l4 4q104 -24 136 -40z" />
    <glyph glyph-name="asterisk" unicode="*" horiz-adv-x="1393" 
d="M648 1488q152 0 220 -124l12 -56q-31 -117 -136 -388l-24 -100h8l100 108l160 196q0 8 56 56q0 22 72 40q143 0 212 -112l16 -60v-76q-26 -100 -48 -100q0 -35 -264 -68q0 -7 -148 -24q-2 -6 -84 -24l-40 -12l-4 -12l16 4q139 -36 432 -76q96 -24 124 -72q20 -55 20 -116
q0 -110 -76 -152q0 -25 -128 -52q-85 0 -144 84q-72 80 -168 208q-9 0 -72 72q-14 0 -32 36h-8q0 -49 128 -376q24 -62 32 -116q0 -129 -188 -176h-20q-63 0 -152 68q-42 41 -44 76l-8 8q0 69 88 284q33 62 72 220v4h-4q-103 -98 -300 -344q-46 -48 -96 -48l-36 -4
q-114 31 -168 104q-20 36 -20 84v4q0 141 76 180q72 24 388 72l116 32v4l-72 24l-4 -4h-16q0 14 -324 60q-128 27 -128 56q-40 49 -40 104v16l4 4l-4 4v4q0 154 180 204h60q59 0 176 -160l108 -128l100 -104v4q-18 97 -48 168l-24 68q-7 0 -32 80q-9 35 -32 80q0 18 -20 72
q0 145 180 192zM280 888v-8h8zM616 36v-4h8v4h-8z" />
    <glyph glyph-name="plus" unicode="+" horiz-adv-x="1196" 
d="M416 1052l4 4h56l4 -4l4 4h4l20 -4l44 4h68q9 0 12 -56h-4l4 -4l-4 -28v-72l4 -40h-4l4 -4l-4 -40l4 -24l-4 -24l4 -40h-4l4 -4v-24l-4 -4l4 -4v-24l-4 -24l4 -12h48l12 -4l20 4h84l12 -4l20 4h212q9 0 12 -52h-4l4 -4l-4 -68v-36l4 -24q-6 -16 -12 -16l-48 8
q0 -8 -12 -8l-4 4l-20 -4h-60l-16 4l-16 -4h-16l-24 4l-24 -4l-4 4h-4l-16 -4h-8v4l-20 -4h-28l-4 4l-4 -4h-48l-16 -4l-16 4v-48l-4 -4l4 -4v-12l-4 -16l4 -28v-80l-4 -4l4 -4v-108l-4 -4l4 -4v-68l-4 -4l4 -4v-28l-8 -8h-196l-8 8v128l4 12l-4 20v208l-4 24l4 12l-12 16
l-24 -4l-4 4v4l-20 -4h-64l-28 -4l-36 4h-72l-56 -4l-4 4h-4l-4 -4h-4l-28 4l-24 -4l-4 4h-4l-16 -4l-12 12v4l4 16l-4 4v4l4 32v8h-4l4 28v88l8 8h84l4 -4l12 4l24 -4l40 4h4l16 -4l16 4h8l16 -4l4 4h4l32 -4l20 4l12 -4l44 4l16 -4l16 4h28l8 8v88l-4 32l4 32v60l-4 40
l4 36v8l-4 48l4 40zM472 872l8 -8v8h-8z" />
    <glyph glyph-name="comma" unicode="," horiz-adv-x="569" 
d="M192 436q150 0 204 -124q32 -56 32 -156v-32l-4 -16l4 -16q0 -45 -60 -192q-51 -101 -140 -180q-29 -40 -112 -96q-30 -24 -52 -24l-36 52v8q15 23 52 44q0 11 24 20l80 88q44 63 44 120v4q0 47 -104 100q-92 72 -92 100q-32 47 -32 128q9 0 12 60l60 72q50 34 120 40z
" />
    <glyph glyph-name="hyphen" unicode="-" horiz-adv-x="682" 
d="M12 612h12l24 -4l4 4h12v-4l40 4h4l76 -4l84 4h40l20 -4l24 4h28l24 -4l40 4h388l16 4q44 -4 44 -12v-192l-8 -8h-700l-16 -4l-16 4h-120l-20 -4l-12 24l4 20l-4 4l4 20v136z" />
    <glyph glyph-name="hyphen" unicode="&#xad;" horiz-adv-x="682" 
d="M12 612h12l24 -4l4 4h12v-4l40 4h4l76 -4l84 4h40l20 -4l24 4h28l24 -4l40 4h388l16 4q44 -4 44 -12v-192l-8 -8h-700l-16 -4l-16 4h-120l-20 -4l-12 24l4 20l-4 4l4 20v136z" />
    <glyph glyph-name="period" unicode="." horiz-adv-x="569" 
d="M152 368h32q116 0 176 -116l12 -52q0 -143 -128 -192l-32 -8h-36q-48 0 -108 40q-68 60 -68 140v24q4 55 64 120z" />
    <glyph glyph-name="slash" unicode="/" horiz-adv-x="802" 
d="M600 1492q122 -40 188 -80v-12l-124 -288l-28 -64q-188 -435 -320 -764q-20 -27 -52 -124l-72 -160h-8q-164 61 -184 80q75 202 96 220l4 -4h4v4l-8 16l224 532l276 644h4z" />
    <glyph glyph-name="zero" unicode="0" horiz-adv-x="1600" 
d="M776 1608q548 0 744 -528q40 -140 40 -216v-96q0 -120 -16 -120l8 -8q-76 -318 -248 -448q-210 -192 -552 -192q-368 0 -624 336q-128 198 -128 448v56q0 404 360 656q194 112 416 112zM504 880v-96q0 -556 240 -608l32 -8q280 0 280 624v80q0 412 -184 544l-96 24
q-214 0 -264 -448z" />
    <glyph glyph-name="one" unicode="1" horiz-adv-x="816" 
d="M536 1584h16q72 0 72 -136v-1048l8 -32l-8 -8q0 -154 144 -216l8 -40v-16q0 -72 -104 -72l-32 8h-8l-48 -8l-8 8l-40 -8l-176 8l-24 -8l-32 8h-8l-24 -8l-40 8h-144q-72 10 -72 72q0 54 120 112q40 74 40 208v224l-8 40l8 48v208l-8 32l8 8v8l-8 8v8l8 24l-8 48l8 8v8
l-8 32h8l-8 8v80q0 102 -144 168q-24 30 -24 56q0 86 264 104z" />
    <glyph glyph-name="two" unicode="2" horiz-adv-x="1368" 
d="M640 1592q402 0 616 -272q42 -52 64 -216q0 -412 -720 -560q-160 -60 -160 -128v-8q64 -12 64 -24l8 8l96 -8h272q216 0 344 120l32 8q72 0 72 -64q0 -110 -112 -392q-30 -40 -176 -40h-144l-48 -8l-40 8h-24l-136 -8v8l-24 -8l-48 8l-40 -8l-32 8l-8 -8l-56 8h-104
l-40 -8v8l-8 -8q-288 0 -288 72v8q0 356 672 728q136 118 136 328v56q-34 216 -216 216h-16q-196 0 -352 -352l-24 -16h-40q-76 0 -104 216l-40 160q30 134 616 168h8z" />
    <glyph glyph-name="three" unicode="3" horiz-adv-x="1480" 
d="M664 1608h8q696 0 696 -400q0 -186 -192 -312l-16 -24v-16q6 -18 136 -104q144 -112 144 -296q0 -206 -232 -352q-216 -104 -456 -104h-64q-436 0 -672 136l-16 48q88 384 152 384h16q66 0 120 -192q148 -224 360 -224q172 0 248 168l24 128v24q0 230 -248 304h-96
l-32 -8q-88 16 -88 80v24q0 48 56 72l144 -8q162 0 200 240v56q-44 216 -208 216q-228 0 -368 -336l-56 -16q-84 0 -120 280q-12 0 -16 72q0 88 360 136q0 18 216 24z" />
    <glyph glyph-name="four" unicode="4" horiz-adv-x="1584" 
d="M984 1576h72q58 0 88 -48q8 -856 32 -856l32 -16h24q60 0 208 120h32q72 -10 72 -72q-70 -328 -160 -328h-104q-92 0 -104 -40v-24q0 -78 88 -160l8 -32v-8q0 -88 -232 -88l-48 8h-160l-8 8l-8 -8h-120q-120 0 -120 72v8q0 44 80 104l24 72q0 88 -112 88q-560 0 -560 48
l-8 8v48q0 86 192 272q580 652 744 816zM632 936q-232 -208 -232 -272v-16q56 -24 184 -32q112 0 112 112l-8 120v24q0 64 -56 64z" />
    <glyph glyph-name="five" unicode="5" horiz-adv-x="1480" 
d="M1264 1592q72 -10 72 -72q-52 -312 -152 -312l-104 -8v8l-8 -8h-56l-8 8l-8 -8h-528q-160 0 -160 -120l-8 -88q16 -48 64 -48h8q210 32 312 32h56q400 0 632 -248q64 -98 64 -168v-88q0 -314 -504 -432q-58 -16 -256 -24q-392 0 -664 144l-16 40q82 392 152 392h16
q68 0 112 -168q140 -240 376 -240q214 0 280 256l-8 8l8 40q0 220 -248 296l-136 8h-24q-114 0 -312 -64h-24q-72 10 -72 72q30 752 80 752l40 8h248l160 8v-8l8 8h24l32 -8l8 8l32 -8l152 8l176 -8q76 0 184 32z" />
    <glyph glyph-name="six" unicode="6" horiz-adv-x="1536" 
d="M840 1608q254 0 544 -104l24 -32v-48q-64 -328 -144 -328h-32q-42 6 -96 152q-124 192 -272 192h-24q-280 0 -328 -384l48 -32q128 56 248 56h64q430 0 608 -384l16 -120v-72l-8 -8l8 -8v-8q0 -134 -208 -328q-226 -152 -512 -152q-508 0 -728 504q-48 144 -48 304
q0 552 536 760q144 40 304 40zM520 576l8 -8v-32l-8 -8l8 -8v-48q0 -226 176 -312h96q192 42 192 368v48l-8 40h8q-54 272 -200 272h-56q-174 0 -216 -312z" />
    <glyph glyph-name="seven" unicode="7" horiz-adv-x="1480" 
d="M376 1600l112 -8h192l32 8l32 -8h200l40 8l48 -8h336q62 0 72 -80q0 -154 -432 -616q-176 -202 -176 -544v-280q0 -56 -168 -56h-272q-128 0 -128 80q0 496 640 984q0 16 48 64v32q0 38 -216 48l-48 -8h-8l-128 8l-24 -8v8l-8 -8h-96q-164 0 -352 -96q-72 16 -72 72
q0 82 112 376q30 24 56 24h104z" />
    <glyph glyph-name="eight" unicode="8" horiz-adv-x="1536" 
d="M776 1608q442 0 600 -248q24 -62 24 -112q0 -158 -136 -256q-64 -42 -64 -80q36 -44 200 -168q96 -128 96 -240v-40q0 -314 -472 -432q-126 -32 -312 -32q-370 0 -608 200q-104 124 -104 216v56q0 188 288 312l24 40l-152 184q-40 118 -40 184q0 188 184 320
q152 96 472 96zM568 1304v-56q56 -108 184 -168q80 -32 120 -32q96 66 96 208q-28 176 -168 176l-48 8q-184 -32 -184 -136zM472 408q0 -118 120 -200q42 -32 152 -48q280 0 280 240q0 134 -304 272l-72 8h-8q-128 0 -168 -272z" />
    <glyph glyph-name="nine" unicode="9" horiz-adv-x="1536" 
d="M656 0q-254 0 -544 104l-24 32v48q64 328 144 328h32q42 -6 96 -152q124 -192 272 -192h24q280 0 328 384l-48 32q-128 -56 -248 -56h-64q-430 0 -608 384l-16 120v72l8 8l-8 8v8q0 134 208 328q226 152 512 152q508 0 728 -504q48 -144 48 -304q0 -552 -536 -760
q-144 -40 -304 -40zM976 1032l-8 8v32l8 8l-8 8v48q0 226 -176 312h-96q-192 -42 -192 -368v-48l8 -40h-8q54 -272 200 -272h56q174 0 216 312z" />
    <glyph glyph-name="colon" unicode=":" horiz-adv-x="532" 
d="M264 1240h8q35 0 124 -52q60 -71 60 -92q16 -37 20 -88q0 -100 -72 -172q-56 -68 -204 -68q0 6 -52 20q-148 75 -148 224q0 106 112 188q38 40 152 40zM176 1080v-4l8 -8v12h-8zM248 468q134 0 208 -136q20 -59 20 -96q0 -144 -140 -216q-37 -16 -112 -20q-75 15 -128 48
q-84 84 -92 152l4 4l-4 20q0 178 176 236z" />
    <glyph glyph-name="semicolon" unicode=";" horiz-adv-x="569" 
d="M216 1264q102 0 164 -68q60 -53 60 -180v-4q0 -67 -80 -144q-56 -48 -140 -48q-133 0 -196 120q-24 48 -24 104l4 12l-4 12q50 196 216 196zM200 636q150 0 204 -124q32 -56 32 -156v-32l-4 -16l4 -16q0 -45 -60 -192q-51 -101 -140 -180q-29 -40 -112 -96
q-30 -24 -52 -24l-36 52v8q15 23 52 44q0 11 24 20l80 88q44 62 44 120v4q0 46 -104 100q-92 72 -92 100q-32 47 -32 128q9 0 12 60l60 72q50 34 120 40z" />
    <glyph glyph-name="semicolon" unicode="&#x37e;" horiz-adv-x="569" 
d="M216 1264q102 0 164 -68q60 -53 60 -180v-4q0 -67 -80 -144q-56 -48 -140 -48q-133 0 -196 120q-24 48 -24 104l4 12l-4 12q50 196 216 196zM200 636q150 0 204 -124q32 -56 32 -156v-32l-4 -16l4 -16q0 -45 -60 -192q-51 -101 -140 -180q-29 -40 -112 -96
q-30 -24 -52 -24l-36 52v8q15 23 52 44q0 11 24 20l80 88q44 62 44 120v4q0 46 -104 100q-92 72 -92 100q-32 47 -32 128q9 0 12 60l60 72q50 34 120 40z" />
    <glyph glyph-name="less" unicode="&#x3c;" 
 />
    <glyph glyph-name="equal" unicode="=" horiz-adv-x="408" 
d="M88 464h244q36 0 36 -32v-8q-15 -128 -56 -128l-40 -4h-180q-68 0 -68 40q16 132 64 132zM184 176l44 -4l16 4l52 -4h16q36 -5 36 -36q-14 -132 -64 -132l-48 -4h-140q-96 0 -96 44q21 128 60 128z" />
    <glyph glyph-name="greater" unicode="&#x3e;" 
 />
    <glyph glyph-name="question" unicode="?" horiz-adv-x="1221" 
d="M544 1668q192 -7 192 -20l12 4q178 -25 292 -124q132 -110 132 -284q0 -75 -64 -192l-48 -56q-67 -78 -104 -96q-75 -63 -220 -140q-100 -58 -100 -116q-15 -41 -24 -128l4 -12l-12 -8l-12 4l-20 -4h-32q-16 0 -16 104v24q0 118 108 224q119 117 128 204l16 84h4l-4 4
l8 112v44q-29 148 -48 148q-26 51 -108 88l-124 28l-4 -4h-4l-32 4l-4 -4h-4l-16 4q-105 0 -152 -92v-12q0 -34 100 -132q20 -32 20 -72q-8 -67 -32 -92q-65 -64 -184 -64v4l-4 -4h-20q-80 17 -112 60q-34 29 -56 104v20l4 4l-4 4v4q0 44 40 136q89 131 180 160q0 12 100 44
q5 8 156 28l16 -4zM588 432q72 0 136 -56q68 -66 68 -172q-31 -140 -68 -140q0 -34 -136 -64q-151 0 -216 132q-16 49 -16 92v8q32 200 232 200z" />
    <glyph glyph-name="at" unicode="@" horiz-adv-x="1536" 
d="M948 1596q137 0 284 -88q106 -89 136 -160q30 -35 60 -192l8 -64v-40l4 -16l-4 -16l4 -4v-4l-4 -4v-4l4 -24q0 -90 -84 -272q-56 -99 -164 -184q-67 -57 -192 -96q-45 -4 -60 -12l-4 4l-56 -8q-76 0 -88 80q0 56 68 240v4l-8 8q0 -20 -132 -168q-154 -143 -220 -152
l-44 -12q-90 0 -116 84l-8 60q0 155 164 404q198 243 320 268l56 20h60q51 0 92 -68h4q29 48 56 48l40 4q40 -4 40 -12v-12q-48 -93 -148 -368q-84 -206 -84 -284v-12q0 -40 48 -40l28 -4l24 8h12q0 16 28 16q124 89 172 200q40 83 64 196l-4 16l12 120l-8 32l4 4
q0 144 -88 280q-80 94 -136 100q0 17 -120 40l-36 4l-4 -4l-28 4h-32l-24 -4l-4 4h-4q-127 -10 -292 -108q-91 -70 -104 -92q-48 -42 -48 -52q-71 -77 -140 -208q-84 -199 -92 -316l4 -4v-4l-8 -24v-120l4 -16l-4 -4v-4q0 -58 64 -228l44 -68q147 -184 404 -184
q241 0 368 88q9 0 32 -48q-15 -44 -204 -100q-124 -24 -188 -24h-104q-169 0 -340 116q-104 80 -152 172q-76 135 -76 288v40l-4 16q12 156 44 260l40 100q67 159 200 296q79 94 188 168q177 117 372 140h104zM480 640l4 -4l-8 -52q0 -42 32 -68h36q86 13 280 256
q136 190 136 320q-21 80 -48 80q0 9 -44 12q-107 -15 -252 -228q-119 -215 -120 -276q-8 0 -8 -32z" />
    <glyph glyph-name="A" unicode="A" horiz-adv-x="1592" 
d="M832 1608q648 0 648 -656v-568q0 -110 72 -232v-24q0 -72 -96 -72l-152 -8h-40q-140 0 -192 72q0 22 -24 48q-28 0 -216 -112q-52 -32 -200 -48h-56q-206 0 -440 144q-136 124 -136 320v8q0 328 464 472q132 38 504 72l32 40v80q0 280 -288 280q-184 -16 -184 -88l24 -96
v-8q-22 -240 -184 -240q-232 34 -232 192v56q0 158 384 312q158 56 312 56zM520 464q0 -156 128 -216l88 -16q196 0 264 328l8 128q0 152 -72 152h-8q-408 -38 -408 -376z" />
    <glyph glyph-name="B" unicode="B" horiz-adv-x="1696" 
d="M104 1592l136 -8h704q482 0 576 -272l8 -40v-72q0 -152 -168 -296v-24q18 -28 168 -120q128 -128 128 -288v-16q0 -350 -584 -416l-976 -8q-96 0 -96 72v8q0 30 64 112q32 82 32 192v872q0 118 -56 224v24q14 48 64 48v8zM584 1304v-64v-88q0 -200 56 -200l8 -8h8
q274 0 344 136q24 42 24 80v72q0 114 -168 160q-36 16 -104 16h-96q-72 0 -72 -104zM584 496q0 -256 88 -256q0 -18 136 -32q344 0 344 280t-400 280h-64q-96 0 -96 -128z" />
    <glyph glyph-name="C" unicode="C" horiz-adv-x="1568" 
d="M832 1616q340 0 664 -176l32 -64q-88 -392 -168 -392h-8q-76 0 -104 192q-126 272 -304 272h-72q-146 -34 -200 -120q-144 -214 -144 -512q0 -432 248 -576q90 -40 176 -40h24q256 0 416 312l40 8h40q56 -36 56 -80q0 -130 -264 -336q-210 -104 -464 -104
q-406 0 -688 368q-112 218 -112 432v16q0 618 648 784z" />
    <glyph glyph-name="D" unicode="D" horiz-adv-x="1760" 
d="M104 1592l320 -8h464q298 0 584 -216q248 -226 248 -576q0 -378 -360 -616q-240 -136 -464 -136l-200 -8h-600q-68 0 -96 48v56q96 90 96 240l8 896q0 100 -64 232v16q0 50 64 72zM584 1328v-96v-744q0 -218 64 -264q70 -24 120 -24q268 0 368 288q48 166 48 296v56
q0 416 -200 528q-108 56 -296 56q-104 0 -104 -96z" />
    <glyph glyph-name="E" unicode="E" horiz-adv-x="1616" 
d="M792 1616q504 0 712 -424q32 -86 40 -168q0 -96 -216 -96l-160 8h-496q-136 0 -136 -80v-120q0 -350 264 -480l128 -32q344 48 344 176q0 18 -112 144l-16 72v48q0 166 240 200q126 -42 168 -128l24 -104v-8v-8q0 -196 -248 -448q-202 -144 -528 -144h-8q-438 0 -680 376
q-112 174 -112 432q0 536 504 736q148 48 288 48zM544 1176q0 -72 168 -72h48l200 8l40 40v64q0 106 -120 208l-72 16h-56q-170 0 -208 -264z" />
    <glyph glyph-name="F" unicode="F" horiz-adv-x="1504" 
d="M104 1592l136 -8h160l928 8q70 0 136 -376q0 -50 -64 -56h-24q-28 0 -224 160q-186 104 -328 104v8l-8 -8l-80 8q-144 0 -144 -80l-8 -136v-120q0 -152 64 -152l80 -8q272 0 384 184l56 16q62 0 72 -96v-112v-64v-72l8 -32q0 -152 -80 -152h-16q-26 0 -152 104
q-112 56 -280 56h-32q-96 0 -96 -104l-8 -248v-8q0 -122 96 -272v-48q-28 -48 -72 -48h-528q-48 0 -80 48v40l72 128l24 184v48v816q0 78 -64 208v16q34 64 72 64z" />
    <glyph glyph-name="G" unicode="G" horiz-adv-x="1768" 
d="M936 1616v-8l8 8q712 -68 712 -208q-78 -400 -168 -400h-8q-72 0 -120 184q-124 248 -376 248q-306 0 -416 -376q-32 -132 -40 -264q0 -502 320 -616l88 -16q164 0 224 128l16 72v192q0 102 -88 200v24q0 72 88 72h48h424q80 0 80 -64v-24q-64 -134 -64 -256v-96l16 -176
q-54 -138 -552 -232l-208 -8q-610 0 -872 512q-48 166 -48 312q0 542 616 744q76 32 320 48z" />
    <glyph glyph-name="H" unicode="H" horiz-adv-x="1848" 
d="M136 1584l216 -8l320 8q32 0 56 -72q0 -36 -80 -104q-24 -52 -24 -128v-184q0 -152 64 -152l424 -8q72 0 72 168v176q0 132 -80 200l-8 32q14 54 56 72l216 -8l320 8q64 -6 64 -64v-40q-88 -48 -88 -320v-624q0 -322 120 -360q24 -34 24 -64q0 -62 -96 -72h-128l-256 -8
q-288 0 -288 64v24q0 44 96 104q48 84 48 280v88q0 176 -80 176l-216 8q-248 0 -248 -48l-16 -136v-128q0 -236 104 -296q24 -8 24 -48q0 -80 -136 -80l-416 -8q-200 0 -200 80v32q128 96 128 216l8 88v872q0 90 -72 168v24q10 72 72 72z" />
    <glyph glyph-name="I" unicode="I" horiz-adv-x="784" 
d="M304 1656h64q164 0 192 -200q0 -146 -208 -184h-8q-224 32 -207 208t167 176zM528 1192q72 0 72 -176v-512l8 -184q0 -56 128 -160l8 -40q0 -62 -96 -72h-432l-88 -8q-128 0 -128 80v8q0 46 104 104q40 44 40 216l-8 408v32q0 76 -96 144l-8 56q0 68 304 80z" />
    <glyph glyph-name="J" unicode="J" horiz-adv-x="1168" 
d="M488 1608l160 -8h440l40 -40v-56q0 -14 -72 -64q-48 -58 -48 -272v-120v-256l8 -80q0 -522 -376 -664q-110 -32 -200 -32h-104q-336 16 -336 112v8q112 440 168 440h16q96 0 96 -208q52 -184 128 -184q82 0 120 312l8 744q0 190 -96 240q-20 0 -32 56q26 72 80 72z" />
    <glyph glyph-name="K" unicode="K" horiz-adv-x="1704" 
d="M96 1576h160l88 -8l104 8h216q44 0 64 -48v-32q0 -34 -96 -120l-16 -216q16 -112 48 -112q58 0 328 272l8 56l-88 120v16q0 52 72 64l264 -8l312 8q48 -16 48 -64v-32q0 -38 -280 -160q-148 -78 -424 -336v-32q12 -18 232 -120q150 -126 296 -392q18 -76 224 -288l8 -40
q0 -80 -176 -80h-296q-124 0 -160 96q-252 600 -328 600l-24 8q-64 0 -64 -304v-40q22 -184 43 -196t49 -35t28 -49q0 -80 -208 -80h-312h-56q-160 0 -160 80v8q0 34 96 120q32 66 32 176v176l8 312l-8 320v96q0 80 -96 152l-8 32q12 72 72 72z" />
    <glyph glyph-name="L" unicode="L" horiz-adv-x="1664" 
d="M128 1576h88l240 -8l232 8h56q44 0 64 -48v-32q0 -36 -104 -128l-24 -144v-768q0 -280 200 -280q158 6 392 104l256 176h24q72 -12 72 -72q-88 -376 -160 -376l-64 -8h-48h-1192q-160 0 -160 96q6 42 136 112q48 84 48 272v816q0 74 -128 176v40q0 64 72 64z" />
    <glyph glyph-name="M" unicode="M" horiz-adv-x="2768" 
d="M1040 1568h96q194 0 392 -192l32 -8q30 0 152 112q140 88 312 88h32q370 0 496 -352q22 -50 32 -216v-48l-8 -504q0 -232 104 -280q34 -10 48 -40v-40q0 -72 -120 -72h-544q-104 0 -104 88q0 22 112 128l24 96v400l8 8l-8 8v216q0 326 -192 368h-56q-174 0 -224 -392
l-8 -104v-408v-56v-8q0 -126 144 -224l8 -32v-40q-24 -48 -104 -48h-496q-176 0 -176 64v16q0 38 96 112q24 26 48 128v600q0 352 -200 392h-16q-186 0 -256 -304l-8 -160v-240q0 -376 112 -448q56 -24 56 -72v-16q0 -72 -96 -72h-600q-128 0 -128 88q0 20 112 128
q64 146 64 312v248v256q0 218 -120 312v24q0 82 208 96l296 40l104 -80h16l160 88q122 40 200 40z" />
    <glyph glyph-name="N" unicode="N" horiz-adv-x="1800" 
d="M1088 1588q420 0 520 -424l16 -152v-656q0 -134 128 -208l8 -40q0 -72 -96 -80h-552q-104 10 -104 80q0 32 104 128l24 128v544q0 440 -232 440q-196 0 -248 -392l-8 -88v-384q0 -228 144 -336l8 -32v-16q0 -72 -96 -72h-520l-32 -8q-152 0 -152 80v32q160 112 160 416
v544l-8 112q-24 74 -120 152l-16 48q0 88 240 88l288 48q22 0 120 -88h16q164 136 408 136z" />
    <glyph glyph-name="O" unicode="O" horiz-adv-x="1801" 
d="M816 1624h120q300 4 550 -230t266 -522t-168 -536q-286 -304 -680 -304h-56q-360 0 -648 288q-132 138 -192 384l-8 72v48q0 440 424 696q218 104 392 104zM544 840v-104v-40q40 -276 145 -386t199 -110q230 0 312 376q24 138 24 256v24q0 398 -208 568q-58 32 -128 32
h-24q-244 0 -312 -480z" />
    <glyph glyph-name="P" unicode="P" horiz-adv-x="1616" 
d="M112 1610l288 -8h96h128h296q366 0 592 -208q64 -112 64 -200q0 -394 -680 -464h-64h-40q-160 0 -160 -80l-8 -96l-8 -80q0 -220 120 -296q16 0 16 -40v-8q0 -80 -184 -80h-360l-168 8q-40 32 -40 64v16q0 46 88 96q32 40 48 256v808q0 116 -88 224v24q0 38 64 64z
M616 1202l8 -72v-128q0 -96 80 -96q252 0 328 176l24 88l-8 96q-74 168 -288 184q-128 0 -128 -88z" />
    <glyph glyph-name="Q" unicode="Q" horiz-adv-x="1464" 
d="M648 1624h128q308 0 536 -272q112 -156 112 -408q0 -284 -296 -496q-98 -54 -112 -80v-24q102 -112 224 -112l16 8q62 0 88 -48v-56q0 -54 -296 -128l-56 -8h-32q-62 0 -264 120q-112 56 -192 56l-120 -16q-72 24 -72 96l64 104q-2 40 -184 160q-192 186 -192 432v48
q0 386 384 560q146 64 264 64zM424 976q0 -296 120 -408q68 -72 176 -72q224 0 272 352l8 136q0 318 -152 440l-88 32h-80q-118 0 -200 -160q-56 -148 -56 -320z" />
    <glyph glyph-name="R" unicode="R" horiz-adv-x="1752" 
d="M160 1620h24l96 -8h664q624 0 624 -376v-56q0 -158 -256 -312l-8 -40q156 -190 232 -408q40 -102 176 -256v-24q0 -80 -184 -80h-184q-232 0 -232 120q-148 460 -288 576q-66 32 -128 32h-32q-56 0 -56 -184v-176q0 -140 112 -264v-24q0 -80 -152 -80h-464
q-104 0 -104 96q112 116 112 208l8 128v808q0 122 -88 224v16q0 80 128 80zM608 1316v-240q0 -96 112 -96q274 0 320 184l8 32q0 256 -336 256h-24q-80 0 -80 -136z" />
    <glyph glyph-name="S" unicode="S" horiz-adv-x="1552" 
d="M808 1660q218 0 584 -120l32 -72q-84 -376 -160 -376h-16q-88 38 -88 104q-104 288 -368 288q-230 0 -264 -216v-16q0 -144 496 -216q292 -68 392 -176q96 -98 96 -280v-16q0 -382 -552 -512q-98 -24 -216 -24h-104h-16q-624 76 -624 200q76 400 160 400q78 0 160 -216
q190 -208 344 -208h88q296 0 296 224q0 176 -280 208q-466 84 -592 208q-112 128 -112 280v40q0 316 432 456q166 32 312 40z" />
    <glyph glyph-name="T" unicode="T" horiz-adv-x="1744" 
d="M1536 1608q88 0 120 -208l48 -168q0 -66 -88 -80q-20 0 -256 208q-124 56 -160 56h-8q-96 0 -96 -152v-296v-456q0 -286 104 -344l16 -48q0 -80 -176 -80h-8h-88h-16h-224h-64q-160 0 -160 72v16q0 36 96 120q32 110 32 216v728v96q0 128 -104 128q-122 0 -384 -248
l-56 -16q-64 20 -64 72q68 384 152 384h1384z" />
    <glyph glyph-name="U" unicode="U" horiz-adv-x="1912" 
d="M632 1624q72 -24 72 -80l-16 -680v-120q0 -378 136 -440q52 -32 104 -40q206 0 280 320q24 130 24 240v352q0 190 -80 224q-32 0 -72 56v32q0 80 224 80l368 56q52 0 64 -72v-112v-944q0 -242 136 -336v-32q0 -80 -184 -80h-272q-102 0 -136 112l-24 16h-16l-192 -112
q-162 -64 -272 -64q-426 0 -560 400q-32 122 -32 232v152l-8 160v296q0 126 -96 152q-62 0 -80 88q0 88 296 88z" />
    <glyph glyph-name="V" unicode="V" horiz-adv-x="1848" 
d="M72 1584l208 -8l144 -8l272 8l24 8v-8l24 8q104 0 104 -80q0 -38 -104 -128l-8 -32q0 -72 312 -592l8 -8h40q168 208 232 464l8 88v32q0 60 -128 144l-8 32q16 72 72 72h320l112 8h24q80 0 80 -96l-240 -256q-208 -396 -576 -1160q-40 -72 -96 -72q-70 0 -208 320
q-76 128 -376 744q-188 360 -272 360l-40 48v40q12 72 72 72z" />
    <glyph glyph-name="W" unicode="W" horiz-adv-x="2744" 
d="M1496 1648h16q58 0 128 -168l248 -472q50 -124 112 -184h8q64 0 152 256q64 116 64 176v48q0 98 -176 152q-24 30 -24 56v8q12 72 72 72l528 -8q62 0 80 -48v-32q0 -36 -176 -200q-134 -114 -464 -936q-142 -328 -184 -328h-40q-68 0 -208 328q-202 400 -264 472h-16
q-56 0 -128 -176l-312 -608l-48 -16h-8q-80 0 -248 408q-24 24 -392 816q-86 152 -200 200l-16 48v8q0 62 80 72l336 -16l304 8h16l72 8q72 -16 72 -72v-16q0 -42 -96 -104q-32 -34 -32 -64q0 -66 256 -512l40 -8h8q78 90 328 696q54 136 112 136z" />
    <glyph glyph-name="X" unicode="X" horiz-adv-x="1736" 
d="M712 1640q176 0 176 -88q0 -18 -80 -120v-16q64 -200 136 -200q128 104 128 192q0 40 -56 136v16q12 72 64 72l232 -8l256 8q52 0 64 -72q0 -70 -232 -184q-268 -220 -328 -384q40 -132 440 -680l88 -72q96 -58 96 -112t-80 -72h-728q-52 0 -80 56v24q0 38 72 96v48
q0 76 -136 248l-40 8q-176 -152 -176 -272l88 -120v-24q-30 -64 -80 -64h-440q-96 10 -96 72q0 58 192 176q372 346 408 488q0 28 -288 472q-92 122 -256 256l-8 40q16 72 72 72l352 -8h176z" />
    <glyph glyph-name="Y" unicode="Y" horiz-adv-x="1520" 
d="M104 1632l80 -8h320l128 8q80 -14 80 -80q0 -38 -72 -112v-8q0 -84 224 -392l32 -16h8q34 0 184 360q0 72 -80 144l-8 24q16 72 72 72h200h56l72 8q80 -8 80 -80q0 -34 -160 -184q-170 -264 -600 -1072q-188 -248 -408 -248l-48 -8q-264 56 -264 192v56q40 184 184 184
h48q108 0 208 -160h48q120 90 120 184q0 132 -440 904q-136 102 -136 168q34 64 72 64z" />
    <glyph glyph-name="Z" unicode="Z" horiz-adv-x="1504" 
d="M320 1636h64h848q176 0 176 -64v-24q-40 -118 -624 -1088q-80 -142 -80 -168q20 -40 64 -40q278 0 600 328h24q42 0 72 -48v-8q0 -88 -136 -432q-40 -24 -80 -24h-144l-744 -8h-40h-8q-312 0 -312 72v16q36 100 376 576l296 456q104 146 104 208v24q0 24 -112 40
q-254 0 -536 -248h-32q-72 12 -72 72q86 352 152 352z" />
    <glyph glyph-name="bracketleft" unicode="[" horiz-adv-x="517" 
d="M28 1592l20 -4h20l12 4l20 -4h152l24 4l12 -4l28 4l80 -4h20l12 -12v-16q0 -11 -80 -32q-48 -20 -48 -104l-4 -52l4 -36v-164l-4 -12l4 -20v-816l4 -36l-4 -28v-52l4 -16l-4 -16q0 -90 68 -116q47 0 64 -28v-12q0 -7 -24 -20l-20 4h-12l-12 -4l-20 4h-324q-14 0 -20 44
l4 44l-4 40l4 20l-4 4v4l4 24v4l-4 20l4 24v48l-4 16l4 12l-4 4l4 20v16l-4 16l4 16v20l-4 16l4 20l-4 20l4 32l-4 44l4 40l-4 136h4l-4 4v32l4 16l-4 16v8l4 4l-4 4v8l4 4l-4 4v4l4 44l-4 52v16l4 20l-4 24v28l4 12l-4 20v132l4 24l-4 20l4 16l-4 28v176l4 16l-4 16v108
q0 24 28 24v4zM200 1280l-4 -4v-8h12v4z" />
    <glyph glyph-name="backslash" unicode="\" horiz-adv-x="854" 
d="M192 1492l276 -644l224 -532l-8 -16v-4h4l4 4q22 -18 96 -220q-20 -19 -184 -80h-8l-72 160q-32 97 -52 124q-132 329 -320 764l-28 64l-124 288v12q66 40 188 80h4z" />
    <glyph glyph-name="bracketright" unicode="]" horiz-adv-x="532" 
d="M404 1588q28 0 28 -24v-108l-4 -16l4 -16v-176l-4 -28l4 -16l-4 -20l4 -24v-132l-4 -20l4 -12v-28l-4 -24l4 -20v-16l-4 -52l4 -44v-4l-4 -4l4 -4v-8l-4 -4l4 -4v-8l-4 -16l4 -16v-32l-4 -4h4l-4 -136l4 -40l-4 -44l4 -32l-4 -20l4 -20l-4 -16v-20l4 -16l-4 -16v-16
l4 -20l-4 -4l4 -12l-4 -16v-48l4 -24l-4 -20v-4l4 -24v-4l-4 -4l4 -20l-4 -40l4 -44q-6 -44 -20 -44h-324l-20 -4l-12 4h-12l-20 -4q-24 13 -24 20v12q18 28 64 28q68 26 68 116l-4 16l4 16v52l-4 28l4 36v816l4 20l-4 12v164l4 36l-4 52q0 84 -48 104q-80 21 -80 32v16
l12 12h20l80 4l28 -4l12 4l24 -4h152l20 4l12 -4h20l20 4v-4zM224 1272v-4h12v8l-4 4z" />
    <glyph glyph-name="asciicircum" unicode="^" horiz-adv-x="961" 
 />
    <glyph glyph-name="underscore" unicode="_" horiz-adv-x="1139" 
d="M12 212h12l24 -4l4 4h12v-4l40 4h4l76 -4l84 4h40l20 -4l24 4h28l24 -4l40 4h388l16 4q44 -4 44 -12v-192l-8 -8h-700l-16 -4l-16 4h-120l-20 -4l-12 24l4 20l-4 4l4 20v136z" />
    <glyph glyph-name="grave" unicode="`" 
 />
    <glyph glyph-name="a" unicode="a" horiz-adv-x="1592" 
d="M832 1608q648 0 648 -656v-568q0 -110 72 -232v-24q0 -72 -96 -72l-152 -8h-40q-140 0 -192 72q0 22 -24 48q-28 0 -216 -112q-52 -32 -200 -48h-56q-206 0 -440 144q-136 124 -136 320v8q0 328 464 472q132 38 504 72l32 40v80q0 280 -288 280q-184 -16 -184 -88l24 -96
v-8q-22 -240 -184 -240q-232 34 -232 192v56q0 158 384 312q158 56 312 56zM520 464q0 -156 128 -216l88 -16q196 0 264 328l8 128q0 152 -72 152h-8q-408 -38 -408 -376z" />
    <glyph glyph-name="b" unicode="b" horiz-adv-x="1696" 
d="M104 1592l136 -8h704q482 0 576 -272l8 -40v-72q0 -152 -168 -296v-24q18 -28 168 -120q128 -128 128 -288v-16q0 -350 -584 -416l-976 -8q-96 0 -96 72v8q0 30 64 112q32 82 32 192v872q0 118 -56 224v24q14 48 64 48v8zM584 1304v-64v-88q0 -200 56 -200l8 -8h8
q274 0 344 136q24 42 24 80v72q0 114 -168 160q-36 16 -104 16h-96q-72 0 -72 -104zM584 496q0 -256 88 -256q0 -18 136 -32q344 0 344 280t-400 280h-64q-96 0 -96 -128z" />
    <glyph glyph-name="c" unicode="c" horiz-adv-x="1568" 
d="M832 1616q340 0 664 -176l32 -64q-88 -392 -168 -392h-8q-76 0 -104 192q-126 272 -304 272h-72q-146 -34 -200 -120q-144 -214 -144 -512q0 -432 248 -576q90 -40 176 -40h24q256 0 416 312l40 8h40q56 -36 56 -80q0 -130 -264 -336q-210 -104 -464 -104
q-406 0 -688 368q-112 218 -112 432v16q0 618 648 784z" />
    <glyph glyph-name="d" unicode="d" horiz-adv-x="1760" 
d="M104 1592l320 -8h464q298 0 584 -216q248 -226 248 -576q0 -378 -360 -616q-240 -136 -464 -136l-200 -8h-600q-68 0 -96 48v56q96 90 96 240l8 896q0 100 -64 232v16q0 50 64 72zM584 1328v-96v-744q0 -218 64 -264q70 -24 120 -24q268 0 368 288q48 166 48 296v56
q0 416 -200 528q-108 56 -296 56q-104 0 -104 -96z" />
    <glyph glyph-name="e" unicode="e" horiz-adv-x="1616" 
d="M792 1616q504 0 712 -424q32 -86 40 -168q0 -96 -216 -96l-160 8h-496q-136 0 -136 -80v-120q0 -350 264 -480l128 -32q344 48 344 176q0 18 -112 144l-16 72v48q0 166 240 200q126 -42 168 -128l24 -104v-8v-8q0 -196 -248 -448q-202 -144 -528 -144h-8q-438 0 -680 376
q-112 174 -112 432q0 536 504 736q148 48 288 48zM544 1176q0 -72 168 -72h48l200 8l40 40v64q0 106 -120 208l-72 16h-56q-170 0 -208 -264z" />
    <glyph glyph-name="f" unicode="f" horiz-adv-x="1504" 
d="M104 1592l136 -8h160l928 8q70 0 136 -376q0 -50 -64 -56h-24q-28 0 -224 160q-186 104 -328 104v8l-8 -8l-80 8q-144 0 -144 -80l-8 -136v-120q0 -152 64 -152l80 -8q272 0 384 184l56 16q62 0 72 -96v-112v-64v-72l8 -32q0 -152 -80 -152h-16q-26 0 -152 104
q-112 56 -280 56h-32q-96 0 -96 -104l-8 -248v-8q0 -122 96 -272v-48q-28 -48 -72 -48h-528q-48 0 -80 48v40l72 128l24 184v48v816q0 78 -64 208v16q34 64 72 64z" />
    <glyph glyph-name="g" unicode="g" horiz-adv-x="1768" 
d="M936 1616v-8l8 8q712 -68 712 -208q-78 -400 -168 -400h-8q-72 0 -120 184q-124 248 -376 248q-306 0 -416 -376q-32 -132 -40 -264q0 -502 320 -616l88 -16q164 0 224 128l16 72v192q0 102 -88 200v24q0 72 88 72h48h424q80 0 80 -64v-24q-64 -134 -64 -256v-96l16 -176
q-54 -138 -552 -232l-208 -8q-610 0 -872 512q-48 166 -48 312q0 542 616 744q76 32 320 48z" />
    <glyph glyph-name="h" unicode="h" horiz-adv-x="1848" 
d="M136 1584l216 -8l320 8q32 0 56 -72q0 -36 -80 -104q-24 -52 -24 -128v-184q0 -152 64 -152l424 -8q72 0 72 168v176q0 132 -80 200l-8 32q14 54 56 72l216 -8l320 8q64 -6 64 -64v-40q-88 -48 -88 -320v-624q0 -322 120 -360q24 -34 24 -64q0 -62 -96 -72h-128l-256 -8
q-288 0 -288 64v24q0 44 96 104q48 84 48 280v88q0 176 -80 176l-216 8q-248 0 -248 -48l-16 -136v-128q0 -236 104 -296q24 -8 24 -48q0 -80 -136 -80l-416 -8q-200 0 -200 80v32q128 96 128 216l8 88v872q0 90 -72 168v24q10 72 72 72z" />
    <glyph glyph-name="i" unicode="i" horiz-adv-x="784" 
d="M304 1656h64q164 0 192 -200q0 -146 -208 -184h-8q-224 32 -207 208t167 176zM528 1192q72 0 72 -176v-512l8 -184q0 -56 128 -160l8 -40q0 -62 -96 -72h-432l-88 -8q-128 0 -128 80v8q0 46 104 104q40 44 40 216l-8 408v32q0 76 -96 144l-8 56q0 68 304 80z" />
    <glyph glyph-name="j" unicode="j" horiz-adv-x="1168" 
d="M488 1608l160 -8h440l40 -40v-56q0 -14 -72 -64q-48 -58 -48 -272v-120v-256l8 -80q0 -522 -376 -664q-110 -32 -200 -32h-104q-336 16 -336 112v8q112 440 168 440h16q96 0 96 -208q52 -184 128 -184q82 0 120 312l8 744q0 190 -96 240q-20 0 -32 56q26 72 80 72z" />
    <glyph glyph-name="k" unicode="k" horiz-adv-x="1704" 
d="M96 1576h160l88 -8l104 8h216q44 0 64 -48v-32q0 -34 -96 -120l-16 -216q16 -112 48 -112q58 0 328 272l8 56l-88 120v16q0 52 72 64l264 -8l312 8q48 -16 48 -64v-32q0 -38 -280 -160q-148 -78 -424 -336v-32q12 -18 232 -120q150 -126 296 -392q18 -76 224 -288l8 -40
q0 -80 -176 -80h-296q-124 0 -160 96q-252 600 -328 600l-24 8q-64 0 -64 -304v-40q22 -184 43 -196t49 -35t28 -49q0 -80 -208 -80h-312h-56q-160 0 -160 80v8q0 34 96 120q32 66 32 176v176l8 312l-8 320v96q0 80 -96 152l-8 32q12 72 72 72z" />
    <glyph glyph-name="l" unicode="l" horiz-adv-x="1664" 
d="M128 1576h88l240 -8l232 8h56q44 0 64 -48v-32q0 -36 -104 -128l-24 -144v-768q0 -280 200 -280q158 6 392 104l256 176h24q72 -12 72 -72q-88 -376 -160 -376l-64 -8h-48h-1192q-160 0 -160 96q6 42 136 112q48 84 48 272v816q0 74 -128 176v40q0 64 72 64z" />
    <glyph glyph-name="m" unicode="m" horiz-adv-x="2768" 
d="M1040 1568h96q194 0 392 -192l32 -8q30 0 152 112q140 88 312 88h32q370 0 496 -352q22 -50 32 -216v-48l-8 -504q0 -232 104 -280q34 -10 48 -40v-40q0 -72 -120 -72h-544q-104 0 -104 88q0 22 112 128l24 96v400l8 8l-8 8v216q0 326 -192 368h-56q-174 0 -224 -392
l-8 -104v-408v-56v-8q0 -126 144 -224l8 -32v-40q-24 -48 -104 -48h-496q-176 0 -176 64v16q0 38 96 112q24 26 48 128v600q0 352 -200 392h-16q-186 0 -256 -304l-8 -160v-240q0 -376 112 -448q56 -24 56 -72v-16q0 -72 -96 -72h-600q-128 0 -128 88q0 20 112 128
q64 146 64 312v248v256q0 218 -120 312v24q0 82 208 96l296 40l104 -80h16l160 88q122 40 200 40z" />
    <glyph glyph-name="n" unicode="n" horiz-adv-x="1800" 
d="M1088 1588q420 0 520 -424l16 -152v-656q0 -134 128 -208l8 -40q0 -72 -96 -80h-552q-104 10 -104 80q0 32 104 128l24 128v544q0 440 -232 440q-196 0 -248 -392l-8 -88v-384q0 -228 144 -336l8 -32v-16q0 -72 -96 -72h-520l-32 -8q-152 0 -152 80v32q160 112 160 416
v544l-8 112q-24 74 -120 152l-16 48q0 88 240 88l288 48q22 0 120 -88h16q164 136 408 136z" />
    <glyph glyph-name="o" unicode="o" horiz-adv-x="1801" 
d="M816 1624h120q300 4 550 -230t266 -522t-168 -536q-286 -304 -680 -304h-56q-360 0 -648 288q-132 138 -192 384l-8 72v48q0 440 424 696q218 104 392 104zM544 840v-104v-40q40 -276 145 -386t199 -110q230 0 312 376q24 138 24 256v24q0 398 -208 568q-58 32 -128 32
h-24q-244 0 -312 -480z" />
    <glyph glyph-name="p" unicode="p" horiz-adv-x="1616" 
d="M112 1610l288 -8h96h128h296q366 0 592 -208q64 -112 64 -200q0 -394 -680 -464h-64h-40q-160 0 -160 -80l-8 -96l-8 -80q0 -220 120 -296q16 0 16 -40v-8q0 -80 -184 -80h-360l-168 8q-40 32 -40 64v16q0 46 88 96q32 40 48 256v808q0 116 -88 224v24q0 38 64 64z
M616 1202l8 -72v-128q0 -96 80 -96q252 0 328 176l24 88l-8 96q-74 168 -288 184q-128 0 -128 -88z" />
    <glyph glyph-name="q" unicode="q" horiz-adv-x="1464" 
d="M648 1624h128q308 0 536 -272q112 -156 112 -408q0 -284 -296 -496q-98 -54 -112 -80v-24q102 -112 224 -112l16 8q62 0 88 -48v-56q0 -54 -296 -128l-56 -8h-32q-62 0 -264 120q-112 56 -192 56l-120 -16q-72 24 -72 96l64 104q-2 40 -184 160q-192 186 -192 432v48
q0 386 384 560q146 64 264 64zM424 976q0 -296 120 -408q68 -72 176 -72q224 0 272 352l8 136q0 318 -152 440l-88 32h-80q-118 0 -200 -160q-56 -148 -56 -320z" />
    <glyph glyph-name="r" unicode="r" horiz-adv-x="1752" 
d="M160 1620h24l96 -8h664q624 0 624 -376v-56q0 -158 -256 -312l-8 -40q156 -190 232 -408q40 -102 176 -256v-24q0 -80 -184 -80h-184q-232 0 -232 120q-148 460 -288 576q-66 32 -128 32h-32q-56 0 -56 -184v-176q0 -140 112 -264v-24q0 -80 -152 -80h-464
q-104 0 -104 96q112 116 112 208l8 128v808q0 122 -88 224v16q0 80 128 80zM608 1316v-240q0 -96 112 -96q274 0 320 184l8 32q0 256 -336 256h-24q-80 0 -80 -136z" />
    <glyph glyph-name="s" unicode="s" horiz-adv-x="1552" 
d="M808 1660q218 0 584 -120l32 -72q-84 -376 -160 -376h-16q-88 38 -88 104q-104 288 -368 288q-230 0 -264 -216v-16q0 -144 496 -216q292 -68 392 -176q96 -98 96 -280v-16q0 -382 -552 -512q-98 -24 -216 -24h-104h-16q-624 76 -624 200q76 400 160 400q78 0 160 -216
q190 -208 344 -208h88q296 0 296 224q0 176 -280 208q-466 84 -592 208q-112 128 -112 280v40q0 316 432 456q166 32 312 40z" />
    <glyph glyph-name="t" unicode="t" horiz-adv-x="1744" 
d="M1536 1608q88 0 120 -208l48 -168q0 -66 -88 -80q-20 0 -256 208q-124 56 -160 56h-8q-96 0 -96 -152v-296v-456q0 -286 104 -344l16 -48q0 -80 -176 -80h-8h-88h-16h-224h-64q-160 0 -160 72v16q0 36 96 120q32 110 32 216v728v96q0 128 -104 128q-122 0 -384 -248
l-56 -16q-64 20 -64 72q68 384 152 384h1384z" />
    <glyph glyph-name="u" unicode="u" horiz-adv-x="1912" 
d="M632 1624q72 -24 72 -80l-16 -680v-120q0 -378 136 -440q52 -32 104 -40q206 0 280 320q24 130 24 240v352q0 190 -80 224q-32 0 -72 56v32q0 80 224 80l368 56q52 0 64 -72v-112v-944q0 -242 136 -336v-32q0 -80 -184 -80h-272q-102 0 -136 112l-24 16h-16l-192 -112
q-162 -64 -272 -64q-426 0 -560 400q-32 122 -32 232v152l-8 160v296q0 126 -96 152q-62 0 -80 88q0 88 296 88z" />
    <glyph glyph-name="v" unicode="v" horiz-adv-x="1848" 
d="M72 1584l208 -8l144 -8l272 8l24 8v-8l24 8q104 0 104 -80q0 -38 -104 -128l-8 -32q0 -72 312 -592l8 -8h40q168 208 232 464l8 88v32q0 60 -128 144l-8 32q16 72 72 72h320l112 8h24q80 0 80 -96l-240 -256q-208 -396 -576 -1160q-40 -72 -96 -72q-70 0 -208 320
q-76 128 -376 744q-188 360 -272 360l-40 48v40q12 72 72 72z" />
    <glyph glyph-name="w" unicode="w" horiz-adv-x="2744" 
d="M1496 1648h16q58 0 128 -168l248 -472q50 -124 112 -184h8q64 0 152 256q64 116 64 176v48q0 98 -176 152q-24 30 -24 56v8q12 72 72 72l528 -8q62 0 80 -48v-32q0 -36 -176 -200q-134 -114 -464 -936q-142 -328 -184 -328h-40q-68 0 -208 328q-202 400 -264 472h-16
q-56 0 -128 -176l-312 -608l-48 -16h-8q-80 0 -248 408q-24 24 -392 816q-86 152 -200 200l-16 48v8q0 62 80 72l336 -16l304 8h16l72 8q72 -16 72 -72v-16q0 -42 -96 -104q-32 -34 -32 -64q0 -66 256 -512l40 -8h8q78 90 328 696q54 136 112 136z" />
    <glyph glyph-name="x" unicode="x" horiz-adv-x="1736" 
d="M712 1640q176 0 176 -88q0 -18 -80 -120v-16q64 -200 136 -200q128 104 128 192q0 40 -56 136v16q12 72 64 72l232 -8l256 8q52 0 64 -72q0 -70 -232 -184q-268 -220 -328 -384q40 -132 440 -680l88 -72q96 -58 96 -112t-80 -72h-728q-52 0 -80 56v24q0 38 72 96v48
q0 76 -136 248l-40 8q-176 -152 -176 -272l88 -120v-24q-30 -64 -80 -64h-440q-96 10 -96 72q0 58 192 176q372 346 408 488q0 28 -288 472q-92 122 -256 256l-8 40q16 72 72 72l352 -8h176z" />
    <glyph glyph-name="y" unicode="y" horiz-adv-x="1520" 
d="M104 1632l80 -8h320l128 8q80 -14 80 -80q0 -38 -72 -112v-8q0 -84 224 -392l32 -16h8q34 0 184 360q0 72 -80 144l-8 24q16 72 72 72h200h56l72 8q80 -8 80 -80q0 -34 -160 -184q-170 -264 -600 -1072q-188 -248 -408 -248l-48 -8q-264 56 -264 192v56q40 184 184 184
h48q108 0 208 -160h48q120 90 120 184q0 132 -440 904q-136 102 -136 168q34 64 72 64z" />
    <glyph glyph-name="z" unicode="z" horiz-adv-x="1504" 
d="M320 1636h64h848q176 0 176 -64v-24q-40 -118 -624 -1088q-80 -142 -80 -168q20 -40 64 -40q278 0 600 328h24q42 0 72 -48v-8q0 -88 -136 -432q-40 -24 -80 -24h-144l-744 -8h-40h-8q-312 0 -312 72v16q36 100 376 576l296 456q104 146 104 208v24q0 24 -112 40
q-254 0 -536 -248h-32q-72 12 -72 72q86 352 152 352z" />
    <glyph glyph-name="braceleft" unicode="{" horiz-adv-x="684" 
d="M528 1532l12 -4l4 4h4l20 -4l16 4l8 -12v-4l-4 -4l4 -12l-8 -36l-28 4q-89 0 -120 -96q-12 -33 -12 -128v-76l4 -32q-11 -254 -64 -292q-52 -53 -92 -60q0 -6 -40 -12v-4q109 -29 152 -100q40 -72 40 -232l4 -12l-4 -20l4 -28h-4l4 -4v-4l-4 -20l4 -16l-4 -36l4 -24
l-4 -12q0 -171 104 -192l44 -4l12 4l8 -12v-48l-8 -8l-20 4l-12 -4q-114 0 -228 48q0 8 -12 8q-63 68 -72 120q0 28 -8 36l-4 120l4 4l-4 20v88l-4 44l4 12q-21 176 -64 176q0 22 -96 48q-68 8 -68 16v56q0 14 100 24q71 24 100 84q28 52 28 256l-4 20q0 226 68 272
q9 26 96 60h12l4 -4h4q0 14 120 24zM312 960v-8h4v8h-4z" />
    <glyph glyph-name="bar" unicode="|" horiz-adv-x="532" 
 />
    <glyph glyph-name="braceright" unicode="}" horiz-adv-x="684" 
d="M184 1508h4l4 4h12q87 -34 96 -60q68 -46 68 -272l-4 -20q0 -204 28 -256q29 -60 100 -84q100 -10 100 -24v-56q0 -8 -68 -16q-96 -26 -96 -48q-43 0 -64 -176l4 -12l-4 -44v-88l-4 -20l4 -4l-4 -120q-8 -8 -8 -36q-9 -52 -72 -120q-12 0 -12 -8q-114 -48 -228 -48l-12 4
l-20 -4l-8 8v48l8 12l12 -4l44 4q104 21 104 192l-4 12l4 24l-4 36l4 16l-4 20v4l4 4h-4l4 28l-4 20l4 12q0 160 40 232q43 71 152 100v4q-40 6 -40 12q-40 7 -92 60q-53 38 -64 292l4 32v76q0 95 -12 128q-31 96 -120 96l-28 -4l-8 36l4 12l-4 4v4l8 12l16 -4l20 4h4l4 -4
l12 4q120 -10 120 -24zM276 960v-8h4v8h-4z" />
    <glyph glyph-name="asciitilde" unicode="~" horiz-adv-x="1196" 
d="M1168 752l8 -8v-192q0 -24 -32 -32q-36 -34 -156 -80q-84 -24 -148 -24l-4 4h-4l-4 -4q-51 0 -240 60q0 18 -232 52h-24q-94 0 -240 -76l-76 -52h-4l-4 4l-4 12h-4l4 20v172q34 35 116 68q109 60 236 60q113 0 316 -72q97 -36 204 -36l12 4l4 -4h4q140 28 232 100z
M1136 648v-8h20v8h-20z" />
    <glyph glyph-name="Adieresis" unicode="&#xc4;" 
 />
    <glyph glyph-name="Aring" unicode="&#xc5;" 
 />
    <glyph glyph-name="Ccedilla" unicode="&#xc7;" 
 />
    <glyph glyph-name="Eacute" unicode="&#xc9;" 
 />
    <glyph glyph-name="Ntilde" unicode="&#xd1;" 
 />
    <glyph glyph-name="Odieresis" unicode="&#xd6;" 
 />
    <glyph glyph-name="Udieresis" unicode="&#xdc;" 
 />
    <glyph glyph-name="aacute" unicode="&#xe1;" 
 />
    <glyph glyph-name="agrave" unicode="&#xe0;" 
 />
    <glyph glyph-name="acircumflex" unicode="&#xe2;" 
 />
    <glyph glyph-name="adieresis" unicode="&#xe4;" 
 />
    <glyph glyph-name="atilde" unicode="&#xe3;" 
 />
    <glyph glyph-name="aring" unicode="&#xe5;" 
 />
    <glyph glyph-name="ccedilla" unicode="&#xe7;" 
 />
    <glyph glyph-name="eacute" unicode="&#xe9;" horiz-adv-x="989" 
d="M700 1400q39 0 64 -56h4q-11 -76 -40 -76q0 -13 -184 -116q-184 -108 -196 -108l-20 4l-24 -4h-20v4l96 96q250 256 284 256h36zM508 940l24 -4l12 4q181 -43 244 -128q96 -116 96 -204l8 -68l-32 -8l-72 4l-16 -4l-4 4h-4l-32 -4l-24 4l-32 -4h-12l-4 4l-4 -4h-56l-24 4
l-20 -4h-4l-20 4l-24 -4h-36l-20 4l-24 -4h-72l-32 4l-32 -4h-76l-4 -16q0 -93 76 -220q9 0 40 -44q14 0 28 -20q96 -64 196 -64h20l4 -4l12 4l12 -4q149 0 260 148q20 -5 20 -12v-4q0 -28 -48 -116q-141 -180 -340 -180q-271 0 -416 208q-40 61 -64 148h4l-12 44l4 16l-4 4
h-4l4 12l-4 24q0 268 240 416q64 40 156 60l12 -4l8 8zM212 576l4 -4h192l36 4l12 -4l12 4l36 -4h12l32 4l32 -4l20 4l12 -4l12 4l12 -4l12 4l12 -4l12 16l-4 36l4 4q0 82 -44 192q-43 80 -156 80l-4 -4h-4l-4 4h-4q-88 0 -176 -104q-68 -119 -68 -220z" />
    <glyph glyph-name="egrave" unicode="&#xe8;" 
 />
    <glyph glyph-name="ecircumflex" unicode="&#xea;" 
 />
    <glyph glyph-name="edieresis" unicode="&#xeb;" 
 />
    <glyph glyph-name="iacute" unicode="&#xed;" 
 />
    <glyph glyph-name="igrave" unicode="&#xec;" 
 />
    <glyph glyph-name="icircumflex" unicode="&#xee;" 
 />
    <glyph glyph-name="idieresis" unicode="&#xef;" 
 />
    <glyph glyph-name="ntilde" unicode="&#xf1;" horiz-adv-x="1199" 
d="M800 1416l4 -4l4 4h44v-12q-24 -117 -84 -172q-43 -33 -84 -40l-4 4l-20 -4h-8q-40 0 -220 44h-24q-64 0 -92 -96h-48q-8 0 -8 12q24 124 84 180q54 40 104 44l20 -4l24 4q183 -48 216 -48q55 0 84 88h8zM760 984q140 0 196 -148l16 -108l-4 -4l4 -20v-532q0 -79 80 -120
q64 0 64 -20v-12q0 -9 -36 -20l-4 4l-20 -4l-24 4l-16 -4l-8 8l-24 -8l-20 4l-16 -4v4l-4 -4h-12l-36 4l-16 -4l-4 4h-4l-4 -4h-4l-44 4l-16 -4l-4 4h-4l-16 -4l-4 4l-4 -4h-12l-16 4l-16 -4h-12l-4 4l-4 -4h-36q-54 0 -64 24q18 28 44 28v-4q86 0 104 132v320l-4 16l4 4v4
l-4 12l4 48v84l-4 16l4 16l-8 32l4 24v4q-21 66 -56 92l-48 16h-44q-88 0 -208 -92q-32 -23 -32 -48l4 -12l-4 -4v-4l4 -12l-4 -12l4 -40v-32l-4 -32l4 -32v-28l-4 -16l8 -12l-4 -28v-268l4 -16l-4 -4v-4q14 -124 120 -124q18 0 24 -16v-12q-6 -20 -52 -20l-20 4l-24 -4h-8
l-12 4l-20 -4h-120l-4 4l-4 -4h-44l-24 4l-4 -4h-4l-24 4l-32 -4l-12 4l-36 -4h-4l-16 4l-4 -4h-4q-32 0 -32 28q0 17 88 32q52 47 52 120h4l-4 4l4 64l-4 36l4 12l-4 12l4 20l-4 56l4 40l-4 16l4 4v4l-4 16l4 28l-4 60l4 4v4l-4 16v20l4 16l-4 12l4 12l-8 28l4 12
q-12 116 -36 116q0 19 -112 48v12q0 18 184 60l180 68l4 -4v-4l-4 -12l4 -24h-4l4 -4v-8l-4 -12l4 -20v-36l-4 -16l4 -24h4q129 93 148 96q112 72 240 72z" />
    <glyph glyph-name="oacute" unicode="&#xf3;" 
 />
    <glyph glyph-name="ograve" unicode="&#xf2;" 
 />
    <glyph glyph-name="ocircumflex" unicode="&#xf4;" 
 />
    <glyph glyph-name="odieresis" unicode="&#xf6;" 
 />
    <glyph glyph-name="otilde" unicode="&#xf5;" 
 />
    <glyph glyph-name="uacute" unicode="&#xfa;" 
 />
    <glyph glyph-name="ugrave" unicode="&#xf9;" 
 />
    <glyph glyph-name="ucircumflex" unicode="&#xfb;" 
 />
    <glyph glyph-name="udieresis" unicode="&#xfc;" horiz-adv-x="1453" 
d="M452 1168v-4l4 4h12l8 -8l4 4h12q62 -17 84 -56l8 -16v-40q-37 -72 -128 -72q-87 0 -120 52q-16 22 -16 44h4l-4 4v4q43 84 132 84zM888 1168q93 0 128 -76l4 -16q0 -66 -100 -92h-64q-55 0 -96 60l-8 16q0 94 136 108zM432 836l8 -8v-164l-4 -16l4 -16v-40l-4 -4l4 -4
v-164l-4 -20l4 -24v-140q0 -91 68 -124q36 -16 56 -16h52l4 -4q124 22 204 64q80 37 80 64l-4 32v8h4l-4 20v60l-4 24l8 32l-4 20v56l-4 20l4 24v32l-4 16l4 4q0 112 -72 128q-33 16 -108 24v8q0 21 200 48l116 28q90 32 120 32l4 -4v-268l-4 -4l4 -4v-276q0 -103 48 -120
q36 -21 128 -36l4 -4v-8q0 -16 -248 -56l-188 -52l-4 4v8l4 16l-4 16v8h4l-4 20v68q-265 -128 -328 -128q-53 -16 -136 -16l-16 4l-4 -4q-113 15 -156 48q-72 66 -72 120q-7 0 -8 28v204l-4 16l4 16v48l-4 32l4 28q0 116 -40 144q-50 20 -140 40v4q0 16 84 28l4 4h4l4 -4h4
q191 40 332 80zM112 736v-8h12l-8 8h-4z" />
    <glyph glyph-name="dagger" unicode="&#x2020;" 
 />
    <glyph glyph-name="degree" unicode="&#xb0;" 
 />
    <glyph glyph-name="cent" unicode="&#xa2;" 
 />
    <glyph glyph-name="sterling" unicode="&#xa3;" 
 />
    <glyph glyph-name="section" unicode="&#xa7;" 
 />
    <glyph glyph-name="bullet" unicode="&#x2022;" 
 />
    <glyph glyph-name="paragraph" unicode="&#xb6;" 
 />
    <glyph glyph-name="germandbls" unicode="&#xdf;" 
 />
    <glyph glyph-name="registered" unicode="&#xae;" 
 />
    <glyph glyph-name="copyright" unicode="&#xa9;" 
 />
    <glyph glyph-name="trademark" unicode="&#x2122;" 
 />
    <glyph glyph-name="acute" unicode="&#xb4;" 
 />
    <glyph glyph-name="dieresis" unicode="&#xa8;" 
 />
    <glyph glyph-name="notequal" unicode="&#x2260;" 
 />
    <glyph glyph-name="AE" unicode="&#xc6;" 
 />
    <glyph glyph-name="Oslash" unicode="&#xd8;" 
 />
    <glyph glyph-name="infinity" unicode="&#x221e;" 
 />
    <glyph glyph-name="plusminus" unicode="&#xb1;" 
 />
    <glyph glyph-name="lessequal" unicode="&#x2264;" 
 />
    <glyph glyph-name="greaterequal" unicode="&#x2265;" 
 />
    <glyph glyph-name="yen" unicode="&#xa5;" 
 />
    <glyph glyph-name="mu" unicode="&#xb5;" 
 />
    <glyph glyph-name="partialdiff" unicode="&#x2202;" 
 />
    <glyph glyph-name="summation" unicode="&#x2211;" 
 />
    <glyph glyph-name="product" unicode="&#x220f;" 
 />
    <glyph glyph-name="glyph155" 
 />
    <glyph glyph-name="integral" unicode="&#x222b;" 
 />
    <glyph glyph-name="ordfeminine" unicode="&#xaa;" 
 />
    <glyph glyph-name="ordmasculine" unicode="&#xba;" 
 />
    <glyph glyph-name="Omega" unicode="&#x2126;" 
 />
    <glyph glyph-name="ae" unicode="&#xe6;" horiz-adv-x="1348" 
d="M440 836v-4l4 4q140 0 196 -100q68 65 176 88l88 12l72 -12l16 4l4 -4q79 -22 164 -104q80 -124 80 -240l-12 -8h-44l-4 4l-4 -4h-8l-52 4l-32 -4v4l-4 -4h-208l-24 4l-12 -4l-4 4l-20 -4h-16l-12 4l-20 -4h-104l4 -4v-4l-4 -12q0 -73 40 -176l56 -60q89 -72 188 -72
l24 4h4l16 -4q103 18 176 80q0 11 52 56h8l8 -12v-12q-44 -135 -148 -196q0 -13 -56 -32q0 -11 -88 -28l-4 4l-28 -4h-88q-12 11 -60 16q-26 21 -60 28q-70 41 -136 116q-81 -73 -132 -96q-115 -64 -176 -64l-4 4l-20 -4q-195 0 -228 128l-4 32q0 160 248 248l232 100v96
l4 4l-4 4v40l4 24l-4 20v12l4 4q-7 8 -12 64q-32 14 -32 20q-124 0 -180 -100q-32 -152 -76 -184q-7 -20 -80 -24h-8q-61 0 -68 84v12h4l-4 12q22 65 56 92l28 24q0 15 108 72q118 52 220 52zM660 516l12 -8h80l4 -4l4 4h288l4 12q-5 243 -116 272l-60 8q-50 0 -128 -60
q-74 -93 -88 -220v-4zM196 232l4 -4v-4l-4 -36v-4q23 -96 56 -96l4 -4q8 0 8 -12h8v4l40 -4h28q144 29 144 180l-4 28l4 4l-4 20v12l4 16l-4 16l4 12l-4 28v64l-8 8q-233 -87 -248 -144q-13 0 -28 -84zM612 456v-8h4v8h-4z" />
    <glyph glyph-name="oslash" unicode="&#xf8;" 
 />
    <glyph glyph-name="questiondown" unicode="&#xbf;" 
 />
    <glyph glyph-name="exclamdown" unicode="&#xa1;" 
 />
    <glyph glyph-name="logicalnot" unicode="&#xac;" 
 />
    <glyph glyph-name="radical" unicode="&#x221a;" 
 />
    <glyph glyph-name="florin" unicode="&#x192;" 
 />
    <glyph glyph-name="approxequal" unicode="&#x2248;" 
 />
    <glyph glyph-name="Delta" unicode="&#x2206;" 
 />
    <glyph glyph-name="guillemotleft" unicode="&#xab;" 
 />
    <glyph glyph-name="guillemotright" unicode="&#xbb;" 
 />
    <glyph glyph-name="ellipsis" unicode="&#x2026;" 
 />
    <glyph glyph-name="Agrave" unicode="&#xc0;" 
 />
    <glyph glyph-name="Atilde" unicode="&#xc3;" 
 />
    <glyph glyph-name="Otilde" unicode="&#xd5;" 
 />
    <glyph glyph-name="OE" unicode="&#x152;" 
 />
    <glyph glyph-name="oe" unicode="&#x153;" 
 />
    <glyph glyph-name="endash" unicode="&#x2013;" 
 />
    <glyph glyph-name="emdash" unicode="&#x2014;" 
 />
    <glyph glyph-name="quotedblleft" unicode="&#x201c;" horiz-adv-x="966" 
d="M292 1452q24 -4 24 -12v-12q-14 -21 -68 -48q-112 -87 -112 -200v-4q0 -37 52 -64l48 4q120 0 152 -100l4 -36v-40q-29 -104 -64 -104q-25 -28 -84 -36h-20q-106 0 -152 64l-16 16v4l4 20l-4 -4h-12q-44 72 -44 140q0 187 172 344q74 62 116 64zM776 1452h20l12 -12v-12
q-21 -23 -80 -56q-100 -84 -100 -200v-4q21 -52 64 -52h4l40 4q88 -13 88 -28q60 -31 60 -132q0 -82 -88 -144q-50 -16 -76 -16h-4q-154 0 -208 160l-12 72v20q0 121 84 240q66 89 152 144zM184 1356v-8h8z" />
    <glyph glyph-name="quotedblright" unicode="&#x201d;" horiz-adv-x="989" 
d="M204 1444q74 0 148 -104q36 -79 36 -116l-4 -4v-4l4 -16q0 -179 -172 -332q-79 -68 -128 -68h-4l-4 4v24q156 101 156 160q10 0 20 80q0 64 -48 64h-44q-126 0 -156 104l-8 32q0 119 116 168zM636 1444l16 -4l28 4q124 0 188 -156l16 -76q-10 -139 -92 -260
q-11 0 -44 -48q-117 -104 -160 -104h-8l-8 8v20l72 48q100 88 100 192q-9 68 -44 68l-28 -4h-48q-100 27 -100 60q-21 0 -36 88q0 90 104 152z" />
    <glyph glyph-name="quoteleft" unicode="&#x2018;" horiz-adv-x="455" 
d="M292 1452q24 -4 24 -12v-12q-14 -21 -68 -48q-112 -87 -112 -200v-4q0 -37 52 -64l48 4q120 0 152 -100l4 -36v-40q-29 -104 -64 -104q-25 -28 -84 -36h-20q-106 0 -152 64l-16 16v4l4 20l-4 -4h-12q-44 72 -44 140q0 187 172 344q74 62 116 64z" />
    <glyph glyph-name="quoteright" unicode="&#x2019;" horiz-adv-x="455" 
d="M204 1444q74 0 148 -104q36 -79 36 -116l-4 -4v-4l4 -16q0 -179 -172 -332q-79 -68 -128 -68h-4l-4 4v24q156 101 156 160q10 0 20 80q0 64 -48 64h-44q-126 0 -156 104l-8 32q0 119 116 168z" />
    <glyph glyph-name="divide" unicode="&#xf7;" 
 />
    <glyph glyph-name="lozenge" unicode="&#x25ca;" 
 />
    <glyph glyph-name="ydieresis" unicode="&#xff;" 
 />
    <glyph glyph-name="Ydieresis" unicode="&#x178;" 
 />
    <glyph glyph-name="fraction" unicode="&#x2044;" 
 />
    <glyph glyph-name="fraction" unicode="&#x2215;" 
 />
    <glyph glyph-name="Euro" unicode="&#x20ac;" 
 />
    <glyph glyph-name="guilsinglleft" unicode="&#x2039;" 
 />
    <glyph glyph-name="guilsinglright" unicode="&#x203a;" 
 />
    <glyph glyph-name="uniF001" unicode="&#xf001;" 
 />
    <glyph glyph-name="uniF001" unicode="&#xfb01;" 
 />
    <glyph glyph-name="uniF002" unicode="&#xf002;" 
 />
    <glyph glyph-name="uniF002" unicode="&#xfb02;" 
 />
    <glyph glyph-name="daggerdbl" unicode="&#x2021;" 
 />
    <glyph glyph-name="periodcentered" unicode="&#xb7;" 
 />
    <glyph glyph-name="periodcentered" unicode="&#x2219;" 
 />
    <glyph glyph-name="quotesinglbase" unicode="&#x201a;" 
 />
    <glyph glyph-name="quotedblbase" unicode="&#x201e;" 
 />
    <glyph glyph-name="perthousand" unicode="&#x2030;" 
 />
    <glyph glyph-name="Acircumflex" unicode="&#xc2;" 
 />
    <glyph glyph-name="Ecircumflex" unicode="&#xca;" 
 />
    <glyph glyph-name="Aacute" unicode="&#xc1;" 
 />
    <glyph glyph-name="Edieresis" unicode="&#xcb;" 
 />
    <glyph glyph-name="Egrave" unicode="&#xc8;" 
 />
    <glyph glyph-name="Iacute" unicode="&#xcd;" 
 />
    <glyph glyph-name="Icircumflex" unicode="&#xce;" 
 />
    <glyph glyph-name="Idieresis" unicode="&#xcf;" 
 />
    <glyph glyph-name="Igrave" unicode="&#xcc;" 
 />
    <glyph glyph-name="Oacute" unicode="&#xd3;" 
 />
    <glyph glyph-name="Ocircumflex" unicode="&#xd4;" 
 />
    <glyph glyph-name="Ograve" unicode="&#xd2;" 
 />
    <glyph glyph-name="Uacute" unicode="&#xda;" 
 />
    <glyph glyph-name="Ucircumflex" unicode="&#xdb;" 
 />
    <glyph glyph-name="Ugrave" unicode="&#xd9;" 
 />
    <glyph glyph-name="dotlessi" unicode="&#x131;" 
 />
    <glyph glyph-name="circumflex" unicode="&#x2c6;" 
 />
    <glyph glyph-name="tilde" unicode="&#x2dc;" 
 />
    <glyph glyph-name="uni02C9" unicode="&#x2c9;" 
 />
    <glyph glyph-name="breve" unicode="&#x2d8;" 
 />
    <glyph glyph-name="dotaccent" unicode="&#x2d9;" 
 />
    <glyph glyph-name="ring" unicode="&#x2da;" 
 />
    <glyph glyph-name="cedilla" unicode="&#xb8;" 
 />
    <glyph glyph-name="hungarumlaut" unicode="&#x2dd;" 
 />
    <glyph glyph-name="ogonek" unicode="&#x2db;" 
 />
    <glyph glyph-name="caron" unicode="&#x2c7;" 
 />
    <glyph glyph-name="Lslash" unicode="&#x141;" 
 />
    <glyph glyph-name="lslash" unicode="&#x142;" 
 />
    <glyph glyph-name="Scaron" unicode="&#x160;" 
 />
    <glyph glyph-name="scaron" unicode="&#x161;" 
 />
    <glyph glyph-name="Zcaron" unicode="&#x17d;" 
 />
    <glyph glyph-name="zcaron" unicode="&#x17e;" 
 />
    <glyph glyph-name="brokenbar" unicode="&#xa6;" 
 />
    <glyph glyph-name="Eth" unicode="&#xd0;" 
 />
    <glyph glyph-name="eth" unicode="&#xf0;" 
 />
    <glyph glyph-name="Yacute" unicode="&#xdd;" 
 />
    <glyph glyph-name="yacute" unicode="&#xfd;" 
 />
    <glyph glyph-name="Thorn" unicode="&#xde;" 
 />
    <glyph glyph-name="thorn" unicode="&#xfe;" 
 />
    <glyph glyph-name="minus" unicode="&#x2212;" 
 />
    <glyph glyph-name="multiply" unicode="&#xd7;" 
 />
    <glyph glyph-name="uni00B9" unicode="&#xb9;" 
 />
    <glyph glyph-name="uni00B2" unicode="&#xb2;" 
 />
    <glyph glyph-name="uni00B3" unicode="&#xb3;" 
 />
    <glyph glyph-name="onehalf" unicode="&#xbd;" horiz-adv-x="2704" 
d="M392 1672l16 -24v-48l-8 -24l8 -40v-688l-8 -32l8 -24v-16h-8l8 -80v-240l-8 -128l8 -32l-8 -8v-8l8 -24l-8 -24l8 -40l-8 -24q0 -76 160 -96l16 -16v-32l-24 -24l-8 8l-40 -8h-8l-8 8l-8 -8h-16l-8 8l-8 -8h-24l-32 8l-24 -8l-24 8l-40 -8l-8 8h-8l-48 -8h-16l-8 8
l-8 -8h-128l-8 8l-8 -8h-24l-24 24v32q0 13 144 32q48 18 48 128v48l8 32l-8 24l8 32l-8 24h8l-8 8v8l8 40l-8 112v80l8 48l-8 40l8 8l-8 8v8l8 8v8l-8 40l8 24l-8 8v8l8 8l-8 40l8 32l-8 24h8l-8 8v8l8 128l-8 8v8l8 8v8l-8 24l8 8v8l-8 8v8l8 8v8l-8 8v8l8 40l-8 24l8 8v8
l-8 8v8l8 8v8l-8 40h8q0 96 -64 96h-128q-19 0 -24 64q37 21 256 64l112 88zM1264 1568q169 -53 200 -88v-8l-616 -1464l-8 -8h-8q-184 69 -192 88v8q0 35 616 1472h8zM2000 1448h72q197 -19 384 -136q120 -115 120 -248l-8 -8v-8l8 -24q0 -303 -432 -440
q-318 -128 -496 -320l-24 -56h520q328 0 392 112q8 24 48 24h8l16 -16q-103 -328 -144 -328h-16l-8 8l-8 -8h-80l-40 8l-48 -8h-96l-64 8l-64 -8h-16l-72 8l-40 -8l-8 8l-40 -8h-72l-8 8l-8 -8h-104l-8 8l-8 -8h-32l-8 8l-8 -8h-24l-48 8l-24 -8q-40 8 -40 32q0 352 624 712
q144 140 144 240q0 171 -120 224q-31 24 -144 40q-277 0 -432 -248l-8 -8h-8q-41 0 -48 24q143 432 520 432z" />
    <glyph glyph-name="onequarter" unicode="&#xbc;" horiz-adv-x="3004" 
d="M392 1672l16 -24v-48l-8 -24l8 -40v-688l-8 -32l8 -24v-16h-8l8 -80v-240l-8 -128l8 -32l-8 -8v-8l8 -24l-8 -24l8 -40l-8 -24q0 -76 160 -96l16 -16v-32l-24 -24l-8 8l-40 -8h-8l-8 8l-8 -8h-16l-8 8l-8 -8h-24l-32 8l-24 -8l-24 8l-40 -8l-8 8h-8l-48 -8h-16l-8 8
l-8 -8h-128l-8 8l-8 -8h-24l-24 24v32q0 13 144 32q48 18 48 128v48l8 32l-8 24l8 32l-8 24h8l-8 8v8l8 40l-8 112v80l8 48l-8 40l8 8l-8 8v8l8 8v8l-8 40l8 24l-8 8v8l8 8l-8 40l8 32l-8 24h8l-8 8v8l8 128l-8 8v8l8 8v8l-8 24l8 8v8l-8 8v8l8 8v8l-8 8v8l8 40l-8 24l8 8v8
l-8 8v8l8 8v8l-8 40h8q0 96 -64 96h-128q-19 0 -24 64q37 21 256 64l112 88zM1264 1568q169 -53 200 -88v-8l-616 -1464l-8 -8h-8q-184 69 -192 88v8q0 35 616 1472h8zM2600 1336h8l16 -16v-728l40 -8h8l24 8l40 -8h160l16 -16v-104l-16 -16h-256l-16 -16v-40l8 -40h-8l8 -8
l-8 -48l8 -240v-32l-16 -16h-264l-72 -8q-72 12 -72 32v416h-48l-40 -8v8l-8 -8l-40 8l-56 -8l-104 8h-32l-40 -8l-48 8h-160l-48 -8l-40 8h-48q-18 0 -24 88zM1672 584h544v392q-436 -292 -544 -392z" />
    <glyph glyph-name="threequarters" unicode="&#xbe;" horiz-adv-x="3543" 
d="M544 1768h72q297 0 344 -400q0 -131 -224 -328v-8q320 -143 320 -536q0 -335 -304 -464l-144 -32q-608 0 -608 288q44 136 144 136h32q106 0 208 -240q83 -120 184 -120h24q288 37 288 288v56q-21 166 -208 352q-195 171 -360 216v16q0 28 192 56q224 76 224 280
q0 165 -216 208h-64q-97 0 -344 -224h-16l-40 40q122 288 280 376q110 40 216 40zM1736 1568q169 -53 200 -88v-8l-616 -1464l-8 -8h-8q-184 69 -192 88v8q0 35 616 1472h8zM3072 1336h8l16 -16v-728l40 -8h8l24 8l40 -8h160l16 -16v-104l-16 -16h-256l-16 -16v-40l8 -40h-8
l8 -8l-8 -48l8 -240v-32l-16 -16h-264l-72 -8q-72 12 -72 32v416h-48l-40 -8v8l-8 -8l-40 8l-56 -8l-104 8h-32l-40 -8l-48 8h-160l-48 -8l-40 8h-48q-18 0 -24 88zM2144 584h544v392q-436 -292 -544 -392z" />
    <glyph glyph-name="franc" unicode="&#x20a3;" 
 />
    <glyph glyph-name="Gbreve" unicode="&#x11e;" 
 />
    <glyph glyph-name="gbreve" unicode="&#x11f;" 
 />
    <glyph glyph-name="Idotaccent" unicode="&#x130;" 
 />
    <glyph glyph-name="Scedilla" unicode="&#x15e;" 
 />
    <glyph glyph-name="scedilla" unicode="&#x15f;" 
 />
    <glyph glyph-name="Cacute" unicode="&#x106;" 
 />
    <glyph glyph-name="cacute" unicode="&#x107;" 
 />
    <glyph glyph-name="Ccaron" unicode="&#x10c;" 
 />
    <glyph glyph-name="ccaron" unicode="&#x10d;" 
 />
    <glyph glyph-name="dcroat" unicode="&#x111;" 
 />
    <glyph glyph-name="currency" unicode="&#xa4;" 
 />
    <glyph glyph-name="macron" unicode="&#xaf;" 
 />
    <glyph glyph-name="Amacron" unicode="&#x100;" 
 />
    <glyph glyph-name="amacron" unicode="&#x101;" 
 />
    <glyph glyph-name="Abreve" unicode="&#x102;" 
 />
    <glyph glyph-name="abreve" unicode="&#x103;" 
 />
    <glyph glyph-name="Aogonek" unicode="&#x104;" 
 />
    <glyph glyph-name="aogonek" unicode="&#x105;" 
 />
    <glyph glyph-name="Ccircumflex" unicode="&#x108;" 
 />
    <glyph glyph-name="ccircumflex" unicode="&#x109;" 
 />
    <glyph glyph-name="Cdotaccent" unicode="&#x10a;" 
 />
    <glyph glyph-name="cdotaccent" unicode="&#x10b;" 
 />
    <glyph glyph-name="Dcaron" unicode="&#x10e;" 
 />
    <glyph glyph-name="dcaron" unicode="&#x10f;" 
 />
    <glyph glyph-name="Dcroat" unicode="&#x110;" 
 />
    <glyph glyph-name="Emacron" unicode="&#x112;" 
 />
    <glyph glyph-name="emacron" unicode="&#x113;" 
 />
    <glyph glyph-name="Ebreve" unicode="&#x114;" 
 />
    <glyph glyph-name="ebreve" unicode="&#x115;" 
 />
    <glyph glyph-name="Edotaccent" unicode="&#x116;" 
 />
    <glyph glyph-name="edotaccent" unicode="&#x117;" 
 />
    <glyph glyph-name="Eogonek" unicode="&#x118;" 
 />
    <glyph glyph-name="eogonek" unicode="&#x119;" 
 />
    <glyph glyph-name="Ecaron" unicode="&#x11a;" 
 />
    <glyph glyph-name="ecaron" unicode="&#x11b;" 
 />
    <glyph glyph-name="Gcircumflex" unicode="&#x11c;" 
 />
    <glyph glyph-name="gcircumflex" unicode="&#x11d;" 
 />
    <glyph glyph-name="Gdotaccent" unicode="&#x120;" 
 />
    <glyph glyph-name="gdotaccent" unicode="&#x121;" 
 />
    <glyph glyph-name="Gcommaaccent" unicode="&#x122;" 
 />
    <glyph glyph-name="gcommaaccent" unicode="&#x123;" 
 />
    <glyph glyph-name="Hcircumflex" unicode="&#x124;" 
 />
    <glyph glyph-name="hcircumflex" unicode="&#x125;" 
 />
    <glyph glyph-name="Hbar" unicode="&#x126;" 
 />
    <glyph glyph-name="hbar" unicode="&#x127;" 
 />
    <glyph glyph-name="Itilde" unicode="&#x128;" 
 />
    <glyph glyph-name="itilde" unicode="&#x129;" 
 />
    <glyph glyph-name="Imacron" unicode="&#x12a;" 
 />
    <glyph glyph-name="imacron" unicode="&#x12b;" 
 />
    <glyph glyph-name="Ibreve" unicode="&#x12c;" 
 />
    <glyph glyph-name="ibreve" unicode="&#x12d;" 
 />
    <glyph glyph-name="Iogonek" unicode="&#x12e;" 
 />
    <glyph glyph-name="iogonek" unicode="&#x12f;" 
 />
    <glyph glyph-name="IJ" unicode="&#x132;" 
 />
    <glyph glyph-name="ij" unicode="&#x133;" 
 />
    <glyph glyph-name="Jcircumflex" unicode="&#x134;" 
 />
    <glyph glyph-name="jcircumflex" unicode="&#x135;" 
 />
    <glyph glyph-name="Kcommaaccent" unicode="&#x136;" 
 />
    <glyph glyph-name="kcommaaccent" unicode="&#x137;" 
 />
    <glyph glyph-name="kgreenlandic" unicode="&#x138;" 
 />
    <glyph glyph-name="Lacute" unicode="&#x139;" 
 />
    <glyph glyph-name="lacute" unicode="&#x13a;" 
 />
    <glyph glyph-name="Lcommaaccent" unicode="&#x13b;" 
 />
    <glyph glyph-name="lcommaaccent" unicode="&#x13c;" 
 />
    <glyph glyph-name="Lcaron" unicode="&#x13d;" 
 />
    <glyph glyph-name="lcaron" unicode="&#x13e;" 
 />
    <glyph glyph-name="Ldot" unicode="&#x13f;" 
 />
    <glyph glyph-name="ldot" unicode="&#x140;" 
 />
    <glyph glyph-name="Nacute" unicode="&#x143;" 
 />
    <glyph glyph-name="nacute" unicode="&#x144;" 
 />
    <glyph glyph-name="Ncommaaccent" unicode="&#x145;" 
 />
    <glyph glyph-name="ncommaaccent" unicode="&#x146;" 
 />
    <glyph glyph-name="Ncaron" unicode="&#x147;" 
 />
    <glyph glyph-name="ncaron" unicode="&#x148;" 
 />
    <glyph glyph-name="napostrophe" unicode="&#x149;" 
 />
    <glyph glyph-name="Eng" unicode="&#x14a;" 
 />
    <glyph glyph-name="eng" unicode="&#x14b;" 
 />
    <glyph glyph-name="Omacron" unicode="&#x14c;" 
 />
    <glyph glyph-name="omacron" unicode="&#x14d;" 
 />
    <glyph glyph-name="Obreve" unicode="&#x14e;" 
 />
    <glyph glyph-name="obreve" unicode="&#x14f;" 
 />
    <glyph glyph-name="Ohungarumlaut" unicode="&#x150;" 
 />
    <glyph glyph-name="ohungarumlaut" unicode="&#x151;" 
 />
    <glyph glyph-name="Racute" unicode="&#x154;" 
 />
    <glyph glyph-name="racute" unicode="&#x155;" 
 />
    <glyph glyph-name="Rcommaaccent" unicode="&#x156;" 
 />
    <glyph glyph-name="rcommaaccent" unicode="&#x157;" 
 />
    <glyph glyph-name="Rcaron" unicode="&#x158;" 
 />
    <glyph glyph-name="rcaron" unicode="&#x159;" 
 />
    <glyph glyph-name="Sacute" unicode="&#x15a;" 
 />
    <glyph glyph-name="sacute" unicode="&#x15b;" 
 />
    <glyph glyph-name="Scircumflex" unicode="&#x15c;" 
 />
    <glyph glyph-name="scircumflex" unicode="&#x15d;" 
 />
    <glyph glyph-name="Tcommaaccent" unicode="&#x162;" 
 />
    <glyph glyph-name="tcommaaccent" unicode="&#x163;" 
 />
    <glyph glyph-name="Tcaron" unicode="&#x164;" 
 />
    <glyph glyph-name="tcaron" unicode="&#x165;" 
 />
    <glyph glyph-name="Tbar" unicode="&#x166;" 
 />
    <glyph glyph-name="tbar" unicode="&#x167;" 
 />
    <glyph glyph-name="Utilde" unicode="&#x168;" 
 />
    <glyph glyph-name="utilde" unicode="&#x169;" 
 />
    <glyph glyph-name="Umacron" unicode="&#x16a;" 
 />
    <glyph glyph-name="umacron" unicode="&#x16b;" 
 />
    <glyph glyph-name="Ubreve" unicode="&#x16c;" 
 />
    <glyph glyph-name="ubreve" unicode="&#x16d;" 
 />
    <glyph glyph-name="Uring" unicode="&#x16e;" 
 />
    <glyph glyph-name="uring" unicode="&#x16f;" 
 />
    <glyph glyph-name="Uhungarumlaut" unicode="&#x170;" 
 />
    <glyph glyph-name="uhungarumlaut" unicode="&#x171;" 
 />
    <glyph glyph-name="Uogonek" unicode="&#x172;" 
 />
    <glyph glyph-name="uogonek" unicode="&#x173;" 
 />
    <glyph glyph-name="Wcircumflex" unicode="&#x174;" 
 />
    <glyph glyph-name="wcircumflex" unicode="&#x175;" 
 />
    <glyph glyph-name="Ycircumflex" unicode="&#x176;" 
 />
    <glyph glyph-name="ycircumflex" unicode="&#x177;" 
 />
    <glyph glyph-name="Zacute" unicode="&#x179;" 
 />
    <glyph glyph-name="zacute" unicode="&#x17a;" 
 />
    <glyph glyph-name="Zdotaccent" unicode="&#x17b;" 
 />
    <glyph glyph-name="zdotaccent" unicode="&#x17c;" 
 />
    <glyph glyph-name="longs" unicode="&#x17f;" 
 />
    <glyph glyph-name="Aringacute" unicode="&#x1fa;" 
 />
    <glyph glyph-name="aringacute" unicode="&#x1fb;" 
 />
    <glyph glyph-name="AEacute" unicode="&#x1fc;" 
 />
    <glyph glyph-name="aeacute" unicode="&#x1fd;" 
 />
    <glyph glyph-name="Oslashacute" unicode="&#x1fe;" 
 />
    <glyph glyph-name="oslashacute" unicode="&#x1ff;" 
 />
    <glyph glyph-name="tonos" unicode="&#x384;" 
 />
    <glyph glyph-name="dieresistonos" unicode="&#x385;" 
 />
    <glyph glyph-name="Alphatonos" unicode="&#x386;" 
 />
    <glyph glyph-name="anoteleia" unicode="&#x387;" 
 />
    <glyph glyph-name="Epsilontonos" unicode="&#x388;" 
 />
    <glyph glyph-name="Etatonos" unicode="&#x389;" 
 />
    <glyph glyph-name="Iotatonos" unicode="&#x38a;" 
 />
    <glyph glyph-name="Omicrontonos" unicode="&#x38c;" 
 />
    <glyph glyph-name="Upsilontonos" unicode="&#x38e;" 
 />
    <glyph glyph-name="Omegatonos" unicode="&#x38f;" 
 />
    <glyph glyph-name="iotadieresistonos" unicode="&#x390;" 
 />
    <glyph glyph-name="Alpha" unicode="&#x391;" 
 />
    <glyph glyph-name="Beta" unicode="&#x392;" 
 />
    <glyph glyph-name="Gamma" unicode="&#x393;" 
 />
    <glyph glyph-name="uni0394" unicode="&#x394;" 
 />
    <glyph glyph-name="Epsilon" unicode="&#x395;" 
 />
    <glyph glyph-name="Zeta" unicode="&#x396;" 
 />
    <glyph glyph-name="Eta" unicode="&#x397;" 
 />
    <glyph glyph-name="Theta" unicode="&#x398;" 
 />
    <glyph glyph-name="Iota" unicode="&#x399;" 
 />
    <glyph glyph-name="Kappa" unicode="&#x39a;" 
 />
    <glyph glyph-name="Lambda" unicode="&#x39b;" 
 />
    <glyph glyph-name="Mu" unicode="&#x39c;" 
 />
    <glyph glyph-name="Nu" unicode="&#x39d;" 
 />
    <glyph glyph-name="Xi" unicode="&#x39e;" 
 />
    <glyph glyph-name="Omicron" unicode="&#x39f;" 
 />
    <glyph glyph-name="Pi" unicode="&#x3a0;" 
 />
    <glyph glyph-name="Rho" unicode="&#x3a1;" 
 />
    <glyph glyph-name="Sigma" unicode="&#x3a3;" 
 />
    <glyph glyph-name="Tau" unicode="&#x3a4;" 
 />
    <glyph glyph-name="Upsilon" unicode="&#x3a5;" 
 />
    <glyph glyph-name="Phi" unicode="&#x3a6;" 
 />
    <glyph glyph-name="Chi" unicode="&#x3a7;" 
 />
    <glyph glyph-name="Psi" unicode="&#x3a8;" 
 />
    <glyph glyph-name="uni03A9" unicode="&#x3a9;" 
 />
    <glyph glyph-name="Iotadieresis" unicode="&#x3aa;" 
 />
    <glyph glyph-name="Upsilondieresis" unicode="&#x3ab;" 
 />
    <glyph glyph-name="alphatonos" unicode="&#x3ac;" 
 />
    <glyph glyph-name="epsilontonos" unicode="&#x3ad;" 
 />
    <glyph glyph-name="etatonos" unicode="&#x3ae;" 
 />
    <glyph glyph-name="iotatonos" unicode="&#x3af;" 
 />
    <glyph glyph-name="upsilondieresistonos" unicode="&#x3b0;" 
 />
    <glyph glyph-name="alpha" unicode="&#x3b1;" 
 />
    <glyph glyph-name="beta" unicode="&#x3b2;" 
 />
    <glyph glyph-name="gamma" unicode="&#x3b3;" 
 />
    <glyph glyph-name="delta" unicode="&#x3b4;" 
 />
    <glyph glyph-name="epsilon" unicode="&#x3b5;" 
 />
    <glyph glyph-name="zeta" unicode="&#x3b6;" 
 />
    <glyph glyph-name="eta" unicode="&#x3b7;" 
 />
    <glyph glyph-name="theta" unicode="&#x3b8;" 
 />
    <glyph glyph-name="iota" unicode="&#x3b9;" 
 />
    <glyph glyph-name="kappa" unicode="&#x3ba;" 
 />
    <glyph glyph-name="lambda" unicode="&#x3bb;" 
 />
    <glyph glyph-name="uni03BC" unicode="&#x3bc;" 
 />
    <glyph glyph-name="nu" unicode="&#x3bd;" 
 />
    <glyph glyph-name="xi" unicode="&#x3be;" 
 />
    <glyph glyph-name="omicron" unicode="&#x3bf;" 
 />
    <glyph glyph-name="pi" unicode="&#x3c0;" 
 />
    <glyph glyph-name="rho" unicode="&#x3c1;" 
 />
    <glyph glyph-name="sigma1" unicode="&#x3c2;" 
 />
    <glyph glyph-name="sigma" unicode="&#x3c3;" 
 />
    <glyph glyph-name="tau" unicode="&#x3c4;" 
 />
    <glyph glyph-name="upsilon" unicode="&#x3c5;" 
 />
    <glyph glyph-name="phi" unicode="&#x3c6;" 
 />
    <glyph glyph-name="chi" unicode="&#x3c7;" 
 />
    <glyph glyph-name="psi" unicode="&#x3c8;" 
 />
    <glyph glyph-name="omega" unicode="&#x3c9;" 
 />
    <glyph glyph-name="iotadieresis" unicode="&#x3ca;" 
 />
    <glyph glyph-name="upsilondieresis" unicode="&#x3cb;" 
 />
    <glyph glyph-name="omicrontonos" unicode="&#x3cc;" 
 />
    <glyph glyph-name="upsilontonos" unicode="&#x3cd;" 
 />
    <glyph glyph-name="omegatonos" unicode="&#x3ce;" 
 />
    <glyph glyph-name="afii10023" unicode="&#x401;" 
 />
    <glyph glyph-name="afii10051" unicode="&#x402;" 
 />
    <glyph glyph-name="afii10052" unicode="&#x403;" 
 />
    <glyph glyph-name="afii10053" unicode="&#x404;" 
 />
    <glyph glyph-name="afii10054" unicode="&#x405;" 
 />
    <glyph glyph-name="afii10055" unicode="&#x406;" 
 />
    <glyph glyph-name="afii10056" unicode="&#x407;" 
 />
    <glyph glyph-name="afii10057" unicode="&#x408;" 
 />
    <glyph glyph-name="afii10058" unicode="&#x409;" 
 />
    <glyph glyph-name="afii10059" unicode="&#x40a;" 
 />
    <glyph glyph-name="afii10060" unicode="&#x40b;" 
 />
    <glyph glyph-name="afii10061" unicode="&#x40c;" 
 />
    <glyph glyph-name="afii10062" unicode="&#x40e;" 
 />
    <glyph glyph-name="afii10145" unicode="&#x40f;" 
 />
    <glyph glyph-name="afii10017" unicode="&#x410;" 
 />
    <glyph glyph-name="afii10018" unicode="&#x411;" 
 />
    <glyph glyph-name="afii10019" unicode="&#x412;" 
 />
    <glyph glyph-name="afii10020" unicode="&#x413;" 
 />
    <glyph glyph-name="afii10021" unicode="&#x414;" 
 />
    <glyph glyph-name="afii10022" unicode="&#x415;" 
 />
    <glyph glyph-name="afii10024" unicode="&#x416;" 
 />
    <glyph glyph-name="afii10025" unicode="&#x417;" 
 />
    <glyph glyph-name="afii10026" unicode="&#x418;" 
 />
    <glyph glyph-name="afii10027" unicode="&#x419;" 
 />
    <glyph glyph-name="afii10028" unicode="&#x41a;" 
 />
    <glyph glyph-name="afii10029" unicode="&#x41b;" 
 />
    <glyph glyph-name="afii10030" unicode="&#x41c;" 
 />
    <glyph glyph-name="afii10031" unicode="&#x41d;" 
 />
    <glyph glyph-name="afii10032" unicode="&#x41e;" 
 />
    <glyph glyph-name="afii10033" unicode="&#x41f;" 
 />
    <glyph glyph-name="afii10034" unicode="&#x420;" 
 />
    <glyph glyph-name="afii10035" unicode="&#x421;" 
 />
    <glyph glyph-name="afii10036" unicode="&#x422;" 
 />
    <glyph glyph-name="afii10037" unicode="&#x423;" 
 />
    <glyph glyph-name="afii10038" unicode="&#x424;" 
 />
    <glyph glyph-name="afii10039" unicode="&#x425;" 
 />
    <glyph glyph-name="afii10040" unicode="&#x426;" 
 />
    <glyph glyph-name="afii10041" unicode="&#x427;" 
 />
    <glyph glyph-name="afii10042" unicode="&#x428;" 
 />
    <glyph glyph-name="afii10043" unicode="&#x429;" 
 />
    <glyph glyph-name="afii10044" unicode="&#x42a;" 
 />
    <glyph glyph-name="afii10045" unicode="&#x42b;" 
 />
    <glyph glyph-name="afii10046" unicode="&#x42c;" 
 />
    <glyph glyph-name="afii10047" unicode="&#x42d;" 
 />
    <glyph glyph-name="afii10048" unicode="&#x42e;" 
 />
    <glyph glyph-name="afii10049" unicode="&#x42f;" 
 />
    <glyph glyph-name="afii10065" unicode="&#x430;" 
 />
    <glyph glyph-name="afii10066" unicode="&#x431;" 
 />
    <glyph glyph-name="afii10067" unicode="&#x432;" 
 />
    <glyph glyph-name="afii10068" unicode="&#x433;" 
 />
    <glyph glyph-name="afii10069" unicode="&#x434;" 
 />
    <glyph glyph-name="afii10070" unicode="&#x435;" 
 />
    <glyph glyph-name="afii10072" unicode="&#x436;" 
 />
    <glyph glyph-name="afii10073" unicode="&#x437;" 
 />
    <glyph glyph-name="afii10074" unicode="&#x438;" 
 />
    <glyph glyph-name="afii10075" unicode="&#x439;" 
 />
    <glyph glyph-name="afii10076" unicode="&#x43a;" 
 />
    <glyph glyph-name="afii10077" unicode="&#x43b;" 
 />
    <glyph glyph-name="afii10078" unicode="&#x43c;" 
 />
    <glyph glyph-name="afii10079" unicode="&#x43d;" 
 />
    <glyph glyph-name="afii10080" unicode="&#x43e;" 
 />
    <glyph glyph-name="afii10081" unicode="&#x43f;" 
 />
    <glyph glyph-name="afii10082" unicode="&#x440;" 
 />
    <glyph glyph-name="afii10083" unicode="&#x441;" 
 />
    <glyph glyph-name="afii10084" unicode="&#x442;" 
 />
    <glyph glyph-name="afii10085" unicode="&#x443;" 
 />
    <glyph glyph-name="afii10086" unicode="&#x444;" 
 />
    <glyph glyph-name="afii10087" unicode="&#x445;" 
 />
    <glyph glyph-name="afii10088" unicode="&#x446;" 
 />
    <glyph glyph-name="afii10089" unicode="&#x447;" 
 />
    <glyph glyph-name="afii10090" unicode="&#x448;" 
 />
    <glyph glyph-name="afii10091" unicode="&#x449;" 
 />
    <glyph glyph-name="afii10092" unicode="&#x44a;" 
 />
    <glyph glyph-name="afii10093" unicode="&#x44b;" 
 />
    <glyph glyph-name="afii10094" unicode="&#x44c;" 
 />
    <glyph glyph-name="afii10095" unicode="&#x44d;" 
 />
    <glyph glyph-name="afii10096" unicode="&#x44e;" 
 />
    <glyph glyph-name="afii10097" unicode="&#x44f;" 
 />
    <glyph glyph-name="afii10071" unicode="&#x451;" 
 />
    <glyph glyph-name="afii10099" unicode="&#x452;" 
 />
    <glyph glyph-name="afii10100" unicode="&#x453;" 
 />
    <glyph glyph-name="afii10101" unicode="&#x454;" 
 />
    <glyph glyph-name="afii10102" unicode="&#x455;" 
 />
    <glyph glyph-name="afii10103" unicode="&#x456;" 
 />
    <glyph glyph-name="afii10104" unicode="&#x457;" 
 />
    <glyph glyph-name="afii10105" unicode="&#x458;" 
 />
    <glyph glyph-name="afii10106" unicode="&#x459;" 
 />
    <glyph glyph-name="afii10107" unicode="&#x45a;" 
 />
    <glyph glyph-name="afii10108" unicode="&#x45b;" 
 />
    <glyph glyph-name="afii10109" unicode="&#x45c;" 
 />
    <glyph glyph-name="afii10110" unicode="&#x45e;" 
 />
    <glyph glyph-name="afii10193" unicode="&#x45f;" 
 />
    <glyph glyph-name="afii10050" unicode="&#x490;" 
 />
    <glyph glyph-name="afii10098" unicode="&#x491;" 
 />
    <glyph glyph-name="Wgrave" unicode="&#x1e80;" 
 />
    <glyph glyph-name="wgrave" unicode="&#x1e81;" 
 />
    <glyph glyph-name="Wacute" unicode="&#x1e82;" 
 />
    <glyph glyph-name="wacute" unicode="&#x1e83;" 
 />
    <glyph glyph-name="Wdieresis" unicode="&#x1e84;" 
 />
    <glyph glyph-name="wdieresis" unicode="&#x1e85;" 
 />
    <glyph glyph-name="Ygrave" unicode="&#x1ef2;" 
 />
    <glyph glyph-name="ygrave" unicode="&#x1ef3;" 
 />
    <glyph glyph-name="afii00208" unicode="&#x2015;" 
 />
    <glyph glyph-name="underscoredbl" unicode="&#x2017;" 
 />
    <glyph glyph-name="quotereversed" unicode="&#x201b;" 
 />
    <glyph glyph-name="minute" unicode="&#x2032;" 
 />
    <glyph glyph-name="second" unicode="&#x2033;" 
 />
    <glyph glyph-name="exclamdbl" unicode="&#x203c;" 
 />
    <glyph glyph-name="uni203E" unicode="&#x203e;" 
 />
    <glyph glyph-name="uni207F" unicode="&#x207f;" 
 />
    <glyph glyph-name="lira" unicode="&#x20a4;" 
 />
    <glyph glyph-name="peseta" unicode="&#x20a7;" 
 />
    <glyph glyph-name="afii61248" unicode="&#x2105;" 
 />
    <glyph glyph-name="afii61289" unicode="&#x2113;" 
 />
    <glyph glyph-name="afii61352" unicode="&#x2116;" 
 />
    <glyph glyph-name="estimated" unicode="&#x212e;" 
 />
    <glyph glyph-name="oneeighth" unicode="&#x215b;" 
 />
    <glyph glyph-name="threeeighths" unicode="&#x215c;" 
 />
    <glyph glyph-name="fiveeighths" unicode="&#x215d;" 
 />
    <glyph glyph-name="seveneighths" unicode="&#x215e;" 
 />
    <glyph glyph-name="arrowleft" unicode="&#x2190;" 
 />
    <glyph glyph-name="arrowup" unicode="&#x2191;" 
 />
    <glyph glyph-name="arrowright" unicode="&#x2192;" 
 />
    <glyph glyph-name="arrowdown" unicode="&#x2193;" 
 />
    <glyph glyph-name="arrowboth" unicode="&#x2194;" 
 />
    <glyph glyph-name="arrowupdn" unicode="&#x2195;" 
 />
    <glyph glyph-name="arrowupdnbse" unicode="&#x21a8;" 
 />
    <glyph glyph-name="orthogonal" unicode="&#x221f;" 
 />
    <glyph glyph-name="intersection" unicode="&#x2229;" 
 />
    <glyph glyph-name="equivalence" unicode="&#x2261;" 
 />
    <glyph glyph-name="house" unicode="&#x2302;" 
 />
    <glyph glyph-name="revlogicalnot" unicode="&#x2310;" 
 />
    <glyph glyph-name="integraltp" unicode="&#x2320;" 
 />
    <glyph glyph-name="integralbt" unicode="&#x2321;" 
 />
    <glyph glyph-name="SF100000" unicode="&#x2500;" 
 />
    <glyph glyph-name="SF110000" unicode="&#x2502;" 
 />
    <glyph glyph-name="SF010000" unicode="&#x250c;" 
 />
    <glyph glyph-name="SF030000" unicode="&#x2510;" 
 />
    <glyph glyph-name="SF020000" unicode="&#x2514;" 
 />
    <glyph glyph-name="SF040000" unicode="&#x2518;" 
 />
    <glyph glyph-name="SF080000" unicode="&#x251c;" 
 />
    <glyph glyph-name="SF090000" unicode="&#x2524;" 
 />
    <glyph glyph-name="SF060000" unicode="&#x252c;" 
 />
    <glyph glyph-name="SF070000" unicode="&#x2534;" 
 />
    <glyph glyph-name="SF050000" unicode="&#x253c;" 
 />
    <glyph glyph-name="SF430000" unicode="&#x2550;" 
 />
    <glyph glyph-name="SF240000" unicode="&#x2551;" 
 />
    <glyph glyph-name="SF510000" unicode="&#x2552;" 
 />
    <glyph glyph-name="SF520000" unicode="&#x2553;" 
 />
    <glyph glyph-name="SF390000" unicode="&#x2554;" 
 />
    <glyph glyph-name="SF220000" unicode="&#x2555;" 
 />
    <glyph glyph-name="SF210000" unicode="&#x2556;" 
 />
    <glyph glyph-name="SF250000" unicode="&#x2557;" 
 />
    <glyph glyph-name="SF500000" unicode="&#x2558;" 
 />
    <glyph glyph-name="SF490000" unicode="&#x2559;" 
 />
    <glyph glyph-name="SF380000" unicode="&#x255a;" 
 />
    <glyph glyph-name="SF280000" unicode="&#x255b;" 
 />
    <glyph glyph-name="SF270000" unicode="&#x255c;" 
 />
    <glyph glyph-name="SF260000" unicode="&#x255d;" 
 />
    <glyph glyph-name="SF360000" unicode="&#x255e;" 
 />
    <glyph glyph-name="SF370000" unicode="&#x255f;" 
 />
    <glyph glyph-name="SF420000" unicode="&#x2560;" 
 />
    <glyph glyph-name="SF190000" unicode="&#x2561;" 
 />
    <glyph glyph-name="SF200000" unicode="&#x2562;" 
 />
    <glyph glyph-name="SF230000" unicode="&#x2563;" 
 />
    <glyph glyph-name="SF470000" unicode="&#x2564;" 
 />
    <glyph glyph-name="SF480000" unicode="&#x2565;" 
 />
    <glyph glyph-name="SF410000" unicode="&#x2566;" 
 />
    <glyph glyph-name="SF450000" unicode="&#x2567;" 
 />
    <glyph glyph-name="SF460000" unicode="&#x2568;" 
 />
    <glyph glyph-name="SF400000" unicode="&#x2569;" 
 />
    <glyph glyph-name="SF540000" unicode="&#x256a;" 
 />
    <glyph glyph-name="SF530000" unicode="&#x256b;" 
 />
    <glyph glyph-name="SF440000" unicode="&#x256c;" 
 />
    <glyph glyph-name="upblock" unicode="&#x2580;" 
 />
    <glyph glyph-name="dnblock" unicode="&#x2584;" 
 />
    <glyph glyph-name="block" unicode="&#x2588;" 
 />
    <glyph glyph-name="lfblock" unicode="&#x258c;" 
 />
    <glyph glyph-name="rtblock" unicode="&#x2590;" 
 />
    <glyph glyph-name="ltshade" unicode="&#x2591;" 
 />
    <glyph glyph-name="shade" unicode="&#x2592;" 
 />
    <glyph glyph-name="dkshade" unicode="&#x2593;" 
 />
    <glyph glyph-name="filledbox" unicode="&#x25a0;" 
 />
    <glyph glyph-name="H22073" unicode="&#x25a1;" 
 />
    <glyph glyph-name="H18543" unicode="&#x25aa;" 
 />
    <glyph glyph-name="H18551" unicode="&#x25ab;" 
 />
    <glyph glyph-name="filledrect" unicode="&#x25ac;" 
 />
    <glyph glyph-name="triagup" unicode="&#x25b2;" 
 />
    <glyph glyph-name="triagrt" unicode="&#x25ba;" 
 />
    <glyph glyph-name="triagdn" unicode="&#x25bc;" 
 />
    <glyph glyph-name="triaglf" unicode="&#x25c4;" 
 />
    <glyph glyph-name="circle" unicode="&#x25cb;" 
 />
    <glyph glyph-name="H18533" unicode="&#x25cf;" 
 />
    <glyph glyph-name="invbullet" unicode="&#x25d8;" 
 />
    <glyph glyph-name="invcircle" unicode="&#x25d9;" 
 />
    <glyph glyph-name="openbullet" unicode="&#x25e6;" 
 />
    <glyph glyph-name="smileface" unicode="&#x263a;" 
 />
    <glyph glyph-name="invsmileface" unicode="&#x263b;" 
 />
    <glyph glyph-name="sun" unicode="&#x263c;" 
 />
    <glyph glyph-name="female" unicode="&#x2640;" 
 />
    <glyph glyph-name="male" unicode="&#x2642;" 
 />
    <glyph glyph-name="spade" unicode="&#x2660;" 
 />
    <glyph glyph-name="club" unicode="&#x2663;" 
 />
    <glyph glyph-name="heart" unicode="&#x2665;" 
 />
    <glyph glyph-name="diamond" unicode="&#x2666;" 
 />
    <glyph glyph-name="musicalnote" unicode="&#x266a;" 
 />
    <glyph glyph-name="musicalnotedbl" unicode="&#x266b;" 
 />
    <glyph glyph-name="uniF004" unicode="&#xf004;" 
 />
    <glyph glyph-name="uniF005" unicode="&#xf005;" 
 />
  </font>
</defs>
</svg>
