<?xml version="1.0" standalone="no"?>
<!DOCTYPE svg PUBLIC "-//W3C//DTD SVG 1.1//EN" "http://www.w3.org/Graphics/SVG/1.1/DTD/svg11.dtd" >
<svg>
<metadata>
Created by FontForge 20110222 at Tue May 27 04:08:58 2014
 By deploy user
Copyright (c) 2011 by James T. Edmondson. All rights reserved.
</metadata>
<defs>
<font id="Duke-Regular" horiz-adv-x="336" >
  <font-face 
    font-family="Duke Regular"
    font-weight="400"
    font-stretch="normal"
    units-per-em="1000"
    panose-1="2 0 0 0 0 0 0 0 0 0"
    ascent="750"
    descent="-250"
    x-height="570"
    cap-height="700"
    bbox="-80 -180 768 924"
    underline-thickness="50"
    underline-position="-50"
    unicode-range="U+0020-FB02"
  />
<missing-glyph horiz-adv-x="97" 
 />
    <glyph glyph-name=".notdef" horiz-adv-x="97" 
 />
    <glyph glyph-name=".null" horiz-adv-x="0" 
 />
    <glyph glyph-name="nonmarkingreturn" horiz-adv-x="333" 
 />
    <glyph glyph-name="space" unicode=" " horiz-adv-x="97" 
 />
    <glyph glyph-name="exclam" unicode="!" horiz-adv-x="170" 
d="M40 120v580h90v-580h-90zM50 690l33 -30l7 -7v-493l30 -30v560h-70zM40 0v90h90v-90h-90zM50 80l70 -70v70h-70z" />
    <glyph glyph-name="quotedbl" unicode="&#x22;" horiz-adv-x="250" 
d="M20 550v150h90v-150h-90zM30 690l40 -40v-60l30 -30v130h-70zM140 550v150h90v-150h-90zM150 690l40 -40v-60l30 -30v130h-70z" />
    <glyph glyph-name="numbersign" unicode="#" horiz-adv-x="475" 
d="M20 401v90h90v209h90v-209h75v209h90v-209h90v-90h-90v-130h90v-90h-90v-181h-90v181h-75v-181h-90v181h-90v90h90v130h-90zM200 401v-130h75v130h-75zM120 690l40 -40v-199h155l-30 30h-95v209h-70zM30 481l30 -30h90l-30 30h-90zM285 690l40 -40v-199h80l40 -40v70h-90
v209h-70zM30 261l30 -30h90l-30 30h-90zM190 410l-30 30v-209h155l-30 30h-95v149zM355 411l-30 29v-209h80l40 -40v70h-90v150zM190 191l-30 30v-181l30 -30v181zM355 191l-30 30v-181l30 -30v181z" />
    <glyph glyph-name="dollar" unicode="$" 
d="M203 -62v112h19q8 0 16 8l-22 22h-43v-112zM133 50l30 30h-43v121h-70l40 -40v-81q0 -11 9 -20.5t21 -9.5h13zM256 335v-263q0 -16 -8 -24l23 -23q15 15 15 37v281q0 23 -15 38t-38 15h-113v224l-20 20q-10 -10 -10 -20v-224q0 -10 10 -20t20 -10h105q13 0 22 -9t9 -22z
M164 660l-30 30h-30q-23 0 -40 -17l23 -20q7 7 27 7h50zM204 690v90h-70l40 -40v-80h51q13 0 22 -9t9 -22v-95l30 -30v133q0 23 -15 38t-38 15h-29zM124 700v90h90v-90h22q26 0 43 -17t17 -42v-147h-90v116h-76v-204h106q25 0 42.5 -18t17.5 -42v-287q0 -24 -17.5 -41.5
t-42.5 -17.5h-23v-72h-90v72h-23q-24 0 -42 17.5t-18 41.5v152h90v-121h76v226h-106q-25 0 -42.5 18t-17.5 41v265q0 26 16.5 43t43.5 17h24z" />
    <glyph glyph-name="percent" unicode="%" horiz-adv-x="610" 
d="M431 700h98l-349 -700h-95zM149 41l25 -29l338 678h-71l20 -28zM360 59v248q0 24 18 42t42 18h100q25 0 42.5 -18t17.5 -42v-248q0 -24 -17.5 -41.5t-42.5 -17.5h-100q-24 0 -42 17.5t-18 41.5zM490 90v187h-40v-187h40zM410 290v-210q0 -12 9 -21t21 -9h66q8 0 16 8
l-22 22h-60v207l-24 24q-6 -6 -6 -21zM540 296v-224q0 -16 -8 -24l23 -23q15 15 15 37v242q0 23 -15 38t-38 15h-93q-23 0 -40 -17l23 -20q7 7 27 7h75q13 0 22 -9t9 -22zM30 392v248q0 24 18 42t42 18h100q25 0 42.5 -18t17.5 -42v-248q0 -24 -17.5 -41.5t-42.5 -17.5h-100
q-24 0 -42 17.5t-18 41.5zM160 423v187h-40v-187h40zM80 623v-210q0 -12 9 -21t21 -9h66q8 0 16 8l-22 22h-60v207l-24 24q-6 -6 -6 -21zM210 629v-224q0 -16 -8 -24l23 -23q15 15 15 37v242q0 23 -15 38t-38 15h-93q-23 0 -40 -17l23 -20q7 7 27 7h75q13 0 22 -9t9 -22z
" />
    <glyph glyph-name="ampersand" unicode="&#x26;" horiz-adv-x="376" 
d="M256 153v-81q0 -16 -8 -24l23 -23q13 13 13 31zM245 561l30 -30v106q0 22 -14.5 37.5t-38.5 15.5h-107q-23 0 -40 -17l23 -20q7 7 27 7h89q13 0 22 -9t9 -22v-68zM120 201v100l-20 20q-10 -5 -10 -29v-212q0 -11 9 -20.5t21 -9.5h102q8 0 16 8l-22 22h-96v121zM130 287
v-197h76v78zM129 374l115 -167l-26 87l-87 131v195l-22 22q-8 -8 -8 -25v-184v-8t1.5 -7t2 -6t4 -7.5t5 -7.5t7 -10t8.5 -13zM80 339l11 -11q18 18 43 18q-40 0 -54 -7zM216 407l40 -40v-192l51 -78l19 -87v109l-40 65v223h-70zM206 417h90v-229l40 -61v-127h-21l-24 35
q-17 -35 -55 -35h-136q-8 0 -12 1q-21 4 -34.5 20.5t-13.5 37.5v219q0 30 13 49.5t34 24.5l-22 35q-14 23 -14 55v199q0 25 17 42t43 17h114q25 0 42.5 -18t17.5 -42v-119h-90v89h-54v-181l65 -101v89z" />
    <glyph glyph-name="quotesingle" unicode="'" horiz-adv-x="130" 
d="M20 660v90h90v-90l-40 -40h-50v40zM30 740l40 -40v-65l30 30v75h-70z" />
    <glyph glyph-name="parenleft" unicode="(" horiz-adv-x="212" 
d="M177 90v-90h-77q-24 0 -42 17.5t-18 41.5v581q0 24 18 42t42 18h77v-90h-47v-520h47zM167 10v70h-47v540l-24 24q-6 -6 -6 -21v-543q0 -12 9 -21t21 -9h7zM167 620v70h-63q-23 0 -40 -17l23 -20q7 7 27 7h13z" />
    <glyph glyph-name="parenright" unicode=")" horiz-adv-x="225" 
d="M48 0v90h47v520h-47v90h77q25 0 42.5 -18t17.5 -42v-581q0 -24 -17.5 -41.5t-42.5 -17.5h-77zM58 80l30 -30h23q8 0 16 8l-22 22h-47zM58 690l30 -30h26q13 0 22 -9t9 -22v-557q0 -16 -8 -24l23 -23q15 15 15 37v575q0 23 -15 38t-38 15h-64z" />
    <glyph glyph-name="asterisk" unicode="*" horiz-adv-x="378" 
d="M221 490l-30 62v-91l30 -30v59zM175 561h-58l-57 -34l37 -12zM180 569l-35 57l-55 31l11 -42zM247 561h-52l74 -43l13 -52l34 61zM231 639l54 31l45 -78l-54 -31l54 -31l-45 -78l-54 31v-62h-90v62l-54 -31l-45 78l54 31l-54 31l45 78l54 -31v62h90v-62zM191 569l73 43
l52 -15l-36 60l-59 -35v69h-70l40 -37v-85z" />
    <glyph glyph-name="plus" unicode="+" horiz-adv-x="390" 
d="M370 309h-130v-130h-90v130h-130v90h130v141h90v-141h130v-90zM230 530h-70l40 -40v-131h120l40 -40v70h-130v141zM30 389l30 -30h130l-30 30h-130zM230 319l-30 30v-130l30 -30v130z" />
    <glyph glyph-name="comma" unicode="," horiz-adv-x="130" 
d="M20 0v90h90v-90l-40 -40h-50v40zM30 80l40 -40v-65l30 30v75h-70z" />
    <glyph glyph-name="hyphen" unicode="-" horiz-adv-x="270" 
d="M20 316v90h230v-90h-230zM30 396l30 -30h140l40 -40v70h-210z" />
    <glyph glyph-name="period" unicode="." horiz-adv-x="130" 
d="M20 0v90h90v-90h-90zM30 80l70 -70v70h-70z" />
    <glyph glyph-name="slash" unicode="/" horiz-adv-x="249" 
d="M149 700h98l-149 -700h-95zM67 41l22 -29l144 678h-74l36 -41z" />
    <glyph glyph-name="zero" unicode="0" 
d="M40 59v581q0 24 18 42t42 18h136q25 0 42.5 -18t17.5 -42v-581q0 -24 -17.5 -41.5t-42.5 -17.5h-136q-24 0 -42 17.5t-18 41.5zM206 556v54h-76v-234zM90 172v-92q0 -12 9 -21t21 -9h102q8 0 16 8l-22 22h-96v78l95 215l31 139zM256 629v-557q0 -16 -8 -24l23 -23
q15 15 15 37v575q0 23 -15 38t-38 15h-129q-23 0 -40 -17l23 -20q7 7 27 7h111q13 0 22 -9t9 -22zM130 154v-64h76v236zM90 623v-339l30 71v265l-24 24q-6 -6 -6 -21z" />
    <glyph glyph-name="one" unicode="1" horiz-adv-x="185" 
d="M55 0v582v28h-40v50l40 40h90v-700h-90zM65 690l40 -37v-613l30 -30v680h-70z" />
    <glyph glyph-name="two" unicode="2" 
d="M64 356l26 -23q9 9 21 9h105q10 0 21 11l-21 19h-113q-23 0 -39 -16zM90 299v-249h156l-30 30h-96v222l-22 22q-8 -8 -8 -25zM130 90h76v80h90v-80v-90h-256v322q0 24 17.5 42t42.5 18h106v228h-76v-116h-90v147q0 25 17 42t43 17h136q27 0 43.5 -17t16.5 -43v-289
q0 -23 -17.5 -41t-42.5 -18h-106v-202zM256 629v-263q0 -16 -8 -24l23 -23q15 15 15 37v281q0 23 -15 38t-38 15h-129q-23 0 -40 -17l23 -20q7 7 27 7h111q13 0 22 -9t9 -22zM90 617v-83l30 -30v116l-22 22q-8 -8 -8 -25zM216 160l40 -40v-80l30 -30v150h-70z" />
    <glyph glyph-name="three" unicode="3" 
d="M256 307v-235q0 -16 -8 -24l23 -23q15 15 15 37v245q0 21 -11.5 35t-26.5 16h-47q27 0 41 -13.5t14 -37.5zM114 660h111q13 0 22 -9t9 -22v-203q0 -12 -6 -22t-12 -14l-7 -5l15 -12q40 10 40 45v219q0 22 -14.5 37.5t-38.5 15.5h-129q-23 0 -40 -17l23 -20q7 7 27 7z
M50 197l40 -40v-77q0 -11 9 -20.5t21 -9.5h102q8 0 16 8l-22 22h-96v117h-70zM40 207h90v-117h76v226h-91v90h91v204h-76v-120h-90v151q0 25 17 42t43 17h136q25 0 42.5 -18t17.5 -42v-225q0 -40 -42 -49q19 -4 30.5 -21.5t11.5 -37.5v-248q0 -24 -17.5 -41.5t-42.5 -17.5
h-136q-8 0 -12 1q-21 4 -34.5 20.5t-13.5 37.5v148zM90 530l30 -30v120l-22 22q-8 -8 -8 -25v-87zM123 396l30 -30h21q38 0 54 22l-10 8h-95z" />
    <glyph glyph-name="four" unicode="4" horiz-adv-x="334" 
d="M31 287l-1 413h90v-323h65v323h90v-323h60v-90h-60v-287h-90v287h-154zM80 650v-313h145l-30 30h-85v323h-70zM235 653v-316h90v30h-60v323h-70zM235 40l30 -30v287l-30 20v-277z" />
    <glyph glyph-name="five" unicode="5" horiz-adv-x="338" 
d="M40 211h90v-121h76v226h-166l1 384h256v-90h-167v-204h106q25 0 42.5 -18t17.5 -42v-287q0 -24 -17.5 -41.5t-42.5 -17.5h-136q-24 0 -42 17.5t-18 41.5v152zM120 201h-70l40 -40v-81q0 -11 9 -20.5t21 -9.5h102q8 0 16 8l-22 22h-96v121zM256 335v-263q0 -16 -8 -24
l23 -23q15 15 15 37v281q0 23 -15 38t-38 15h-113v224l-30 30v-284h135q13 0 22 -9t9 -22zM287 620v70h-183h-53l30 -30h166z" />
    <glyph glyph-name="six" unicode="6" 
d="M206 90v226h-76v-226h76zM90 356v-276q0 -12 9 -21t21 -9h102q8 0 16 8l-22 22h-96v246zM40 59v582q0 24 18 42t42 18h136q25 0 42.5 -18t17.5 -42v-133h-90v103h-76v-205h106q25 0 42.5 -18t17.5 -42v-287q0 -24 -17.5 -41.5t-42.5 -17.5h-136q-24 0 -42 17.5t-18 41.5z
M256 335v-263q0 -16 -8 -24l23 -23q15 15 15 37v281q0 23 -15 38t-38 15h-113v224l-22 22q-8 -8 -8 -25v-251h135q13 0 22 -9t9 -22zM256 629v-81l30 -30v119q0 23 -15 38t-38 15h-129q-23 0 -40 -17l23 -20q7 7 27 7h111q13 0 22 -9t9 -22z" />
    <glyph glyph-name="seven" unicode="7" horiz-adv-x="282" 
d="M68 0l113 610h-171v90h262v-110l-109 -590h-95zM20 690l33 -30h179v-61l-104 -567l25 -22l109 583v97h-242z" />
    <glyph glyph-name="eight" unicode="8" 
d="M256 307v-235q0 -16 -8 -24l23 -23q15 15 15 37v245q0 21 -11.5 35t-26.5 16h-47q27 0 41 -13.5t14 -37.5zM125 660h89q13 0 22 -9t9 -22v-203q0 -12 -4 -23t-8 -15l-4 -5l15 -10q31 8 31 45v219q0 22 -14.5 37.5t-38.5 15.5h-107q-23 0 -40 -17l23 -20q7 7 27 7z
M120 201v125l-17 17q-13 -13 -13 -25v-238q0 -11 9 -20.5t21 -9.5h102q8 0 16 8l-22 22h-96v121zM51 415v226q0 25 17 42t43 17h114q25 0 42.5 -18t17.5 -42v-225q0 -40 -31 -49q19 -4 30.5 -21.5t11.5 -37.5v-248q0 -24 -17.5 -41.5t-42.5 -17.5h-136q-8 0 -12 1
q-21 4 -34.5 20.5t-13.5 37.5v248q0 20 11.5 37.5t30.5 21.5q-31 9 -31 49zM130 316v-226h76v226h-76zM141 406h54v204h-54v-204zM156 366h18q32 0 48 22l-15 10q-5 -2 -12 -2h-64v224l-22 22q-8 -8 -8 -25v-213q0 -38 55 -38zM136 358h-48l11 -11q11 11 37 11z" />
    <glyph glyph-name="nine" unicode="9" 
d="M50 198l40 -40v-78q0 -11 9 -20.5t21 -9.5h102q8 0 16 8l-22 22h-96v118h-70zM296 640v-581q0 -24 -17.5 -41.5t-42.5 -17.5h-136q-8 0 -12 1q-21 4 -34.5 20.5t-13.5 37.5v153h90v-122h76v226h-106q-24 0 -42 17.5t-18 41.5v275q3 22 20 36t40 14h136q25 0 42.5 -18
t17.5 -42zM206 406v204h-76v-204h76zM90 617v-221q0 -12 9 -21t21 -9h126l-30 30h-96v224l-22 22q-8 -8 -8 -25zM114 660h111q13 0 22 -9t9 -22v-557q0 -16 -8 -24l23 -23q15 15 15 37v575q0 22 -14.5 37.5t-38.5 15.5h-129q-23 0 -40 -17l23 -20q7 7 27 7z" />
    <glyph glyph-name="colon" unicode=":" horiz-adv-x="130" 
d="M20 0v90h90v-90h-90zM30 80l70 -70v70h-70zM20 316v90h90v-90h-90zM30 396l70 -70v70h-70z" />
    <glyph glyph-name="semicolon" unicode=";" horiz-adv-x="130" 
d="M20 316v90h90v-90h-90zM30 396l70 -70v70h-70zM20 0v90h90v-90l-40 -40h-50v40zM30 80l40 -40v-65l30 30v75h-70z" />
    <glyph glyph-name="less" unicode="&#x3c;" horiz-adv-x="251" 
d="M116 403l107 -104l-63 -62l-130 131v70l130 130l63 -60zM102 403l107 105l-49 47v-54l-98 -98l104 -104h43z" />
    <glyph glyph-name="equal" unicode="=" horiz-adv-x="270" 
d="M20 381v90h230v-90h-230zM30 461l30 -30h140l40 -40v70h-210zM20 201v90h230v-90h-230zM30 281l30 -30h140l40 -40v70h-210z" />
    <glyph glyph-name="greater" unicode="&#x3e;" horiz-adv-x="244" 
d="M30 299l107 104l-107 105l63 60l130 -130v-70l-130 -131zM213 372v62l-120 120l-48 -46h48l103 -105l-103 -107v-46z" />
    <glyph glyph-name="question" unicode="?" horiz-adv-x="335" 
d="M216 396h-80l30 -30h56q8 0 16 8zM126 150v256h80v204h-76v-120h-90v151q0 25 17 42t43 17h136q25 0 42.5 -18t17.5 -42v-265q0 -24 -17.5 -41.5t-42.5 -17.5h-20v-166h-90zM90 530l30 -30v120l-22 22q-8 -8 -8 -25v-87zM114 660h111q13 0 22 -9t9 -22v-241q0 -16 -8 -24
l23 -23q15 15 15 37v259q0 22 -14.5 37.5t-38.5 15.5h-129q-23 0 -40 -17l23 -20q7 7 27 7zM206 326l-30 30v-166l30 -30v166zM126 0v90h90v-90h-90zM136 80l70 -70v70h-70z" />
    <glyph glyph-name="at" unicode="@" horiz-adv-x="616" 
d="M346 229v70h-76v-70h76zM230 312v-93q0 -12 9 -21t21 -9h126l-30 30h-96v90l-24 24q-6 -6 -6 -21zM356 349l30 30h-142q-23 0 -40 -17l23 -20q7 7 27 7h102zM230 458l30 -30v51l-24 24q-6 -6 -6 -21v-24zM571 10v70h-451v540l-24 24q-6 -6 -6 -21v-543q0 -12 9 -21t21 -9
h411zM536 629v-418q0 -16 -8 -24l23 -23q15 15 15 37v436q0 23 -15 38t-38 15h-409q-23 0 -40 -17l23 -20q7 7 27 7h391q13 0 22 -9t9 -22zM180 198v131q0 24 18 42t42 18h106v80h-76v-50h-90v80q0 24 18 42t42 18h136q25 0 42.5 -18t17.5 -42v-270h50v381h-356v-520h451
v-90h-481q-24 0 -42 17.5t-18 41.5v581q0 24 18 42t42 18h416q25 0 42.5 -18t17.5 -42v-442q0 -24 -17.5 -41.5t-42.5 -17.5h-276q-24 0 -42 17.5t-18 41.5zM396 488v-269q0 -12 9 -21t21 -9h76q8 0 16 8l-22 22h-70v277q0 23 -15 38t-38 15h-129q-23 0 -40 -17l23 -20
q7 7 27 7h111q13 0 22 -9t9 -22z" />
    <glyph glyph-name="A" unicode="A" horiz-adv-x="338" 
d="M234 0l-14 137h-100l-14 -137h-90l74 700h160l72 -700h-88zM170 610l-40 -383h80zM98 690l27 -30h87l64 -615l35 -35l-71 680h-142zM134 650l-48 -463h167l-31 30h-103l42 403zM96 10l14 137l-26 26l-14 -137z" />
    <glyph glyph-name="B" unicode="B" horiz-adv-x="332" 
d="M40 0v700h185q25 0 42.5 -18t17.5 -42v-225q0 -40 -31 -49q19 -4 30.5 -21.5t11.5 -37.5v-248q0 -24 -17.5 -41.5t-42.5 -17.5h-196zM130 90h76v226h-76v-226zM130 610v-204h65v204h-65zM50 690l30 -30h134q13 0 22 -9t9 -22v-203q0 -12 -4 -23t-8 -15l-4 -5l15 -10
q31 8 31 45v219q0 22 -14.5 37.5t-38.5 15.5h-172zM90 649v-283h84q32 0 48 22l-15 10q-5 -2 -12 -2h-75v224zM90 345v-295h132q8 0 16 8l-22 22h-96v236zM256 307v-235q0 -16 -8 -24l23 -23q15 15 15 37v245q0 21 -11.5 35t-26.5 16h-47q27 0 41 -13.5t14 -37.5z" />
    <glyph glyph-name="C" unicode="C" horiz-adv-x="322" 
d="M296 490h-90v120h-76v-520h76v121h90v-152q0 -24 -17.5 -41.5t-42.5 -17.5h-136q-24 0 -42 17.5t-18 41.5v581q0 24 18 42t42 18h136q25 0 42.5 -18t17.5 -42v-150zM90 623v-543q0 -12 9 -21t21 -9h102q8 0 16 8l-22 22h-96v540l-24 24q-6 -6 -6 -21zM256 530l30 -30v137
q0 23 -15 38t-38 15h-129q-23 0 -40 -17l23 -20q7 7 27 7h111q13 0 22 -9t9 -22v-99zM286 201h-70l40 -40v-89q0 -16 -8 -24l23 -23q15 15 15 37v139z" />
    <glyph glyph-name="D" unicode="D" 
d="M40 0v700h196q25 0 42.5 -18t17.5 -42v-581q0 -24 -17.5 -41.5t-42.5 -17.5h-196zM206 90v520h-76v-520h76zM90 649v-599h132q8 0 16 8l-22 22h-96v540zM256 629v-557q0 -16 -8 -24l23 -23q15 15 15 37v575q0 22 -14.5 37.5t-38.5 15.5h-183l30 -30h145q13 0 22 -9t9 -22
z" />
    <glyph glyph-name="E" unicode="E" horiz-adv-x="302" 
d="M272 90v-90h-232v700h225v-90h-135v-193h95v-90h-95v-237h142zM50 690l33 -30h131l41 -40v70h-205zM90 649v-272h84l41 -40v70h-95v213zM90 356v-306h132l40 -40v70h-142v247z" />
    <glyph glyph-name="F" unicode="F" horiz-adv-x="285" 
d="M130 0h-90v700h225v-90h-135v-193h95v-90h-95v-327zM50 690l33 -30h131l41 -40v70h-205zM90 649v-272h84l41 -40v70h-95v213zM90 356v-316l30 -30v317z" />
    <glyph glyph-name="G" unicode="G" 
d="M296 490h-90v120h-76v-520h76v161h-30v90h120v-282q0 -24 -17.5 -41.5t-42.5 -17.5h-136q-24 0 -42 17.5t-18 41.5v581q0 24 18 42t42 18h136q25 0 42.5 -18t17.5 -42v-150zM90 623v-543q0 -12 9 -21t21 -9h102q8 0 16 8l-22 22h-96v540l-24 24q-6 -6 -6 -21zM256 530
l30 -30v137q0 23 -15 38t-38 15h-129q-23 0 -40 -17l23 -20q7 7 27 7h111q13 0 22 -9t9 -22v-99zM286 331h-100l30 -30h40v-229q0 -16 -8 -24l23 -23q15 15 15 37v269z" />
    <glyph glyph-name="H" unicode="H" 
d="M40 0v700h90v-323h76v323h90v-700h-90v287h-76v-287h-90zM90 650v-313h156l-30 30h-96v323h-70zM256 650v-610l30 -30v680h-70zM90 327v-287l30 -30v287z" />
    <glyph glyph-name="I" unicode="I" horiz-adv-x="170" 
d="M40 0v700h90v-700h-90zM50 690l33 -30l7 -7v-613l30 -30v680h-70z" />
    <glyph glyph-name="J" unicode="J" horiz-adv-x="316" 
d="M20 211h90v-121h76v610h90v-641q0 -24 -17.5 -41.5t-42.5 -17.5h-136q-24 0 -42 17.5t-18 41.5v152zM70 160v-80q0 -12 9 -21t21 -9h102q8 0 16 8l-22 22h-96v121h-70zM266 690h-70l40 -40v-578q0 -16 -8 -24l23 -23q15 15 15 37v628z" />
    <glyph glyph-name="K" unicode="K" horiz-adv-x="311" 
d="M40 700h90v-263l70 263h95l-95 -325l106 -375h-93l-83 306v-306h-90v700zM90 649v-609l30 -30v680h-70zM158 375l100 -331l35 -34l-103 365l92 315h-70l29 -41z" />
    <glyph glyph-name="L" unicode="L" horiz-adv-x="255" 
d="M40 0v700h90v-610h106v-90h-196zM90 650v-600h96l40 -40v70h-106v610h-70z" />
    <glyph glyph-name="M" unicode="M" horiz-adv-x="478" 
d="M398 40l30 -30v680h-70l40 -40v-610zM102 650l135 -428v91l-114 377h-73zM123 10v396l-31 178l1 -544zM438 0h-90v378l-74 -228h-73l-68 228v-378h-93v700h90l107 -350l111 350h90v-700zM269 167l83 259l25 197l-128 -416z" />
    <glyph glyph-name="N" unicode="N" horiz-adv-x="366" 
d="M249 256l-109 434h-90l30 -30h35l162 -612zM316 690h-70l40 -40v-610l30 -30v680zM40 700h110l86 -348v348h90v-700h-106l-90 376v-376h-90v700zM120 10v406l-30 234v-610z" />
    <glyph glyph-name="O" unicode="O" 
d="M40 59v581q0 24 18 42t42 18h136q25 0 42.5 -18t17.5 -42v-581q0 -24 -17.5 -41.5t-42.5 -17.5h-136q-24 0 -42 17.5t-18 41.5zM206 90v520h-76v-520h76zM90 623v-543q0 -12 9 -21t21 -9h102q8 0 16 8l-22 22h-96v540l-24 24q-6 -6 -6 -21zM256 629v-557q0 -16 -8 -24
l23 -23q15 15 15 37v575q0 23 -15 38t-38 15h-129q-23 0 -40 -17l23 -20q7 7 27 7h111q13 0 22 -9t9 -22z" />
    <glyph glyph-name="P" unicode="P" horiz-adv-x="316" 
d="M40 318v382h196q25 0 42.5 -18t17.5 -42v-263q0 -24 -17.5 -41.5t-42.5 -17.5h-106v-318h-90v318zM206 408v202h-76v-202h76zM90 649v-281h132q8 0 16 8l-22 22h-96v222zM256 629v-239q0 -16 -8 -24l23 -23q15 15 15 37v257q0 22 -14.5 37.5t-38.5 15.5h-183l30 -30h145
q13 0 22 -9t9 -22zM90 358v-318l30 -30v318z" />
    <glyph glyph-name="Q" unicode="Q" 
d="M40 59v581q0 24 18 42t42 18h136q25 0 42.5 -18t17.5 -42v-581q0 -24 -17.5 -41.5t-42.5 -17.5l38 -60h-89l-38 60h-47q-24 0 -42 17.5t-18 41.5zM206 90v520h-76v-520h76zM90 623v-543q0 -12 9 -21t21 -9h102q8 0 16 8l-22 22h-96v540l-24 24q-6 -6 -6 -21zM256 629
v-557q0 -16 -8 -24l23 -23q15 15 15 37v575q0 23 -15 38t-38 15h-129q-23 0 -40 -17l23 -20q7 7 27 7h111q13 0 22 -9t9 -22zM175 40l39 -59l41 -31l-38 60z" />
    <glyph glyph-name="R" unicode="R" horiz-adv-x="331" 
d="M206 0v297h-76v-297h-90v700h185q25 0 42.5 -18t17.5 -42v-244q0 -40 -31 -49q19 -4 30.5 -21.5t11.5 -37.5v-288h-90zM130 610v-223h65v223h-65zM50 690l33 -30h129q13 0 23 -10t10 -24v-219q0 -12 -4 -22.5t-8 -15.5l-4 -5l15 -10q31 8 31 45v238q0 22 -14.5 37.5
t-38.5 15.5h-172zM90 649v-302h84q32 0 48 22l-15 10q-5 -2 -12 -2h-75v243zM120 10v287l-30 29v-286zM256 288v-248l30 -30v278q0 21 -11.5 35t-26.5 16h-47q27 0 41 -13.5t14 -37.5z" />
    <glyph glyph-name="S" unicode="S" 
d="M40 211h90v-121h76v226h-106q-25 0 -42.5 18t-17.5 41v265q0 26 16.5 43t43.5 17h136q26 0 43 -17t17 -42v-147h-90v116h-76v-204h106q25 0 42.5 -18t17.5 -42v-287q0 -24 -17.5 -41.5t-42.5 -17.5h-136q-24 0 -42 17.5t-18 41.5v152zM120 201h-70l40 -40v-81
q0 -11 9 -20.5t21 -9.5h102q8 0 16 8l-22 22h-96v121zM256 335v-263q0 -16 -8 -24l23 -23q15 15 15 37v281q0 23 -15 38t-38 15h-113v224l-20 20q-10 -10 -10 -20v-224q0 -10 10 -20t20 -10h105q13 0 22 -9t9 -22zM256 629v-95l30 -30v133q0 23 -15 38t-38 15h-129
q-23 0 -40 -17l23 -20q7 7 27 7h111q13 0 22 -9t9 -22z" />
    <glyph glyph-name="T" unicode="T" horiz-adv-x="270" 
d="M90 0v610h-80v90h250v-90h-80v-610h-90zM140 650v-610l30 -30v610zM20 690l30 -30h160l40 -40v70h-230z" />
    <glyph glyph-name="U" unicode="U" 
d="M40 700h90v-610h76v610h90v-641q0 -24 -17.5 -41.5t-42.5 -17.5h-136q-24 0 -42 17.5t-18 41.5v641zM90 649v-569q0 -12 9 -21t21 -9h102q8 0 16 8l-22 22h-96v610h-70zM286 690h-70l40 -40v-578q0 -16 -8 -24l23 -23q15 15 15 37v628z" />
    <glyph glyph-name="V" unicode="V" horiz-adv-x="312" 
d="M3 700h93l60 -560l60 560h93l-85 -700h-136zM86 690h-73l48 -40l64 -574h62l-22 46h-18zM226 690l37 -40l-67 -591l22 -46l81 677h-73z" />
    <glyph glyph-name="W" unicode="W" horiz-adv-x="509" 
d="M88 690h-73l40 -40l62 -574h62l-31 30zM250 359l-2 281l-63 -576l23 -46zM291 690h-73l40 -40l72 -574h62l-31 29zM421 690l40 -40l-63 -586l23 -48l73 674h-73zM5 700h93l50 -491l60 491h93l60 -489l50 489h93l-75 -700h-136l-38 320l-39 -320h-136z" />
    <glyph glyph-name="X" unicode="X" horiz-adv-x="329" 
d="M12 700h93l60 -263l50 263h95l-76 -356l84 -344h-93l-60 243l-60 -243h-93l83 345zM72 665l81 -320h31l-19 47l-70 298h-70zM197 344l72 -298l36 -36l-81 334l73 346h-70l32 -32zM147 326l-77 -291l25 -25l66 257z" />
    <glyph glyph-name="Y" unicode="Y" horiz-adv-x="309" 
d="M84 690h-73l50 -30l91 -408l1 80zM224 690l35 -30l-100 -414v-206l30 -30v224l108 456h-73zM109 0v230l-108 470h93l60 -330l60 330h93l-108 -470v-230h-90z" />
    <glyph glyph-name="Z" unicode="Z" horiz-adv-x="333" 
d="M30 90l183 520h-171v90h262v-110l-179 -500h179v-90h-274v90zM52 690l33 -30h179v-61l-198 -549h189l39 -40v70h-185l185 513v97h-242z" />
    <glyph glyph-name="bracketleft" unicode="[" horiz-adv-x="214" 
d="M177 0v-90h-137v880h137v-90h-47v-700h47zM167 -80v70h-47v720l-30 30v-780h37zM167 710v70h-117l30 -30h47z" />
    <glyph glyph-name="backslash" unicode="\" horiz-adv-x="250" 
d="M3 700h98l146 -700h-95zM196 42l38 -32l-143 680h-74l51 -47z" />
    <glyph glyph-name="bracketright" unicode="]" horiz-adv-x="217" 
d="M40 700v90h137v-880h-137v90h47v700h-47zM50 780l30 -30h57v-800l30 -30v860h-117zM50 -10v-30h77l-30 30h-47z" />
    <glyph glyph-name="asciicircum" unicode="^" horiz-adv-x="368" 
d="M216 513h-52l143 -133h43zM74 332l109 110v43l-109 -111v-42zM189 434l-115 -115l-60 61l143 143h64l143 -143l-60 -63z" />
    <glyph glyph-name="underscore" unicode="_" horiz-adv-x="330" 
d="M310 -90h-280v90h280v-90zM40 -10l30 -30h190l40 -40v70h-260z" />
    <glyph glyph-name="grave" unicode="`" horiz-adv-x="288" 
d="M109 924l137 -146l-65 -62l-137 146zM181 782v-50l48 47l-120 130v-51z" />
    <glyph glyph-name="a" unicode="a" 
d="M229 0l-12 97h-93l-12 -97h-96l74 570h160l72 -570h-93zM170 480l-35 -293h71zM98 560l27 -30h87l64 -485l35 -35l-71 550h-142zM134 520l-48 -373h163l-31 30h-94l37 313zM103 10l12 97l-31 26l-14 -97z" />
    <glyph glyph-name="b" unicode="b" horiz-adv-x="326" 
d="M40 0v570h185q25 0 42.5 -18t17.5 -42v-165q0 -40 -31 -49q19 -4 30.5 -21.5t11.5 -37.5v-178q0 -24 -17.5 -41.5t-42.5 -17.5h-196zM130 90h76v156h-76v-156zM130 480v-144h65v144h-65zM50 560l30 -30h134q13 0 22 -9t9 -22v-143q0 -12 -4 -23t-8 -15l-4 -5l15 -10
q31 8 31 45v159q0 22 -14.5 37.5t-38.5 15.5h-172zM90 519v-223h84q32 0 48 22l-15 10q-5 -2 -12 -2h-75v164zM90 275v-225h132q8 0 16 8l-22 22h-96v166zM256 237v-165q0 -16 -8 -24l23 -23q15 15 15 37v175q0 21 -11.5 35t-26.5 16h-47q27 0 41 -13.5t14 -37.5z" />
    <glyph glyph-name="c" unicode="c" 
d="M296 400h-90v80h-76v-390h76v81h90v-112q0 -24 -17.5 -41.5t-42.5 -17.5h-136q-24 0 -42 17.5t-18 41.5v451q0 24 18 42t42 18h136q25 0 42.5 -18t17.5 -42v-110zM90 493v-413q0 -12 9 -21t21 -9h102q8 0 16 8l-22 22h-96v410l-24 24q-6 -6 -6 -21zM256 440l30 -30v97
q0 23 -15 38t-38 15h-129q-23 0 -40 -17l23 -20q7 7 27 7h111q13 0 22 -9t9 -22v-59zM286 161h-70l40 -40v-49q0 -16 -8 -24l23 -23q15 15 15 37v99z" />
    <glyph glyph-name="d" unicode="d" 
d="M40 0v570h196q25 0 42.5 -18t17.5 -42v-451q0 -24 -17.5 -41.5t-42.5 -17.5h-196zM206 90v390h-76v-390h76zM90 519v-469h132q8 0 16 8l-22 22h-96v410zM256 499v-427q0 -16 -8 -24l23 -23q15 15 15 37v445q0 22 -14.5 37.5t-38.5 15.5h-183l30 -30h145q13 0 22 -9t9 -22
z" />
    <glyph glyph-name="e" unicode="e" horiz-adv-x="302" 
d="M272 90v-90h-232v570h225v-90h-135v-145h95v-90h-95v-155h142zM50 560l33 -30h131l41 -40v70h-205zM90 519v-224h84l41 -40v70h-95v165zM90 274v-224h132l40 -40v70h-142v165z" />
    <glyph glyph-name="f" unicode="f" horiz-adv-x="285" 
d="M130 0h-90v570h225v-90h-135v-145h115v-90h-115v-245zM50 560l33 -30h131l41 -40v70h-205zM90 519v-224h104l41 -40v70h-115v165zM90 274v-234l30 -30v235z" />
    <glyph glyph-name="g" unicode="g" 
d="M296 400h-90v80h-76v-390h76v81h-30v90h120v-202q0 -24 -17.5 -41.5t-42.5 -17.5h-136q-24 0 -42 17.5t-18 41.5v451q0 24 18 42t42 18h136q25 0 42.5 -18t17.5 -42v-110zM90 493v-413q0 -12 9 -21t21 -9h102q8 0 16 8l-22 22h-96v410l-24 24q-6 -6 -6 -21zM256 440
l30 -30v97q0 23 -15 38t-38 15h-129q-23 0 -40 -17l23 -20q7 7 27 7h111q13 0 22 -9t9 -22v-59zM286 251h-100l30 -30h40v-149q0 -16 -8 -24l23 -23q15 15 15 37v189z" />
    <glyph glyph-name="h" unicode="h" 
d="M40 0v570h90v-243h76v243h90v-570h-90v237h-76v-237h-90zM90 520v-233h156l-30 30h-96v243h-70zM256 520v-480l30 -30v550h-70zM90 277v-237l30 -30v237z" />
    <glyph glyph-name="i" unicode="i" horiz-adv-x="170" 
d="M40 0v570h90v-570h-90zM50 560l33 -30l7 -7v-483l30 -30v550h-70z" />
    <glyph glyph-name="j" unicode="j" horiz-adv-x="316" 
d="M20 211h90v-121h76v480h90v-511q0 -24 -17.5 -41.5t-42.5 -17.5h-136q-24 0 -42 17.5t-18 41.5v152zM70 160v-80q0 -12 9 -21t21 -9h102q8 0 16 8l-22 22h-96v121h-70zM266 560h-70l40 -40v-448q0 -16 -8 -24l23 -23q15 15 15 37v498z" />
    <glyph glyph-name="k" unicode="k" horiz-adv-x="315" 
d="M40 570h90v-203l70 203h95l-95 -265l106 -305h-93l-83 236v-236h-90v570zM90 519v-479l30 -30v550h-70zM158 305l100 -261l35 -34l-103 295l92 255h-70l29 -41z" />
    <glyph glyph-name="l" unicode="l" horiz-adv-x="256" 
d="M40 0v570h90v-480h106v-90h-196zM90 520v-470h96l40 -40v70h-106v480h-70z" />
    <glyph glyph-name="m" unicode="m" horiz-adv-x="478" 
d="M398 40l30 -30v550h-70l40 -40v-480zM102 520l135 -390v74l-114 356h-73zM123 10v326l-31 118l1 -414zM438 0h-90v308l-74 -228h-73l-69 228l1 -308h-93v570h90l107 -329l111 329h90v-570zM267 94l92 283l22 141l-135 -397z" />
    <glyph glyph-name="n" unicode="n" horiz-adv-x="366" 
d="M244 236l-104 324h-90l30 -30h35l162 -482zM316 560h-70l40 -40v-480l30 -30v550zM40 570h110l86 -268v268h90v-570h-93l-103 326v-326h-90v570zM120 10v356l-30 154v-480z" />
    <glyph glyph-name="o" unicode="o" 
d="M40 59v451q0 24 18 42t42 18h136q25 0 42.5 -18t17.5 -42v-451q0 -24 -17.5 -41.5t-42.5 -17.5h-136q-24 0 -42 17.5t-18 41.5zM206 90v390h-76v-390h76zM90 493v-413q0 -12 9 -21t21 -9h102q8 0 16 8l-22 22h-96v410l-24 24q-6 -6 -6 -21zM256 499v-427q0 -16 -8 -24
l23 -23q15 15 15 37v445q0 23 -15 38t-38 15h-129q-23 0 -40 -17l23 -20q7 7 27 7h111q13 0 22 -9t9 -22z" />
    <glyph glyph-name="p" unicode="p" horiz-adv-x="316" 
d="M40 228v342h196q25 0 42.5 -18t17.5 -42v-223q0 -24 -17.5 -41.5t-42.5 -17.5h-106v-228h-90v228zM206 318v162h-76v-162h76zM90 519v-241h132q8 0 16 8l-22 22h-96v182zM256 499v-199q0 -16 -8 -24l23 -23q15 15 15 37v217q0 22 -14.5 37.5t-38.5 15.5h-183l30 -30h145
q13 0 22 -9t9 -22zM90 268v-228l30 -30v228z" />
    <glyph glyph-name="q" unicode="q" 
d="M40 59v451q0 24 18 42t42 18h136q25 0 42.5 -18t17.5 -42v-451q0 -24 -17.5 -41.5t-42.5 -17.5l38 -60h-89l-38 60h-47q-24 0 -42 17.5t-18 41.5zM206 90v390h-76v-390h76zM90 493v-413q0 -12 9 -21t21 -9h102q8 0 16 8l-22 22h-96v410l-24 24q-6 -6 -6 -21zM256 499
v-427q0 -16 -8 -24l23 -23q15 15 15 37v445q0 23 -15 38t-38 15h-129q-23 0 -40 -17l23 -20q7 7 27 7h111q13 0 22 -9t9 -22zM175 40l39 -59l41 -31l-38 60z" />
    <glyph glyph-name="r" unicode="r" 
d="M206 0v228h-76v-228h-90v570h185q25 0 42.5 -18t17.5 -42v-183q0 -40 -31 -49q19 -4 30.5 -21.5t11.5 -37.5v-219h-90zM130 480v-162h65v162h-65zM50 560l33 -30h129q13 0 23 -10t10 -24v-158q0 -12 -4 -23t-8 -15l-4 -5l15 -10q31 8 31 45v177q0 22 -14.5 37.5
t-38.5 15.5h-172zM90 519v-241h84q32 0 48 22l-15 10q-5 -2 -12 -2h-75v182zM120 10v218l-30 29v-217zM256 219v-179l30 -30v209q0 21 -11.5 35t-26.5 16h-47q27 0 41 -13.5t14 -37.5z" />
    <glyph glyph-name="s" unicode="s" 
d="M40 151h90v-61h76v156h-106q-25 0 -42.5 18t-17.5 41v205q0 26 16.5 43t43.5 17h136q26 0 43 -17t17 -42v-87h-90v56h-76v-144h106q25 0 42.5 -18t17.5 -42v-217q0 -24 -17.5 -41.5t-42.5 -17.5h-136q-24 0 -42 17.5t-18 41.5v92zM120 141h-70l40 -40v-21q0 -11 9 -20.5
t21 -9.5h102q8 0 16 8l-22 22h-96v61zM256 265v-193q0 -16 -8 -24l23 -23q15 15 15 37v211q0 23 -15 38t-38 15h-113v164l-20 20q-10 -10 -10 -20v-164q0 -10 10 -20t20 -10h105q13 0 22 -9t9 -22zM256 499v-35l30 -30v73q0 23 -15 38t-38 15h-129q-23 0 -40 -17l23 -20
q7 7 27 7h111q13 0 22 -9t9 -22z" />
    <glyph glyph-name="t" unicode="t" horiz-adv-x="270" 
d="M90 0v480h-80v90h250v-90h-80v-480h-90zM140 520v-480l30 -30v480zM20 560l30 -30h160l40 -40v70h-230z" />
    <glyph glyph-name="u" unicode="u" 
d="M40 570h90v-480h76v480h90v-511q0 -24 -17.5 -41.5t-42.5 -17.5h-136q-24 0 -42 17.5t-18 41.5v511zM90 519v-439q0 -12 9 -21t21 -9h102q8 0 16 8l-22 22h-96v480h-70zM286 560h-70l40 -40v-448q0 -16 -8 -24l23 -23q15 15 15 37v498z" />
    <glyph glyph-name="v" unicode="v" horiz-adv-x="316" 
d="M5 570h93l60 -430l60 430h93l-85 -570h-136zM88 560h-73l48 -40l64 -444h62l-22 46h-18zM228 560l37 -40l-67 -461l20 -43l81 544h-71z" />
    <glyph glyph-name="w" unicode="w" horiz-adv-x="509" 
d="M88 560h-73l45 -47l62 -437h49l-23 38zM250 359l-2 151l-67 -446l27 -46zM291 560h-73l40 -40l72 -444h56l-25 38zM421 560l35 -41l-64 -455l29 -48l73 544h-73zM5 570h93l50 -384l60 384h93l60 -382l50 382h93l-75 -570h-136l-38 320l-39 -320h-136z" />
    <glyph glyph-name="x" unicode="x" horiz-adv-x="329" 
d="M12 570h93l60 -193l50 193h95l-76 -286l84 -284h-93l-60 183l-60 -183h-93l83 285zM72 535l81 -250h31l-19 47l-70 228h-70zM197 284l72 -238l36 -36l-81 274l73 276h-70l32 -32zM147 266l-77 -231l25 -25l66 197z" />
    <glyph glyph-name="y" unicode="y" horiz-adv-x="308" 
d="M85 560h-74l50 -30l91 -318l1 81zM224 560l35 -30l-100 -354v-136l30 -30v182l105 368h-70zM109 0v190l-108 380h93l60 -240l60 240h93l-108 -380v-190h-90z" />
    <glyph glyph-name="z" unicode="z" horiz-adv-x="334" 
d="M30 90l183 390h-171v90h262v-110l-179 -370h179v-90h-274v90zM52 560l33 -30h179v-61l-198 -419h189l39 -40v70h-185l185 383v97h-242z" />
    <glyph glyph-name="braceleft" unicode="{" horiz-adv-x="260" 
d="M181 750l40 -40v70h-66q-23 0 -40 -17l23 -20q7 7 27 7h16zM40 396l30 -30q31 0 46 21l-13 11q-5 -2 -12 -2h-51zM171 428v282l-22 22q-8 -8 -8 -25v-281q0 -15 -4.5 -26t-8.5 -15l-4 -4l9 -8q16 6 27 21t11 34zM91 -31v347h-61v90h61v325q0 25 17 42t43 17h80v-90h-50
v-278q0 -18 -14 -35t-28 -21q19 -4 30.5 -21.5t11.5 -37.5v-307h40v-90h-70q-25 0 -42.5 18t-17.5 41zM141 307v-317q0 -11 9 -20.5t21 -9.5l40 -40v70h-40v317q0 21 -11.5 35t-26.5 16h-42q50 -3 50 -51z" />
    <glyph glyph-name="bar" unicode="|" horiz-adv-x="170" 
d="M40 -50v800h90v-800h-90zM50 740l33 -30l7 -7v-713l30 -30v780h-70z" />
    <glyph glyph-name="braceright" unicode="}" horiz-adv-x="226" 
d="M136 358h-48l11 -11q11 11 37 11zM146 366l40 -40v70h-66v331q0 22 -14.5 37.5t-38.5 15.5h-67l30 -30h29q13 0 22 -9t9 -22v-315q0 -38 56 -38zM-10 0h50v307q0 20 11.5 37.5t30.5 21.5q-15 4 -28.5 18t-13.5 31v285h-50v90h80q25 0 42.5 -18t17.5 -42v-324h66v-90h-66
v-347q0 -21 -13.5 -37.5t-34.5 -20.5q-4 -1 -12 -1h-80v90zM90 318v-336q0 -16 -8 -24l23 -23q15 15 15 37v354l-17 17q-13 -13 -13 -25zM0 -10l30 -30h26q8 0 16 8l-22 22h-50z" />
    <glyph glyph-name="asciitilde" unicode="~" horiz-adv-x="356" 
d="M226 357l21 -21l71 70l-47 47v-51zM79 333l50 53v39l-50 -50v-42zM164 451h-58l32 -22l74 -66v39zM134 375l-54 -57l-62 63l81 80h70l48 -49l54 57l62 -63l-81 -80h-70z" />
    <glyph glyph-name="exclamdown" unicode="&#xa1;" horiz-adv-x="170" 
d="M40 580v-580h90v580h-90zM83 540l-33 30h70v-560l-30 30v493zM40 610v90h90v-90h-90zM50 690l70 -70v70h-70z" />
    <glyph glyph-name="cent" unicode="&#xa2;" 
d="M133 200l30 30h-43v280l-24 24q-6 -6 -6 -21v-283q0 -12 9 -21t21 -9h13zM286 311h-70l40 -40v-49q0 -16 -8 -24l23 -23q15 15 15 37v99zM163 550l-30 30h-29q-23 0 -40 -17l23 -20q7 7 27 7h49zM173 703v-153h52q13 0 22 -9t9 -22v-59l30 -30v97q0 23 -15 38t-38 15h-30
v160h-70l33 -30zM123 590v160h90v-160h23q25 0 42.5 -18t17.5 -42v-110h-90v80h-76v-260h76v81h90v-112q0 -24 -17.5 -41.5t-42.5 -17.5h-23v-150h-90v150h-23q-24 0 -42 17.5t-18 41.5v321q0 24 18 42t42 18h23zM173 230v-190l30 -30v190h19q8 0 16 8l-22 22h-43z" />
    <glyph glyph-name="sterling" unicode="&#xa3;" horiz-adv-x="371" 
d="M126 346l-30 30h-55l30 -30h55zM282 570l30 -30v97q0 23 -15 38t-38 15h-109q-23 0 -40 -17l23 -20q7 7 27 7h91q13 0 22 -9t9 -22v-59zM126 50l-30 30h-56l30 -30h56zM166 306l-30 30v-286h155l40 -40v70h-165v226zM30 0v90h56v206h-55v90h55v254q0 24 18 42t42 18h116
q25 0 42.5 -18t17.5 -42v-110h-90v80h-56v-224h125v-90h-125v-206h165v-90h-311zM136 623v-277h115l40 -40v70h-125v244l-24 24q-6 -6 -6 -21z" />
    <glyph glyph-name="currency" unicode="&#xa4;" horiz-adv-x="480" 
d="M149 256l-71 -69v-43l77 76zM301 299v120h-120v-120h120zM141 432v-143q0 -12 9 -21t21 -9h146q8 0 16 8l-22 22h-140v140l-25 24q-5 -5 -5 -21zM14 516l64 64l71 -71h182l71 71l64 -64l-75 -76v-173l75 -75l-64 -64l-81 81h-162l-81 -81l-64 64l77 77v170zM328 499h-173
q-7 0 -11 -1l-66 67v-42l60 -61q7 7 27 7h155q15 0 25 -7q2 23 -17 37zM381 445l70 71l-49 49v-53l-51 -52v-179q0 -16 -8 -24l59 -58v-57l49 50l-71 71q1 2 1 8v174z" />
    <glyph glyph-name="yen" unicode="&#xa5;" horiz-adv-x="309" 
d="M86 690h-75l50 -30l92 -228v89zM159 200v-160l30 -30v160zM149 210l-30 30h-80l30 -30h80zM149 340l-30 30h-80l30 -30h80zM159 330v-120h70l40 -40v70h-80v60zM159 416v-76h70l40 -40v70h-80v44l111 276h-76l32 -29zM109 250v40h-80v90h80v30l-118 290h103l60 -150
l60 150h103l-118 -290v-30h80v-90h-80v-40h80v-90h-80v-160h-90v160h-80v90h80z" />
    <glyph glyph-name="brokenbar" unicode="&#xa6;" horiz-adv-x="170" 
d="M40 -90v414h90v-414h-90zM50 314l33 -30l7 -7v-327l30 -30v394h-70zM40 364v426h90v-426h-90zM50 780l33 -30l7 -7v-339l30 -30v406h-70z" />
    <glyph glyph-name="section" unicode="&#xa7;" horiz-adv-x="406" 
d="M346 401v-107q0 -16 -8 -24l23 -23q15 15 15 37v125q0 23 -15 38t-38 15h-152v158l-20 20q-10 -10 -10 -20v-158q0 -10 9.5 -20t20.5 -10h144q13 0 22 -9t9 -22zM272 629v-49l30 -30v87q0 23 -15 38t-38 15h-94q-23 0 -40 -17l23 -20q7 7 27 7h76q13 0 22 -9t9 -22z
M171 147h-70l40 -40v-27q0 -11 9 -20.5t21 -9.5h67q8 0 16 8l-22 22h-61v67zM132 432l-30 30h-18q-23 0 -40 -17l23 -20q7 7 27 7h38zM91 472v168q0 26 16.5 43t43.5 17h101q26 0 43 -17t17 -42v-101h-90v70h-41v-138h145q25 0 42.5 -18t17.5 -42v-131q0 -24 -17.5 -41.5
t-42.5 -17.5h-14v-163q0 -24 -17.5 -41.5t-42.5 -17.5h-101q-24 0 -42 17.5t-18 41.5v98h90v-67h41v132h-142q-25 0 -42.5 18t-17.5 41v131q0 26 16.5 43t43.5 17h11zM296 382h-186v-70h186v70zM100 272h212q8 0 16 8l-22 22h-206v90l-21 21q-9 -6 -9 -21v-90q0 -10 10 -20
t20 -10zM302 232l-30 30v-190q0 -16 -8 -24l23 -23q15 15 15 37v170z" />
    <glyph glyph-name="dieresis" unicode="&#xa8;" horiz-adv-x="260" 
d="M20 800v90h90v-90h-90zM30 880l70 -70v70h-70zM150 800v90h90v-90h-90zM160 880l70 -70v70h-70z" />
    <glyph glyph-name="copyright" unicode="&#xa9;" horiz-adv-x="592" 
d="M40 59v581q0 24 18 42t42 18h392q25 0 42.5 -18t17.5 -42v-581q0 -24 -17.5 -41.5t-42.5 -17.5h-392q-24 0 -42 17.5t-18 41.5zM462 90v520h-332v-520h332zM90 623v-543q0 -12 9 -21t21 -9h358q8 0 16 8l-22 22h-352v540l-24 24q-6 -6 -6 -21zM512 629v-557q0 -16 -8 -24
l23 -23q15 15 15 37v575q0 23 -15 38t-38 15h-385q-23 0 -40 -17l23 -20q7 7 27 7h367q13 0 22 -9t9 -22zM425 400h-90v80h-76v-260h76v81h90v-112q0 -24 -17.5 -41.5t-42.5 -17.5h-136q-24 0 -42 17.5t-18 41.5v321q0 24 18 42t42 18h136q25 0 42.5 -18t17.5 -42v-110z
M219 493v-283q0 -12 9 -21t21 -9h102q8 0 16 8l-22 22h-96v280l-24 24q-6 -6 -6 -21zM385 440l30 -30v97q0 23 -15 38t-38 15h-129q-23 0 -40 -17l23 -20q7 7 27 7h111q13 0 22 -9t9 -22v-59zM415 291h-70l40 -40v-49q0 -16 -8 -24l23 -23q15 15 15 37v99z" />
    <glyph glyph-name="ordfeminine" unicode="&#xaa;" horiz-adv-x="316" 
d="M196 472v41h-76v-41h76zM80 526v-64q0 -12 9 -21t21 -9h126l-30 30h-96v61l-24 24q-6 -6 -6 -21zM206 563l30 30h-142q-23 0 -40 -17l23 -20q7 7 27 7h102zM80 668l30 -30v32l-24 24q-6 -6 -6 -21v-5zM30 441v102q0 24 18 42t42 18h106v57h-76v-31h-90v61q0 24 18 42
t42 18h136q25 0 42.5 -18t17.5 -42v-308h-196q-24 0 -42 17.5t-18 41.5zM246 679v-257l30 -30v295q0 23 -15 38t-38 15h-129q-23 0 -40 -17l23 -20q7 7 27 7h111q13 0 22 -9t9 -22z" />
    <glyph glyph-name="guillemotleft" unicode="&#xab;" horiz-adv-x="407" 
d="M116 403l107 -104l-63 -62l-130 131v70l130 130l63 -60zM102 403l107 105l-49 47v-54l-98 -98l104 -104h43zM282 403l107 -104l-63 -62l-130 131v70l130 130l63 -60zM268 403l107 105l-49 47v-54l-98 -98l104 -104h43z" />
    <glyph glyph-name="logicalnot" unicode="&#xac;" horiz-adv-x="346" 
d="M50 380h-30v90h236q26 0 43 -17t17 -42v-127h-90v96h-176zM276 399v-75l30 -30v113q0 23 -15 38t-38 15h-223l30 -30h185q13 0 22 -9t9 -22z" />
    <glyph glyph-name="registered" unicode="&#xae;" horiz-adv-x="664" 
d="M365 240v87h-56v-87h-90v330h165q25 0 42.5 -18t17.5 -42v-84q0 -40 -31 -49q19 -4 30.5 -21.5t11.5 -37.5v-78h-90zM309 480v-63h45v63h-45zM229 560l33 -30h109q13 0 23 -10t10 -24v-59q0 -12 -4 -22.5t-8 -15.5l-4 -5l15 -10q31 8 31 45v78q0 22 -14.5 37.5
t-38.5 15.5h-152zM269 519v-142h64q32 0 48 22l-15 10q-5 -2 -12 -2h-55v83zM299 250v77l-30 29v-76zM415 318v-38l30 -30v68q0 21 -11.5 35t-26.5 16h-47q27 0 41 -13.5t14 -37.5zM44 179v461q0 24 18 42t42 18h460q25 0 42.5 -18t17.5 -42v-461q0 -24 -17.5 -41.5
t-42.5 -17.5h-460q-24 0 -42 17.5t-18 41.5zM534 210v400h-400v-400h400zM94 623v-423q0 -12 9 -21t21 -9h426q8 0 16 8l-22 22h-420v420l-24 24q-6 -6 -6 -21zM584 629v-437q0 -16 -8 -24l23 -23q15 15 15 37v455q0 23 -15 38t-38 15h-453q-23 0 -40 -17l23 -20q7 7 27 7
h435q13 0 22 -9t9 -22z" />
    <glyph glyph-name="degree" unicode="&#xb0;" horiz-adv-x="316" 
d="M30 499v141q0 24 18 42t42 18h136q25 0 42.5 -18t17.5 -42v-141q0 -24 -17.5 -41.5t-42.5 -17.5h-136q-24 0 -42 17.5t-18 41.5zM196 530v80h-76v-80h76zM80 623v-103q0 -12 9 -21t21 -9h102q8 0 16 8l-22 22h-96v100l-24 24q-6 -6 -6 -21zM246 629v-117q0 -16 -8 -24
l23 -23q15 15 15 37v135q0 23 -15 38t-38 15h-129q-23 0 -40 -17l23 -20q7 7 27 7h111q13 0 22 -9t9 -22z" />
    <glyph glyph-name="plusminus" unicode="&#xb1;" horiz-adv-x="390" 
d="M340 399h-100v-100h-90v100h-100v90h100v111h90v-111h100v-90zM230 590h-70l40 -40v-101h90l40 -40v70h-100v111zM60 479l30 -30h100l-30 30h-100zM230 409l-30 30v-100l30 -30v100zM50 179v90h290v-90h-290zM60 259l30 -30h200l40 -40v70h-270z" />
    <glyph glyph-name="twosuperior" unicode="&#xb2;" horiz-adv-x="285" 
d="M64 571l26 -23q9 9 21 9h65q10 0 21 11l-21 19h-73q-23 0 -39 -16zM90 514v-81h105l40 -40v70h-115v54l-22 22q-8 -8 -8 -25zM130 473h115v-90h-205v154q0 24 17.5 42t42.5 18h66v63h-36v-36h-90v67q0 25 17 42t43 17h96q27 0 43.5 -17t16.5 -43v-124q0 -23 -17.5 -41
t-42.5 -18h-66v-34zM216 679v-98q0 -16 -8 -24l23 -23q15 15 15 37v116q0 23 -15 38t-38 15h-89q-23 0 -40 -17l23 -20q7 7 27 7h71q13 0 22 -9t9 -22zM90 667v-3l30 -30v36l-22 22q-8 -8 -8 -25z" />
    <glyph glyph-name="threesuperior" unicode="&#xb3;" horiz-adv-x="296" 
d="M216 517v-62q0 -16 -8 -24l23 -23q15 15 15 37v72q0 21 -11.5 35t-26.5 16h-47q27 0 41 -13.5t14 -37.5zM114 710h71q13 0 22 -9t9 -22v-43q0 -12 -6 -22t-12 -14l-7 -5l15 -12q40 10 40 45v59q0 22 -14.5 37.5t-38.5 15.5h-89q-23 0 -40 -17l23 -20q7 7 27 7zM50 503
l40 -40q0 -11 9 -20.5t21 -9.5h62q8 0 16 8l-22 22h-56v40h-70zM40 513h90v-40h36v53h-71v90h71v44h-36v-34h-90v65q0 25 17 42t43 17h96q25 0 42.5 -18t17.5 -42v-65q0 -40 -42 -49q19 -4 30.5 -21.5t11.5 -37.5v-75q0 -24 -17.5 -41.5t-42.5 -17.5h-96q-8 0 -12 1
q-21 4 -34.5 20.5t-13.5 37.5v71zM90 666l30 -30v34l-22 22q-8 -8 -8 -25v-1zM103 606l30 -30h1q38 0 54 22l-10 8h-75z" />
    <glyph glyph-name="acute" unicode="&#xb4;" horiz-adv-x="288" 
d="M44 778l137 146l65 -62l-137 -146zM109 779v-47l122 130l-50 47v-54z" />
    <glyph glyph-name="mu" unicode="&#xb5;" 
d="M90 519v-439q0 -12 9 -21t21 -9h102q8 0 16 8l-22 22h-96v480h-70zM286 560h-70l40 -40v-448q0 -16 -8 -24l23 -23q15 15 15 37v498zM90 60v-120l30 -30v90q-30 31 -30 60zM40 570h90v-480h76v480h90v-511q0 -24 -17.5 -41.5t-42.5 -17.5h-106v-100h-90v670z" />
    <glyph glyph-name="mu" unicode="&#x3bc;" 
d="M90 519v-439q0 -12 9 -21t21 -9h102q8 0 16 8l-22 22h-96v480h-70zM286 560h-70l40 -40v-448q0 -16 -8 -24l23 -23q15 15 15 37v498zM90 60v-120l30 -30v90q-30 31 -30 60zM40 570h90v-480h76v480h90v-511q0 -24 -17.5 -41.5t-42.5 -17.5h-106v-100h-90v670z" />
    <glyph glyph-name="periodcentered" unicode="&#xb7;" horiz-adv-x="130" 
d="M20 321v90h90v-90h-90zM30 401l70 -70v70h-70z" />
    <glyph glyph-name="cedilla" unicode="&#xb8;" horiz-adv-x="261" 
d="M142 0h90v-66q0 -24 -17.5 -41.5t-42.5 -17.5h-76v90h46v35zM152 -45h-46l30 -30h22q8 0 16 8zM222 -40l-30 30v-43q0 -16 -8 -24l23 -23q15 15 15 37v23z" />
    <glyph glyph-name="onesuperior" unicode="&#xb9;" horiz-adv-x="190" 
d="M60 382v249v28h-40v50l40 40h90v-367h-90zM70 739l40 -37v-280l30 -30v347h-70z" />
    <glyph glyph-name="ordmasculine" unicode="&#xba;" 
d="M40 59v451q0 24 18 42t42 18h136q25 0 42.5 -18t17.5 -42v-451q0 -24 -17.5 -41.5t-42.5 -17.5h-136q-24 0 -42 17.5t-18 41.5zM206 90v390h-76v-390h76zM90 493v-413q0 -12 9 -21t21 -9h102q8 0 16 8l-22 22h-96v410l-24 24q-6 -6 -6 -21zM256 499v-427q0 -16 -8 -24
l23 -23q15 15 15 37v445q0 23 -15 38t-38 15h-129q-23 0 -40 -17l23 -20q7 7 27 7h111q13 0 22 -9t9 -22z" />
    <glyph glyph-name="guillemotright" unicode="&#xbb;" horiz-adv-x="409" 
d="M30 299l107 104l-107 105l63 60l130 -130v-70l-130 -131zM213 372v62l-120 120l-48 -46h48l103 -105l-103 -107v-46zM196 299l107 104l-107 105l63 60l130 -130v-70l-130 -131zM379 372v62l-120 120l-48 -46h48l103 -105l-103 -107v-46z" />
    <glyph glyph-name="onequarter" unicode="&#xbc;" horiz-adv-x="603" 
d="M60 332v249v28h-40v50l40 40h90v-367h-90zM70 689l40 -37v-280l30 -30v347h-70zM391 700h98l-349 -700h-95zM109 41l25 -29l338 678h-71l20 -28zM341 87l-1 263h90v-173h33v173h90v-173h30v-90h-30v-87h-90v87h-122zM390 300v-163h113l-30 30h-53v173h-70zM513 303v-166
h60v30h-30v173h-70zM513 40l30 -30v87l-30 20v-77z" />
    <glyph glyph-name="onehalf" unicode="&#xbd;" horiz-adv-x="586" 
d="M60 332v249v28h-40v50l40 40h90v-367h-90zM70 689l40 -37v-280l30 -30v347h-70zM391 700h98l-349 -700h-95zM109 41l25 -29l338 678h-71l20 -28zM364 188l26 -23q9 9 21 9h65q10 0 21 11l-21 19h-73q-23 0 -39 -16zM390 131v-81h105l40 -40v70h-115v54l-22 22
q-8 -8 -8 -25zM430 90h115v-90h-205v154q0 24 17.5 42t42.5 18h66v63h-36v-36h-90v67q0 25 17 42t43 17h96q27 0 43.5 -17t16.5 -43v-124q0 -23 -17.5 -41t-42.5 -18h-66v-34zM516 296v-98q0 -16 -8 -24l23 -23q15 15 15 37v116q0 23 -15 38t-38 15h-89q-23 0 -40 -17
l23 -20q7 7 27 7h71q13 0 22 -9t9 -22zM390 284v-3l30 -30v36l-22 22q-8 -8 -8 -25z" />
    <glyph glyph-name="threequarters" unicode="&#xbe;" horiz-adv-x="664" 
d="M451 700h98l-349 -700h-95zM169 41l25 -29l338 678h-71l20 -28zM401 87l-1 263h90v-173h33v173h90v-173h30v-90h-30v-87h-90v87h-122zM450 300v-163h113l-30 30h-53v173h-70zM573 303v-166h60v30h-30v173h-70zM573 40l30 -30v87l-30 20v-77zM206 464v-62q0 -16 -8 -24
l23 -23q15 15 15 37v72q0 21 -11.5 35t-26.5 16h-47q27 0 41 -13.5t14 -37.5zM104 657h71q13 0 22 -9t9 -22v-43q0 -12 -6 -22.5t-12 -14.5l-7 -4l15 -12q40 10 40 45v59q0 22 -14.5 37.5t-38.5 15.5h-89q-23 0 -40 -17l23 -20q7 7 27 7zM40 450l40 -40q0 -11 9 -20.5
t21 -9.5h62q8 0 16 8l-22 22h-56v40h-70zM30 460h90v-40h36v53h-71v90h71v44h-36v-34h-90v65q0 25 17 42t43 17h96q25 0 42.5 -18t17.5 -42v-65q0 -40 -42 -49q19 -4 30.5 -21.5t11.5 -37.5v-75q0 -24 -17.5 -41.5t-42.5 -17.5h-96q-8 0 -12 1q-21 4 -34.5 20.5t-13.5 37.5
v71zM80 613l30 -30v34l-22 22q-8 -8 -8 -25v-1zM93 553l30 -30h1q38 0 54 22l-10 8h-75z" />
    <glyph glyph-name="questiondown" unicode="&#xbf;" horiz-adv-x="335" 
d="M210 294v256h-90v-166h-20q-25 0 -42.5 -17.5t-17.5 -41.5v-265q0 -24 17.5 -42t42.5 -18h136q26 0 43 17t17 42v151h-90v-120h-76v204h80zM210 700v-90h-90v90h90zM130 690l70 -70v70h-70zM170 503l-40 37h70v-236l-30 30v169zM90 80v227q0 15 6 21l24 -24v-224h96
l22 -22q-8 -8 -16 -8h-102q-12 0 -21 9t-9 21zM130 374l30 -30h-47q-20 0 -27 -7l-23 20q17 17 40 17h27zM216 200h70v-138q0 -22 -15 -37l-23 23q8 8 8 24v88z" />
    <glyph glyph-name="Agrave" unicode="&#xc0;" horiz-adv-x="338" 
d="M234 0l-14 137h-100l-14 -137h-90l74 700h160l72 -700h-88zM170 610l-40 -383h80zM98 690l27 -30h87l64 -615l35 -35l-71 680h-142zM134 650l-48 -463h167l-31 30h-103l42 403zM96 10l14 137l-26 26l-14 -137zM133 918l137 -146l-65 -62l-137 146zM205 776v-50l48 47
l-120 130v-51z" />
    <glyph glyph-name="Aacute" unicode="&#xc1;" horiz-adv-x="338" 
d="M220 137l14 -137h88l-72 700h-160l-74 -700h90l14 137h100zM130 227l40 383l40 -383h-80zM125 660l-27 30h142l71 -680l-35 35l-64 615h-87zM86 187l48 463l27 -30l-42 -403h103l31 -30h-167zM110 147l-14 -137l-26 26l14 137zM68 772l137 146l65 -62l-137 -146zM133 773
v-47l122 130l-50 47v-54z" />
    <glyph glyph-name="Acircumflex" unicode="&#xc2;" horiz-adv-x="338" 
d="M234 0l-14 137h-100l-14 -137h-90l74 700h160l72 -700h-88zM170 610l-40 -383h80zM98 690l27 -30h87l64 -615l35 -35l-71 680h-142zM134 650l-48 -463h167l-31 30h-103l42 403zM96 10l14 137l-26 26l-14 -137zM200 873h-58l32 -22l74 -68h43zM95 735l70 73v39l-70 -70
v-42zM170 797l-74 -77l-62 63l101 100h70l100 -100l-60 -63z" />
    <glyph glyph-name="Atilde" unicode="&#xc3;" horiz-adv-x="338" 
d="M234 0l-14 137h-100l-14 -137h-90l74 700h160l72 -700h-88zM170 610l-40 -383h80zM98 690l27 -30h87l64 -615l35 -35l-71 680h-142zM134 650l-48 -463h167l-31 30h-103l42 403zM96 10l14 137l-26 26l-14 -137zM221 760l21 -21l71 70l-47 47v-51zM74 736l50 53v39l-50 -50
v-42zM159 854h-58l32 -22l74 -66v39zM129 778l-54 -57l-62 63l81 80h70l48 -49l54 57l62 -63l-81 -80h-70z" />
    <glyph glyph-name="Adieresis" unicode="&#xc4;" horiz-adv-x="338" 
d="M192 741v90h90v-90h-90zM202 821l70 -70v70h-70zM59 741v90h90v-90h-90zM69 821l70 -70v70h-70zM220 137l14 -137h88l-72 700h-160l-74 -700h90l14 137h100zM130 227l40 383l40 -383h-80zM125 660l-27 30h142l71 -680l-35 35l-64 615h-87zM86 187l48 463l27 -30l-42 -403
h103l31 -30h-167zM110 147l-14 -137l-26 26l14 137z" />
    <glyph glyph-name="Aring" unicode="&#xc5;" horiz-adv-x="338" 
d="M170 610l-40 -383h80zM245 637l-33 23l64 -615l35 -35zM136 659l-50 -472h167l-31 30h-103l42 403zM96 10l14 137l-26 26l-14 -137zM149 721q0 -9 6 -15t15 -6t15 6t6 15t-6 15t-15 6t-15 -6t-6 -15zM220 671l25 -24q26 27 26 74q0 43 -29 72t-72 29t-74 -29l23 -23
q20 22 51 22q29 0 50 -21t21 -50t-21 -50zM147 742l-21 21q-17 -19 -17 -42q0 -25 17.5 -43t43.5 -18q25 0 43 18l-21 21q-9 -9 -22 -9t-22 9t-9 22q0 11 8 21zM57 721q0 46 33 78.5t80 32.5q46 0 78.5 -32t32.5 -79q0 -43 -27 -77l68 -644h-88l-14 137h-100l-14 -137h-90
l68 647q-27 32 -27 74z" />
    <glyph glyph-name="AE" unicode="&#xc6;" horiz-adv-x="477" 
d="M163 690l33 -30h200l41 -40v70h-274zM272 649v-272h84l41 -40v70h-95v213zM272 356v-306h132l40 -40v70h-142v247zM262 187l-30 30h-95l79 370l-16 57l-97 -457h159zM71 41l22 -29l29 131l-22 30zM454 90v-90h-232v137h-91l-29 -137h-95l146 700h294v-90h-135v-193h95
v-90h-95v-237h142zM222 227v337l-72 -337h72z" />
    <glyph glyph-name="Ccedilla" unicode="&#xc7;" 
d="M90 623v-543q0 -12 9 -21t21 -9h102q8 0 16 8l-22 22h-96v540l-24 24q-6 -6 -6 -21zM256 530l30 -30v137q0 23 -15 38t-38 15h-129q-23 0 -40 -17l23 -20q7 7 27 7h111q13 0 22 -9t9 -22v-99zM286 201h-70l40 -40v-89q0 -16 -8 -24l23 -23q15 15 15 37v139zM136 -45h-46
l30 -30h22q8 0 16 8zM206 10l-30 30v-93q0 -16 -8 -24l23 -23q15 15 15 37v73zM236 0h-20v-66q0 -24 -17.5 -41.5t-42.5 -17.5h-76v90h46v35h-26q-24 0 -42 17.5t-18 41.5v581q0 24 18 42t42 18h136q25 0 42.5 -18t17.5 -42v-150h-90v120h-76v-520h76v121h90v-152
q0 -24 -17.5 -41.5t-42.5 -17.5z" />
    <glyph glyph-name="Egrave" unicode="&#xc8;" horiz-adv-x="302" 
d="M272 90v-90h-232v700h225v-90h-135v-193h95v-90h-95v-237h142zM50 690l33 -30h131l41 -40v70h-205zM90 649v-272h84l41 -40v70h-95v213zM90 356v-306h132l40 -40v70h-142v247zM115 918l137 -146l-65 -62l-137 146zM187 776v-50l48 47l-120 130v-51z" />
    <glyph glyph-name="Eacute" unicode="&#xc9;" horiz-adv-x="302" 
d="M272 0v90h-142v237h95v90h-95v193h135v90h-225v-700h232zM83 660l-33 30h205v-70l-41 40h-131zM90 377v272l30 -29v-213h95v-70l-41 40h-84zM90 50v306l30 -29v-247h142v-70l-40 40h-132zM50 772l137 146l65 -62l-137 -146zM115 773v-47l122 130l-50 47v-54z" />
    <glyph glyph-name="Ecircumflex" unicode="&#xca;" horiz-adv-x="302" 
d="M272 90v-90h-232v700h225v-90h-135v-193h95v-90h-95v-237h142zM50 690l33 -30h131l41 -40v70h-205zM90 649v-272h84l41 -40v70h-95v213zM90 356v-306h132l40 -40v70h-142v247zM182 873h-58l32 -22l74 -68h43zM77 735l70 73v39l-70 -70v-42zM152 797l-74 -77l-62 63
l101 100h70l100 -100l-60 -63z" />
    <glyph glyph-name="Edieresis" unicode="&#xcb;" horiz-adv-x="302" 
d="M272 0v90h-142v237h95v90h-95v193h135v90h-225v-700h232zM83 660l-33 30h205v-70l-41 40h-131zM90 377v272l30 -29v-213h95v-70l-41 40h-84zM90 50v306l30 -29v-247h142v-70l-40 40h-132zM42 740v90h90v-90h-90zM52 820l70 -70v70h-70zM172 740v90h90v-90h-90zM182 820
l70 -70v70h-70z" />
    <glyph glyph-name="Igrave" unicode="&#xcc;" horiz-adv-x="170" 
d="M40 0v700h90v-700h-90zM50 690l33 -30l7 -7v-613l30 -30v680h-70zM49 918l137 -146l-65 -62l-137 146zM121 776v-50l48 47l-120 130v-51z" />
    <glyph glyph-name="Iacute" unicode="&#xcd;" horiz-adv-x="170" 
d="M40 700v-700h90v700h-90zM83 660l-33 30h70v-680l-30 30v613zM-16 772l137 146l65 -62l-137 -146zM49 773v-47l122 130l-50 47v-54z" />
    <glyph glyph-name="Icircumflex" unicode="&#xce;" horiz-adv-x="170" 
d="M40 0v700h90v-700h-90zM50 690l33 -30l7 -7v-613l30 -30v680h-70z" />
    <glyph glyph-name="Idieresis" unicode="&#xcf;" horiz-adv-x="170" 
d="M110 745v90h90v-90h-90zM120 825l70 -70v70h-70zM-23 745v90h90v-90h-90zM-13 825l70 -70v70h-70zM40 700v-700h90v700h-90zM83 660l-33 30h70v-680l-30 30v613z" />
    <glyph glyph-name="Eth" unicode="&#xd0;" horiz-adv-x="363" 
d="M147 326l-30 30v-306h132q8 0 16 8l-22 22h-96v246zM283 629v-557q0 -16 -8 -24l23 -23q15 15 15 37v575q0 22 -14.5 37.5t-38.5 15.5h-183l30 -30h145q13 0 22 -9t9 -22zM117 649v-283h43l40 -40v70h-53v224zM107 366l-30 30h-47l30 -30h47zM20 316v90h47v294h196
q25 0 42.5 -18t17.5 -42v-581q0 -24 -17.5 -41.5t-42.5 -17.5h-196v316h-47zM157 90h76v520h-76v-204h53v-90h-53v-226z" />
    <glyph glyph-name="Ntilde" unicode="&#xd1;" horiz-adv-x="366" 
d="M249 256l-109 434h-90l30 -30h35l162 -612zM316 690h-70l40 -40v-610l30 -30v680zM40 700h110l86 -348v348h90v-700h-106l-90 376v-376h-90v700zM120 10v406l-30 234v-610zM233 759l21 -21l71 70l-47 47v-51zM86 735l50 53v39l-50 -50v-42zM171 853h-58l32 -22l74 -66v39
zM141 777l-54 -57l-62 63l81 80h70l48 -49l54 57l62 -63l-81 -80h-70z" />
    <glyph glyph-name="Ograve" unicode="&#xd2;" 
d="M40 59v581q0 24 18 42t42 18h136q25 0 42.5 -18t17.5 -42v-581q0 -24 -17.5 -41.5t-42.5 -17.5h-136q-24 0 -42 17.5t-18 41.5zM206 90v520h-76v-520h76zM90 623v-543q0 -12 9 -21t21 -9h102q8 0 16 8l-22 22h-96v540l-24 24q-6 -6 -6 -21zM256 629v-557q0 -16 -8 -24
l23 -23q15 15 15 37v575q0 23 -15 38t-38 15h-129q-23 0 -40 -17l23 -20q7 7 27 7h111q13 0 22 -9t9 -22zM132 918l137 -146l-65 -62l-137 146zM204 776v-50l48 47l-120 130v-51z" />
    <glyph glyph-name="Oacute" unicode="&#xd3;" 
d="M40 640v-581q0 -24 18 -41.5t42 -17.5h136q25 0 42.5 17.5t17.5 41.5v581q0 24 -17.5 42t-42.5 18h-136q-24 0 -42 -18t-18 -42zM206 610v-520h-76v520h76zM90 80v543q0 15 6 21l24 -24v-540h96l22 -22q-8 -8 -16 -8h-102q-12 0 -21 9t-9 21zM256 72v557q0 13 -9 22
t-22 9h-111q-20 0 -27 -7l-23 20q17 17 40 17h129q23 0 38 -15t15 -38v-575q0 -22 -15 -37l-23 23q8 8 8 24zM67 772l137 146l65 -62l-137 -146zM132 773v-47l122 130l-50 47v-54z" />
    <glyph glyph-name="Ocircumflex" unicode="&#xd4;" 
d="M40 59v581q0 24 18 42t42 18h136q25 0 42.5 -18t17.5 -42v-581q0 -24 -17.5 -41.5t-42.5 -17.5h-136q-24 0 -42 17.5t-18 41.5zM206 90v520h-76v-520h76zM90 623v-543q0 -12 9 -21t21 -9h102q8 0 16 8l-22 22h-96v540l-24 24q-6 -6 -6 -21zM256 629v-557q0 -16 -8 -24
l23 -23q15 15 15 37v575q0 23 -15 38t-38 15h-129q-23 0 -40 -17l23 -20q7 7 27 7h111q13 0 22 -9t9 -22zM198 873h-58l32 -22l74 -68h43zM93 735l70 73v39l-70 -70v-42zM168 797l-74 -77l-62 63l101 100h70l100 -100l-60 -63z" />
    <glyph glyph-name="Otilde" unicode="&#xd5;" 
d="M40 59v581q0 24 18 42t42 18h136q25 0 42.5 -18t17.5 -42v-581q0 -24 -17.5 -41.5t-42.5 -17.5h-136q-24 0 -42 17.5t-18 41.5zM206 90v520h-76v-520h76zM90 623v-543q0 -12 9 -21t21 -9h102q8 0 16 8l-22 22h-96v540l-24 24q-6 -6 -6 -21zM256 629v-557q0 -16 -8 -24
l23 -23q15 15 15 37v575q0 23 -15 38t-38 15h-129q-23 0 -40 -17l23 -20q7 7 27 7h111q13 0 22 -9t9 -22zM219 759l21 -21l71 70l-47 47v-51zM72 735l50 53v39l-50 -50v-42zM157 853h-58l32 -22l74 -66v39zM127 777l-54 -57l-62 63l81 80h70l48 -49l54 57l62 -63l-81 -80
h-70z" />
    <glyph glyph-name="Odieresis" unicode="&#xd6;" 
d="M40 640v-581q0 -24 18 -41.5t42 -17.5h136q25 0 42.5 17.5t17.5 41.5v581q0 24 -17.5 42t-42.5 18h-136q-24 0 -42 -18t-18 -42zM206 610v-520h-76v520h76zM90 80v543q0 15 6 21l24 -24v-540h96l22 -22q-8 -8 -16 -8h-102q-12 0 -21 9t-9 21zM256 72v557q0 13 -9 22
t-22 9h-111q-20 0 -27 -7l-23 20q17 17 40 17h129q23 0 38 -15t15 -38v-575q0 -22 -15 -37l-23 23q8 8 8 24zM58 740v90h90v-90h-90zM68 820l70 -70v70h-70zM188 740v90h90v-90h-90zM198 820l70 -70v70h-70z" />
    <glyph glyph-name="multiply" unicode="&#xd7;" horiz-adv-x="364" 
d="M182 306v40l-92 -89v-43zM182 361v42l-92 92v-42zM338 262l-64 -64l-92 92l-92 -92l-64 64l92 92l-92 92l64 64l92 -92l92 92l64 -64l-92 -92zM274 442l-87 -89l87 -84v-57l49 50l-91 92l91 92l-49 49v-53z" />
    <glyph glyph-name="Oslash" unicode="&#xd8;" 
d="M40 59v581q0 24 18 42t42 18h136q25 0 42.5 -18t17.5 -42v-581q0 -24 -17.5 -41.5t-42.5 -17.5h-136q-24 0 -42 17.5t-18 41.5zM206 556v54h-76v-234zM90 172v-92q0 -12 9 -21t21 -9h102q8 0 16 8l-22 22h-96v78l95 215l31 139zM256 629v-557q0 -16 -8 -24l23 -23
q15 15 15 37v575q0 23 -15 38t-38 15h-129q-23 0 -40 -17l23 -20q7 7 27 7h111q13 0 22 -9t9 -22zM130 154v-64h76v236zM90 623v-339l30 71v265l-24 24q-6 -6 -6 -21z" />
    <glyph glyph-name="Ugrave" unicode="&#xd9;" 
d="M40 700h90v-610h76v610h90v-641q0 -24 -17.5 -41.5t-42.5 -17.5h-136q-24 0 -42 17.5t-18 41.5v641zM90 649v-569q0 -12 9 -21t21 -9h102q8 0 16 8l-22 22h-96v610h-70zM286 690h-70l40 -40v-578q0 -16 -8 -24l23 -23q15 15 15 37v628zM132 918l137 -146l-65 -62
l-137 146zM204 776v-50l48 47l-120 130v-51z" />
    <glyph glyph-name="Uacute" unicode="&#xda;" 
d="M130 700h-90v-641q0 -24 18 -41.5t42 -17.5h136q25 0 42.5 17.5t17.5 41.5v641h-90v-610h-76v610zM90 80v569l-40 41h70v-610h96l22 -22q-8 -8 -16 -8h-102q-12 0 -21 9t-9 21zM216 690h70v-628q0 -22 -15 -37l-23 23q8 8 8 24v578zM67 772l137 146l65 -62l-137 -146z
M132 773v-47l122 130l-50 47v-54z" />
    <glyph glyph-name="Ucircumflex" unicode="&#xdb;" 
d="M40 700h90v-610h76v610h90v-641q0 -24 -17.5 -41.5t-42.5 -17.5h-136q-24 0 -42 17.5t-18 41.5v641zM90 649v-569q0 -12 9 -21t21 -9h102q8 0 16 8l-22 22h-96v610h-70zM286 690h-70l40 -40v-578q0 -16 -8 -24l23 -23q15 15 15 37v628zM198 873h-58l32 -22l74 -68h43z
M93 735l70 73v39l-70 -70v-42zM168 797l-74 -77l-62 63l101 100h70l100 -100l-60 -63z" />
    <glyph glyph-name="Udieresis" unicode="&#xdc;" 
d="M130 700h-90v-641q0 -24 18 -41.5t42 -17.5h136q25 0 42.5 17.5t17.5 41.5v641h-90v-610h-76v610zM90 80v569l-40 41h70v-610h96l22 -22q-8 -8 -16 -8h-102q-12 0 -21 9t-9 21zM216 690h70v-628q0 -22 -15 -37l-23 23q8 8 8 24v578zM58 720v90h90v-90h-90zM68 800l70 -70
v70h-70zM188 720v90h90v-90h-90zM198 800l70 -70v70h-70z" />
    <glyph glyph-name="Yacute" unicode="&#xdd;" horiz-adv-x="309" 
d="M84 690h-73l50 -30l91 -408l1 80zM224 690l35 -30l-100 -414v-206l30 -30v224l108 456h-73zM109 0v230l-108 470h93l60 -330l60 330h93l-108 -470v-230h-90zM53 772l137 146l65 -62l-137 -146zM118 773v-47l122 130l-50 47v-54z" />
    <glyph glyph-name="Thorn" unicode="&#xde;" 
d="M40 148v422v130h90v-130h106q25 0 42.5 -18t17.5 -42v-303q0 -24 -17.5 -41.5t-42.5 -17.5h-106v-148h-90v148zM206 238v242h-76v-242h76zM90 520v-322h132q8 0 16 8l-22 22h-96v262zM256 499v-279q0 -16 -8 -24l23 -23q15 15 15 37v297q0 22 -14.5 37.5t-38.5 15.5h-113
v130h-70l40 -40v-120h135q13 0 22 -9t9 -22zM90 188v-148l30 -30v148z" />
    <glyph glyph-name="germandbls" unicode="&#xdf;" horiz-adv-x="326" 
d="M158 316v90h37v204h-65v-610h-90v700h185q25 0 42.5 -18t17.5 -42v-225q0 -40 -31 -49q19 -4 30.5 -21.5t11.5 -37.5v-248q0 -24 -17.5 -41.5t-42.5 -17.5h-77v90h47v226h-48zM50 690l30 -30h134q13 0 22 -9t9 -22v-203q0 -12 -4 -23t-8 -15l-4 -5l15 -10q31 8 31 45v219
q0 22 -14.5 37.5t-38.5 15.5h-172zM169 396v-30h5q32 0 48 22l-15 10q-5 -2 -12 -2h-26zM171 80v-30h51q8 0 16 8l-22 22h-45zM256 307v-235q0 -16 -8 -24l23 -23q15 15 15 37v245q0 21 -11.5 35t-26.5 16h-47q27 0 41 -13.5t14 -37.5zM120 10v610l-30 29v-609z" />
    <glyph glyph-name="agrave" unicode="&#xe0;" 
d="M229 0l-12 97h-93l-12 -97h-96l74 570h160l72 -570h-93zM170 480l-35 -293h71zM98 560l27 -30h87l64 -485l35 -35l-71 550h-142zM134 520l-48 -373h163l-31 30h-94l37 313zM103 10l12 97l-31 26l-14 -97zM132 788l137 -146l-65 -62l-137 146zM204 646v-50l48 47l-120 130
v-51z" />
    <glyph glyph-name="aacute" unicode="&#xe1;" 
d="M217 97l12 -97h93l-72 570h-160l-74 -570h96l12 97h93zM135 187l35 293l36 -293h-71zM125 530l-27 30h142l71 -550l-35 35l-64 485h-87zM86 147l48 373l27 -30l-37 -313h94l31 -30h-163zM115 107l-12 -97l-33 26l14 97zM67 642l137 146l65 -62l-137 -146zM132 643v-47
l122 130l-50 47v-54z" />
    <glyph glyph-name="acircumflex" unicode="&#xe2;" 
d="M229 0l-12 97h-93l-12 -97h-96l74 570h160l72 -570h-93zM170 480l-35 -293h71zM98 560l27 -30h87l64 -485l35 -35l-71 550h-142zM134 520l-48 -373h163l-31 30h-94l37 313zM103 10l12 97l-31 26l-14 -97zM198 743h-58l32 -22l74 -68h43zM93 605l70 73v39l-70 -70v-42z
M168 667l-74 -77l-62 63l101 100h70l100 -100l-60 -63z" />
    <glyph glyph-name="atilde" unicode="&#xe3;" 
d="M229 0l-12 97h-93l-12 -97h-96l74 570h160l72 -570h-93zM170 480l-35 -293h71zM98 560l27 -30h87l64 -485l35 -35l-71 550h-142zM134 520l-48 -373h163l-31 30h-94l37 313zM103 10l12 97l-31 26l-14 -97zM221 629l21 -21l71 70l-47 47v-51zM74 605l50 53v39l-50 -50v-42z
M159 723h-58l32 -22l74 -66v39zM129 647l-54 -57l-62 63l81 80h70l48 -49l54 57l62 -63l-81 -80h-70z" />
    <glyph glyph-name="adieresis" unicode="&#xe4;" 
d="M217 97l12 -97h93l-72 570h-160l-74 -570h96l12 97h93zM135 187l35 293l36 -293h-71zM125 530l-27 30h142l71 -550l-35 35l-64 485h-87zM86 147l48 373l27 -30l-37 -313h94l31 -30h-163zM115 107l-12 -97l-33 26l14 97zM59 610v90h90v-90h-90zM69 690l70 -70v70h-70z
M189 610v90h90v-90h-90zM199 690l70 -70v70h-70z" />
    <glyph glyph-name="aring" unicode="&#xe5;" 
d="M170 470l-27 -243h54zM245 497l-33 23l64 -475l35 -35zM136 519l-50 -332h167l-44 30h-77l29 263zM96 10l19 137l-31 26l-14 -137zM149 581q0 -9 6 -15t15 -6t15 6t6 15t-6 15t-15 6t-15 -6t-6 -15zM220 531l25 -24q26 27 26 74q0 43 -29 72t-72 29t-74 -29l23 -23
q20 22 51 22q29 0 50 -21t21 -50t-21 -50zM147 602l-21 21q-17 -19 -17 -42q0 -25 17.5 -43t43.5 -18q25 0 43 18l-21 21q-9 -9 -22 -9t-22 9t-9 22q0 11 8 21zM57 581q0 46 33 78.5t80 32.5q46 0 78.5 -32t32.5 -79q0 -43 -27 -77l68 -504h-88l-19 137h-90l-19 -137h-90
l68 507q-27 32 -27 74z" />
    <glyph glyph-name="ae" unicode="&#xe6;" horiz-adv-x="638" 
d="M163 560l33 -30h200l41 -40v70h-274zM272 519v-232h84l41 -40v70h-95v173zM272 266v-216h132l40 -40v70h-142v157zM262 187l-30 30h-79l63 240l-18 58l-81 -328h145zM79 34l21 -24l35 133l-20 34zM454 90v-90h-232v137h-78l-35 -137h-97l141 570h294v-90h-135v-153h95
v-90h-95v-147h142zM222 227v207l-54 -207h54z" />
    <glyph glyph-name="ccedilla" unicode="&#xe7;" 
d="M90 493v-413q0 -12 9 -21t21 -9h102q8 0 16 8l-22 22h-96v410l-24 24q-6 -6 -6 -21zM256 440l30 -30v97q0 23 -15 38t-38 15h-129q-23 0 -40 -17l23 -20q7 7 27 7h111q13 0 22 -9t9 -22v-59zM286 161h-70l40 -40v-49q0 -16 -8 -24l23 -23q15 15 15 37v99zM136 -45h-46
l30 -30h22q8 0 16 8zM206 10l-30 30v-93q0 -16 -8 -24l23 -23q15 15 15 37v73zM236 0h-20v-66q0 -24 -17.5 -41.5t-42.5 -17.5h-76v90h46v35h-26q-24 0 -42 17.5t-18 41.5v451q0 24 18 42t42 18h136q25 0 42.5 -18t17.5 -42v-110h-90v80h-76v-390h76v81h90v-112
q0 -24 -17.5 -41.5t-42.5 -17.5z" />
    <glyph glyph-name="egrave" unicode="&#xe8;" horiz-adv-x="302" 
d="M272 90v-90h-232v570h225v-90h-135v-145h95v-90h-95v-155h142zM50 560l33 -30h131l41 -40v70h-205zM90 519v-224h84l41 -40v70h-95v165zM90 274v-224h132l40 -40v70h-142v165zM115 788l137 -146l-65 -62l-137 146zM187 646v-50l48 47l-120 130v-51z" />
    <glyph glyph-name="eacute" unicode="&#xe9;" horiz-adv-x="302" 
d="M272 0v90h-142v155h95v90h-95v145h135v90h-225v-570h232zM83 530l-33 30h205v-70l-41 40h-131zM90 295v224l30 -29v-165h95v-70l-41 40h-84zM90 50v224l30 -29v-165h142v-70l-40 40h-132zM50 642l137 146l65 -62l-137 -146zM115 643v-47l122 130l-50 47v-54z" />
    <glyph glyph-name="ecircumflex" unicode="&#xea;" horiz-adv-x="302" 
d="M272 90v-90h-232v570h225v-90h-135v-145h95v-90h-95v-155h142zM50 560l33 -30h131l41 -40v70h-205zM90 519v-224h84l41 -40v70h-95v165zM90 274v-224h132l40 -40v70h-142v165zM182 743h-58l32 -22l74 -68h43zM77 605l70 73v39l-70 -70v-42zM152 667l-74 -77l-62 63
l101 100h70l100 -100l-60 -63z" />
    <glyph glyph-name="edieresis" unicode="&#xeb;" horiz-adv-x="302" 
d="M272 0v90h-142v155h95v90h-95v145h135v90h-225v-570h232zM83 530l-33 30h205v-70l-41 40h-131zM90 295v224l30 -29v-165h95v-70l-41 40h-84zM90 50v224l30 -29v-165h142v-70l-40 40h-132zM41 610v90h90v-90h-90zM51 690l70 -70v70h-70zM171 610v90h90v-90h-90zM181 690
l70 -70v70h-70z" />
    <glyph glyph-name="igrave" unicode="&#xec;" horiz-adv-x="170" 
d="M40 0v570h90v-570h-90zM50 560l33 -30l7 -7v-483l30 -30v550h-70zM49 788l137 -146l-65 -62l-137 146zM121 646v-50l48 47l-120 130v-51z" />
    <glyph glyph-name="iacute" unicode="&#xed;" horiz-adv-x="170" 
d="M40 570v-570h90v570h-90zM83 530l-33 30h70v-550l-30 30v483zM-16 642l137 146l65 -62l-137 -146zM49 643v-47l122 130l-50 47v-54z" />
    <glyph glyph-name="icircumflex" unicode="&#xee;" horiz-adv-x="170" 
d="M40 0v570h90v-570h-90zM50 560l33 -30l7 -7v-483l30 -30v550h-70zM116 733h-58l32 -22l74 -68h43zM11 595l70 73v39l-70 -70v-42zM86 657l-74 -77l-62 63l101 100h70l100 -100l-60 -63z" />
    <glyph glyph-name="idieresis" unicode="&#xef;" horiz-adv-x="170" 
d="M40 570v-570h90v570h-90zM83 530l-33 30h70v-550l-30 30v483zM-25 610v90h90v-90h-90zM-15 690l70 -70v70h-70zM105 610v90h90v-90h-90zM115 690l70 -70v70h-70z" />
    <glyph glyph-name="eth" unicode="&#xf0;" horiz-adv-x="342" 
d="M212 90v210h-76v-210h76zM96 313v-233q0 -12 9 -21t21 -9h102q8 0 16 8l-22 22h-96v230l-24 24q-6 -6 -6 -21zM179 380h-69q-23 0 -40 -17l23 -20q7 7 27 7h123q-19 18 -64 30zM93 690l-60 -35l54 -15l66 -113l64 37l54 -14l-35 59l-72 -42zM35 494l41 -11l68 39l-41 11z
M285 545l-73 -41l73 -129q17 -29 17 -57v-259q0 -24 -17.5 -41.5t-42.5 -17.5h-136q-24 0 -42 17.5t-18 41.5v271q0 24 18 42t42 18h67l-39 68l-68 -38l-45 77l68 39l-71 122l78 46l71 -122l72 41zM198 507l-41 11l95 -163q10 -17 10 -34v-249q0 -16 -8 -24l23 -23
q15 15 15 37v256q0 22 -17 53z" />
    <glyph glyph-name="ntilde" unicode="&#xf1;" horiz-adv-x="366" 
d="M244 236l-104 324h-90l30 -30h35l162 -482zM316 560h-70l40 -40v-480l30 -30v550zM40 570h110l86 -268v268h90v-570h-93l-103 326v-326h-90v570zM120 10v356l-30 154v-480zM233 629l21 -21l71 70l-47 47v-51zM86 605l50 53v39l-50 -50v-42zM171 723h-58l32 -22l74 -66v39
zM141 647l-54 -57l-62 63l81 80h70l48 -49l54 57l62 -63l-81 -80h-70z" />
    <glyph glyph-name="ograve" unicode="&#xf2;" 
d="M40 59v451q0 24 18 42t42 18h136q25 0 42.5 -18t17.5 -42v-451q0 -24 -17.5 -41.5t-42.5 -17.5h-136q-24 0 -42 17.5t-18 41.5zM206 90v390h-76v-390h76zM90 493v-413q0 -12 9 -21t21 -9h102q8 0 16 8l-22 22h-96v410l-24 24q-6 -6 -6 -21zM256 499v-427q0 -16 -8 -24
l23 -23q15 15 15 37v445q0 23 -15 38t-38 15h-129q-23 0 -40 -17l23 -20q7 7 27 7h111q13 0 22 -9t9 -22zM132 788l137 -146l-65 -62l-137 146zM204 646v-50l48 47l-120 130v-51z" />
    <glyph glyph-name="oacute" unicode="&#xf3;" 
d="M40 510v-451q0 -24 18 -41.5t42 -17.5h136q25 0 42.5 17.5t17.5 41.5v451q0 24 -17.5 42t-42.5 18h-136q-24 0 -42 -18t-18 -42zM206 480v-390h-76v390h76zM90 80v413q0 15 6 21l24 -24v-410h96l22 -22q-8 -8 -16 -8h-102q-12 0 -21 9t-9 21zM256 72v427q0 13 -9 22
t-22 9h-111q-20 0 -27 -7l-23 20q17 17 40 17h129q23 0 38 -15t15 -38v-445q0 -22 -15 -37l-23 23q8 8 8 24zM67 642l137 146l65 -62l-137 -146zM132 643v-47l122 130l-50 47v-54z" />
    <glyph glyph-name="ocircumflex" unicode="&#xf4;" 
d="M40 59v451q0 24 18 42t42 18h136q25 0 42.5 -18t17.5 -42v-451q0 -24 -17.5 -41.5t-42.5 -17.5h-136q-24 0 -42 17.5t-18 41.5zM206 90v390h-76v-390h76zM90 493v-413q0 -12 9 -21t21 -9h102q8 0 16 8l-22 22h-96v410l-24 24q-6 -6 -6 -21zM256 499v-427q0 -16 -8 -24
l23 -23q15 15 15 37v445q0 23 -15 38t-38 15h-129q-23 0 -40 -17l23 -20q7 7 27 7h111q13 0 22 -9t9 -22zM198 743h-58l32 -22l74 -68h43zM93 605l70 73v39l-70 -70v-42zM168 667l-74 -77l-62 63l101 100h70l100 -100l-60 -63z" />
    <glyph glyph-name="otilde" unicode="&#xf5;" 
d="M40 59v451q0 24 18 42t42 18h136q25 0 42.5 -18t17.5 -42v-451q0 -24 -17.5 -41.5t-42.5 -17.5h-136q-24 0 -42 17.5t-18 41.5zM206 90v390h-76v-390h76zM90 493v-413q0 -12 9 -21t21 -9h102q8 0 16 8l-22 22h-96v410l-24 24q-6 -6 -6 -21zM256 499v-427q0 -16 -8 -24
l23 -23q15 15 15 37v445q0 23 -15 38t-38 15h-129q-23 0 -40 -17l23 -20q7 7 27 7h111q13 0 22 -9t9 -22zM219 629l21 -21l71 70l-47 47v-51zM72 605l50 53v39l-50 -50v-42zM157 723h-58l32 -22l74 -66v39zM127 647l-54 -57l-62 63l81 80h70l48 -49l54 57l62 -63l-81 -80
h-70z" />
    <glyph glyph-name="odieresis" unicode="&#xf6;" 
d="M40 510v-451q0 -24 18 -41.5t42 -17.5h136q25 0 42.5 17.5t17.5 41.5v451q0 24 -17.5 42t-42.5 18h-136q-24 0 -42 -18t-18 -42zM206 480v-390h-76v390h76zM90 80v413q0 15 6 21l24 -24v-410h96l22 -22q-8 -8 -16 -8h-102q-12 0 -21 9t-9 21zM256 72v427q0 13 -9 22
t-22 9h-111q-20 0 -27 -7l-23 20q17 17 40 17h129q23 0 38 -15t15 -38v-445q0 -22 -15 -37l-23 23q8 8 8 24zM58 610v90h90v-90h-90zM68 690l70 -70v70h-70zM188 610v90h90v-90h-90zM198 690l70 -70v70h-70z" />
    <glyph glyph-name="divide" unicode="&#xf7;" horiz-adv-x="390" 
d="M150 148v90h90v-90h-90zM160 228l70 -70v70h-70zM150 464v90h90v-90h-90zM160 544l70 -70v70h-70zM20 309v90h350v-90h-350zM30 389l30 -30h260l40 -40v70h-330z" />
    <glyph glyph-name="oslash" unicode="&#xf8;" 
d="M40 59v451q0 24 18 42t42 18h136q25 0 42.5 -18t17.5 -42v-451q0 -24 -17.5 -41.5t-42.5 -17.5h-136q-24 0 -42 17.5t-18 41.5zM206 476v4h-76v-174zM90 112v-32q0 -12 9 -21t21 -9h102q8 0 16 8l-22 22h-96v18l95 205l31 139zM256 499v-427q0 -16 -8 -24l23 -23
q15 15 15 37v445q0 23 -15 38t-38 15h-129q-23 0 -40 -17l23 -20q7 7 27 7h111q13 0 22 -9t9 -22zM130 94v-4h76v166zM90 493v-279l30 71v205l-24 24q-6 -6 -6 -21z" />
    <glyph glyph-name="ugrave" unicode="&#xf9;" 
d="M40 570h90v-480h76v480h90v-511q0 -24 -17.5 -41.5t-42.5 -17.5h-136q-24 0 -42 17.5t-18 41.5v511zM90 519v-439q0 -12 9 -21t21 -9h102q8 0 16 8l-22 22h-96v480h-70zM286 560h-70l40 -40v-448q0 -16 -8 -24l23 -23q15 15 15 37v498zM132 788l137 -146l-65 -62
l-137 146zM204 646v-50l48 47l-120 130v-51z" />
    <glyph glyph-name="uacute" unicode="&#xfa;" 
d="M130 570h-90v-511q0 -24 18 -41.5t42 -17.5h136q25 0 42.5 17.5t17.5 41.5v511h-90v-480h-76v480zM90 80v439l-40 41h70v-480h96l22 -22q-8 -8 -16 -8h-102q-12 0 -21 9t-9 21zM216 560h70v-498q0 -22 -15 -37l-23 23q8 8 8 24v448zM67 642l137 146l65 -62l-137 -146z
M132 643v-47l122 130l-50 47v-54z" />
    <glyph glyph-name="ucircumflex" unicode="&#xfb;" 
d="M40 570h90v-480h76v480h90v-511q0 -24 -17.5 -41.5t-42.5 -17.5h-136q-24 0 -42 17.5t-18 41.5v511zM90 519v-439q0 -12 9 -21t21 -9h102q8 0 16 8l-22 22h-96v480h-70zM286 560h-70l40 -40v-448q0 -16 -8 -24l23 -23q15 15 15 37v498zM198 743h-58l32 -22l74 -68h43z
M93 605l70 73v39l-70 -70v-42zM168 667l-74 -77l-62 63l101 100h70l100 -100l-60 -63z" />
    <glyph glyph-name="udieresis" unicode="&#xfc;" 
d="M130 570h-90v-511q0 -24 18 -41.5t42 -17.5h136q25 0 42.5 17.5t17.5 41.5v511h-90v-480h-76v480zM90 80v439l-40 41h70v-480h96l22 -22q-8 -8 -16 -8h-102q-12 0 -21 9t-9 21zM216 560h70v-498q0 -22 -15 -37l-23 23q8 8 8 24v448zM58 610v90h90v-90h-90zM68 690l70 -70
v70h-70zM188 610v90h90v-90h-90zM198 690l70 -70v70h-70z" />
    <glyph glyph-name="yacute" unicode="&#xfd;" horiz-adv-x="308" 
d="M85 560h-74l50 -30l91 -318l1 81zM224 560l35 -30l-100 -354v-136l30 -30v182l105 368h-70zM109 0v190l-108 380h93l60 -240l60 240h93l-108 -380v-190h-90zM53 642l137 146l65 -62l-137 -146zM118 643v-47l122 130l-50 47v-54z" />
    <glyph glyph-name="thorn" unicode="&#xfe;" horiz-adv-x="170" 
d="M40 148v292v130h90v-130h106q25 0 42.5 -18t17.5 -42v-173q0 -24 -17.5 -41.5t-42.5 -17.5h-106v-148h-90v148zM206 238v112h-76v-112h76zM90 390v-192h132q8 0 16 8l-22 22h-96v132zM256 369v-149q0 -16 -8 -24l23 -23q15 15 15 37v167q0 22 -14.5 37.5t-38.5 15.5h-113
v130h-70l40 -40v-120h135q13 0 22 -9t9 -22zM90 188v-148l30 -30v148z" />
    <glyph glyph-name="ydieresis" unicode="&#xff;" horiz-adv-x="308" 
d="M85 560h-74l50 -30l91 -318l1 81zM224 560l35 -30l-100 -354v-136l30 -30v182l105 368h-70zM109 0v190l-108 380h93l60 -240l60 240h93l-108 -380v-190h-90zM44 610v90h90v-90h-90zM54 690l70 -70v70h-70zM174 610v90h90v-90h-90zM184 690l70 -70v70h-70z" />
    <glyph glyph-name="dotlessi" unicode="&#x131;" horiz-adv-x="170" 
d="M40 0v570h90v-570h-90zM50 560l33 -30l7 -7v-483l30 -30v550h-70z" />
    <glyph glyph-name="Lslash" unicode="&#x141;" horiz-adv-x="300" 
d="M164 332l-30 22v-304h96l40 -40v70h-106v252zM125 360l-30 22l-73 -25l38 -19zM38 278l-29 85l75 25v312h90v-281l72 25l29 -85l-101 -35v-234h106v-90h-196v293zM134 650v-288l77 28l51 -25l-22 66l-76 -27v286h-70z" />
    <glyph glyph-name="lslash" unicode="&#x142;" horiz-adv-x="300" 
d="M164 272l-30 22v-244h96l40 -40v70h-106v192zM125 300l-30 22l-73 -25l38 -19zM38 218l-29 85l75 25v242h90v-211l72 25l29 -85l-101 -35v-174h106v-90h-196v233zM134 520v-218l77 28l51 -25l-22 66l-76 -27v216h-70z" />
    <glyph glyph-name="OE" unicode="&#x152;" horiz-adv-x="468" 
d="M90 623v-543q0 -12 9 -21t21 -9h126l-30 30h-96v540l-24 24q-6 -6 -6 -21zM256 649v-272h84l41 -40v70h-95v213zM256 356v-306h132l40 -40v70h-142v247zM114 660h266l41 -40v70h-317q-23 0 -40 -17l23 -20q7 7 27 7zM438 90v-90h-338q-24 0 -42 17.5t-18 41.5v581
q0 24 18 42t42 18h331v-90h-135v-193h95v-90h-95v-237h142zM206 90v520h-76v-520h76z" />
    <glyph glyph-name="oe" unicode="&#x153;" horiz-adv-x="468" 
d="M90 493v-413q0 -12 9 -21t21 -9h126l-30 30h-96v410l-24 24q-6 -6 -6 -21zM256 519v-224h84l41 -40v70h-95v165zM256 274v-224h132l40 -40v70h-142v165zM114 530h266l41 -40v70h-317q-23 0 -40 -17l23 -20q7 7 27 7zM438 90v-90h-338q-24 0 -42 17.5t-18 41.5v451
q0 24 18 42t42 18h331v-90h-135v-145h95v-90h-95v-155h142zM206 90v390h-76v-390h76z" />
    <glyph glyph-name="Scaron" unicode="&#x160;" 
d="M40 211h90v-121h76v226h-106q-25 0 -42.5 18t-17.5 41v265q0 26 16.5 43t43.5 17h136q26 0 43 -17t17 -42v-147h-90v116h-76v-204h106q25 0 42.5 -18t17.5 -42v-287q0 -24 -17.5 -41.5t-42.5 -17.5h-136q-24 0 -42 17.5t-18 41.5v152zM120 201h-70l40 -40v-81
q0 -11 9 -20.5t21 -9.5h102q8 0 16 8l-22 22h-96v121zM256 335v-263q0 -16 -8 -24l23 -23q15 15 15 37v281q0 23 -15 38t-38 15h-113v224l-20 20q-10 -10 -10 -20v-224q0 -10 10 -20t20 -10h105q13 0 22 -9t9 -22zM256 629v-95l30 -30v133q0 23 -15 38t-38 15h-129
q-23 0 -40 -17l23 -20q7 7 27 7h111q13 0 22 -9t9 -22zM176 761l21 -21l91 90l-47 47v-51zM162 806l-70 73v-42l70 -70v39zM167 816l74 77l62 -63l-101 -100h-70l-100 100l60 63z" />
    <glyph glyph-name="scaron" unicode="&#x161;" 
d="M40 151h90v-61h76v156h-106q-25 0 -42.5 18t-17.5 41v205q0 26 16.5 43t43.5 17h136q26 0 43 -17t17 -42v-87h-90v56h-76v-144h106q25 0 42.5 -18t17.5 -42v-217q0 -24 -17.5 -41.5t-42.5 -17.5h-136q-24 0 -42 17.5t-18 41.5v92zM120 141h-70l40 -40v-21q0 -11 9 -20.5
t21 -9.5h102q8 0 16 8l-22 22h-96v61zM256 265v-193q0 -16 -8 -24l23 -23q15 15 15 37v211q0 23 -15 38t-38 15h-113v164l-20 20q-10 -10 -10 -20v-164q0 -10 10 -20t20 -10h105q13 0 22 -9t9 -22zM256 499v-35l30 -30v73q0 23 -15 38t-38 15h-129q-23 0 -40 -17l23 -20
q7 7 27 7h111q13 0 22 -9t9 -22zM176 641l21 -21l91 90l-47 47v-51zM162 686l-70 73v-42l70 -70v39zM167 696l74 77l62 -63l-101 -100h-70l-100 100l60 63z" />
    <glyph glyph-name="Ydieresis" unicode="&#x178;" horiz-adv-x="309" 
d="M84 690h-73l50 -30l91 -408l1 80zM224 690l35 -30l-100 -414v-206l30 -30v224l108 456h-73zM109 0v230l-108 470h93l60 -330l60 330h93l-108 -470v-230h-90zM44 740v90h90v-90h-90zM54 820l70 -70v70h-70zM174 740v90h90v-90h-90zM184 820l70 -70v70h-70z" />
    <glyph glyph-name="Zcaron" unicode="&#x17d;" horiz-adv-x="333" 
d="M30 90l183 520h-171v90h262v-110l-179 -500h179v-90h-274v90zM52 690l33 -30h179v-61l-198 -549h189l39 -40v70h-185l185 513v97h-242zM175 761l21 -21l91 90l-47 47v-51zM161 806l-70 73v-42l70 -70v39zM166 816l74 77l62 -63l-101 -100h-70l-100 100l60 63z" />
    <glyph glyph-name="zcaron" unicode="&#x17e;" horiz-adv-x="334" 
d="M30 90l183 390h-171v90h262v-110l-179 -370h179v-90h-274v90zM52 560l33 -30h179v-61l-198 -419h189l39 -40v70h-185l185 383v97h-242zM175 631l21 -21l91 90l-47 47v-51zM161 676l-70 73v-42l70 -70v39zM166 686l74 77l62 -63l-101 -100h-70l-100 100l60 63z" />
    <glyph glyph-name="florin" unicode="&#x192;" horiz-adv-x="270" 
d="M44 80l30 -30h32q8 0 16 8l-22 22h-56zM234 660v30h-80q-23 0 -40 -17l23 -20q7 7 27 7h70zM130 344l-30 30h-80l30 -30h80zM240 700v-90h-60v-226h80v-90h-80v-235q0 -24 -17.5 -41.5t-42.5 -17.5h-86v90h56v204h-80v90h80v256q0 26 16.5 43t43.5 17h90zM140 620v-276
h70l40 -40v70h-80v246l-20 20q-10 -10 -10 -20zM140 334v-262q0 -16 -8 -24l23 -23q15 15 15 37v242z" />
    <glyph glyph-name="circumflex" unicode="&#x2c6;" horiz-adv-x="309" 
d="M184 510h-58l32 -22l74 -68h43zM79 372l70 73v39l-70 -70v-42zM154 434l-74 -77l-62 63l101 100h70l100 -100l-60 -63z" />
    <glyph glyph-name="caron" unicode="&#x2c7;" horiz-adv-x="235" 
d="M126 388l21 -21l91 90l-47 47v-51zM112 433l-70 73v-42l70 -70v39zM117 443l74 77l62 -63l-101 -100h-70l-100 100l60 63z" />
    <glyph glyph-name="breve" unicode="&#x2d8;" horiz-adv-x="323" 
d="M40 881h90v-41h56v41h90v-72q0 -24 -17.5 -41.5t-42.5 -17.5h-116q-24 0 -42 17.5t-18 41.5v72zM90 830q0 -12 9 -21t21 -9h82q8 0 16 8l-22 22h-76v41h-70zM266 871h-70l40 -40v-9q0 -16 -8 -24l23 -23q15 15 15 37v59z" />
    <glyph glyph-name="dotaccent" unicode="&#x2d9;" horiz-adv-x="135" 
d="M20 800v90h90v-90h-90zM30 880l70 -70v70h-70z" />
    <glyph glyph-name="ring" unicode="&#x2da;" horiz-adv-x="304" 
d="M40 803q0 46 33 78.5t80 32.5t79 -32t32 -79t-32.5 -80t-78.5 -33q-47 0 -80 33t-33 80zM132 803q0 -9 6 -15t15 -6t15 6t6 15t-6 15t-15 6t-15 -6t-6 -15zM203 753l22 -23q29 31 29 73q0 43 -29 72t-72 29t-74 -29l23 -23q20 22 51 22q29 0 50 -21t21 -50t-21 -50z
M130 824l-21 21q-17 -19 -17 -42q0 -25 18 -43t43 -18t43 18l-21 21q-9 -9 -22 -9t-22 9t-9 22q0 11 8 21z" />
    <glyph glyph-name="ogonek" unicode="&#x2db;" horiz-adv-x="278" 
d="M222 -90v-90h-122q-24 0 -42 17.5t-18 41.5v121h90v-90h92zM120 -11h-30v-89q0 -12 9 -21t21 -9h52l40 -40v70h-92v89z" />
    <glyph glyph-name="tilde" unicode="&#x2dc;" horiz-adv-x="354" 
d="M226 721l21 -21l71 70l-47 47v-51zM79 697l50 53v39l-50 -50v-42zM164 815h-58l32 -22l74 -66v39zM134 739l-54 -57l-62 63l81 80h70l48 -49l54 57l62 -63l-81 -80h-70z" />
    <glyph glyph-name="hungarumlaut" unicode="&#x2dd;" horiz-adv-x="265" 
d="M20 770v70h90v-70l-40 -40h-50v40zM30 830l40 -40v-45l30 30v55h-70zM150 770v70h90v-70l-40 -40h-50v40zM160 830l40 -40v-45l30 30v55h-70z" />
    <glyph glyph-name="endash" unicode="&#x2013;" horiz-adv-x="326" 
d="M20 309v90h286v-90h-286zM30 389l30 -30h196l40 -40v70h-266z" />
    <glyph glyph-name="emdash" unicode="&#x2014;" horiz-adv-x="438" 
d="M20 309v90h398v-90h-398zM30 389l30 -30h308l40 -40v70h-378z" />
    <glyph glyph-name="quoteleft" unicode="&#x2018;" horiz-adv-x="130" 
d="M110 700v-130h-90v89l41 41h49zM100 580v110h-35v-80z" />
    <glyph glyph-name="quoteright" unicode="&#x2019;" horiz-adv-x="130" 
d="M20 610v90h90v-90l-40 -40h-50v40zM30 690l40 -40v-65l30 30v75h-70z" />
    <glyph glyph-name="quotesinglbase" unicode="&#x201a;" horiz-adv-x="130" 
d="M20 0v90h90v-90l-40 -40h-50v40zM30 80l40 -40v-65l30 30v75h-70z" />
    <glyph glyph-name="quotedblleft" unicode="&#x201c;" horiz-adv-x="240" 
d="M110 700v-130h-90v89l41 41h49zM100 580v110h-35v-80zM220 700v-130h-90v89l41 41h49zM210 580v110h-35v-80z" />
    <glyph glyph-name="quotedblright" unicode="&#x201d;" horiz-adv-x="240" 
d="M130 570v130h90v-89l-41 -41h-49zM20 570v130h90v-89l-41 -41h-49zM100 690h-70l40 -40v-64l30 29v75zM210 690h-70l40 -40v-64l30 29v75z" />
    <glyph glyph-name="quotedblbase" unicode="&#x201e;" horiz-adv-x="240" 
d="M130 -41v130h90v-89l-41 -41h-49zM20 -41v130h90v-89l-41 -41h-49zM100 79h-70l40 -40v-64l30 29v75zM210 79h-70l40 -40v-64l30 29v75z" />
    <glyph glyph-name="dagger" unicode="&#x2020;" horiz-adv-x="190" 
d="M0 -80v460h-80v90h80v310h90v-310h80v-90h-80v-460h-90zM50 420v-460l30 -30v460zM50 730v-300h70l40 -40v70h-80v310h-70zM40 430l-30 30h-80l30 -30h80z" />
    <glyph glyph-name="daggerdbl" unicode="&#x2021;" horiz-adv-x="290" 
d="M150 290v-330l30 -30v330zM140 300l-30 30h-80l30 -30h80zM150 730v-230h70l40 -40v70h-80v240h-70zM140 500l-30 30h-80l30 -30h80zM150 490v-190h70l40 -40v70h-80v130zM100 340v110h-80v90h80v240h90v-240h80v-90h-80v-110h80v-90h-80v-330h-90v330h-80v90h80z" />
    <glyph glyph-name="bullet" unicode="&#x2022;" horiz-adv-x="240" 
d="M30 364v61q0 24 18 42t42 18h60q25 0 42.5 -18t17.5 -42v-61q0 -24 -17.5 -41.5t-42.5 -17.5h-60q-24 0 -42 17.5t-18 41.5zM80 408v-23q0 -12 9 -21t21 -9h26q8 0 16 8l-22 22h-20v20l-24 24q-6 -6 -6 -21zM170 414v-37q0 -16 -8 -24l23 -23q15 15 15 37v55q0 23 -15 38
t-38 15h-53q-23 0 -40 -17l23 -20q7 7 27 7h35q13 0 22 -9t9 -22z" />
    <glyph glyph-name="ellipsis" unicode="&#x2026;" horiz-adv-x="390" 
d="M20 0v90h90v-90h-90zM30 80l70 -70v70h-70zM150 0v90h90v-90h-90zM160 80l70 -70v70h-70zM280 0v90h90v-90h-90zM290 80l70 -70v70h-70z" />
    <glyph glyph-name="perthousand" unicode="&#x2030;" horiz-adv-x="788" 
d="M399 700h98l-349 -700h-95zM117 41l25 -29l338 678h-71l20 -28zM40 509v131q0 24 18 42t42 18h100q25 0 42.5 -18t17.5 -42v-131q0 -24 -17.5 -41.5t-42.5 -17.5h-100q-24 0 -42 17.5t-18 41.5zM170 540v70h-40v-70h40zM90 623v-93q0 -12 9 -21t21 -9h66q8 0 16 8l-22 22
h-60v90l-24 24q-6 -6 -6 -21zM220 629v-107q0 -16 -8 -24l23 -23q15 15 15 37v125q0 23 -15 38t-38 15h-93q-23 0 -40 -17l23 -20q7 7 27 7h75q13 0 22 -9t9 -22zM288 59v131q0 24 18 42t42 18h100q25 0 42.5 -18t17.5 -42v-131q0 -24 -17.5 -41.5t-42.5 -17.5h-100
q-24 0 -42 17.5t-18 41.5zM418 90v70h-40v-70h40zM338 173v-93q0 -12 9 -21t21 -9h66q8 0 16 8l-22 22h-60v90l-24 24q-6 -6 -6 -21zM468 179v-107q0 -16 -8 -24l23 -23q15 15 15 37v125q0 23 -15 38t-38 15h-93q-23 0 -40 -17l23 -20q7 7 27 7h75q13 0 22 -9t9 -22zM548 59
v131q0 24 18 42t42 18h100q25 0 42.5 -18t17.5 -42v-131q0 -24 -17.5 -41.5t-42.5 -17.5h-100q-24 0 -42 17.5t-18 41.5zM678 90v70h-40v-70h40zM598 173v-93q0 -12 9 -21t21 -9h66q8 0 16 8l-22 22h-60v90l-24 24q-6 -6 -6 -21zM728 179v-107q0 -16 -8 -24l23 -23
q15 15 15 37v125q0 23 -15 38t-38 15h-93q-23 0 -40 -17l23 -20q7 7 27 7h75q13 0 22 -9t9 -22z" />
    <glyph glyph-name="guilsinglleft" unicode="&#x2039;" horiz-adv-x="276" 
d="M116 363l147 -144l-63 -62l-170 171v70l170 170l63 -60zM102 363l147 145l-49 47v-54l-138 -138l144 -144h43z" />
    <glyph glyph-name="guilsinglright" unicode="&#x203a;" horiz-adv-x="276" 
d="M13 219l147 144l-147 145l63 60l170 -170v-70l-170 -171zM236 332v62l-160 160l-48 -46h48l143 -145l-143 -147v-46z" />
    <glyph glyph-name="fraction" unicode="&#x2044;" horiz-adv-x="97" 
 />
    <glyph glyph-name="Euro" unicode="&#x20ac;" horiz-adv-x="360" 
d="M90 690l33 -30h131l41 -40v70h-205zM120 270l-30 30h-50l30 -30h50zM120 430l-30 30h-50l30 -30h50zM130 420v-150h150l40 -40v70h-160v90zM130 649v-219h150l40 -40v70h-160v160zM80 310v70h-50v90h50v230h225v-90h-135v-140h160v-90h-160v-70h160v-90h-160v-130h142
v-90h-232v220h-50v90h50zM130 260v-210h132l40 -40v70h-142v150z" />
    <glyph glyph-name="trademark" unicode="&#x2122;" horiz-adv-x="466" 
d="M77 405v242h-47v53h147v-53h-47v-242h-53zM107 670v-241l17 -18v242zM36 694l18 -18h94l24 -23v41h-136zM412 429l18 -18v283h-41l23 -24v-241zM238 670l79 -177v44l-67 157h-43zM250 411v163l-18 75v-220zM436 405h-53v152l-44 -93h-43l-40 93v-152h-55v295h53l63 -148
l66 148h53v-295zM335 469l55 121l11 67l-78 -169z" />
    <glyph glyph-name="minus" unicode="&#x2212;" horiz-adv-x="390" 
d="M20 309v90h350v-90h-350zM30 389l30 -30h260l40 -40v70h-330z" />
    <glyph glyph-name="fi" unicode="&#xfb01;" horiz-adv-x="475" 
d="M130 0h-90v570h225v-90h-135v-145h115v-90h-115v-245zM50 560l33 -30h131l41 -40v70h-205zM90 519v-224h104l41 -40v70h-115v165zM90 274v-234l30 -30v235zM345 0v570h90v-570h-90zM355 560l33 -30l7 -7v-483l30 -30v550h-70z" />
    <glyph glyph-name="fl" unicode="&#xfb02;" horiz-adv-x="561" 
d="M130 0h-90v570h225v-90h-135v-145h115v-90h-115v-245zM50 560l33 -30h131l41 -40v70h-205zM90 519v-224h104l41 -40v70h-115v165zM90 274v-234l30 -30v235zM345 0v570h90v-480h106v-90h-196zM395 520v-470h96l40 -40v70h-106v480h-70z" />
    <glyph glyph-name="CR" horiz-adv-x="97" 
 />
    <glyph glyph-name="R.alt" horiz-adv-x="325" 
d="M218 0l-63 297h-25v-297h-90v700h185q25 0 42.5 -18t17.5 -42v-244q0 -46 -46 -60l67 -336h-88zM130 610v-223h65v223h-65zM50 690l33 -30h129q13 0 23 -10t10 -24v-219q0 -12 -4 -22.5t-8 -15.5l-4 -5l15 -10q31 8 31 45v238q0 22 -14.5 37.5t-38.5 15.5h-172zM90 649
v-302h84q32 0 48 22l-15 10q-5 -2 -12 -2h-75v243zM120 10v287l-30 29v-286zM194 336l65 -296l37 -30l-69 321z" />
    <glyph glyph-name="_0003" horiz-adv-x="379" 
d="M224 399l-30 76v-235l30 -30v189zM219 510h-58l32 -22l114 -108h43zM74 332l84 86l26 66l-110 -110v-42zM234 200h-90v189l-70 -70l-60 61l140 140h70l140 -140l-60 -63l-70 72v-189z" />
    <glyph glyph-name="r.alt" horiz-adv-x="325" 
d="M218 0l-63 228h-25v-228h-90v570h185q25 0 42.5 -18t17.5 -42v-183q0 -46 -46 -60l67 -267h-88zM130 480v-162h65v162h-65zM50 560l33 -30h129q13 0 23 -10t10 -24v-158q0 -12 -4 -23t-8 -15l-4 -5l15 -10q31 8 31 45v177q0 22 -14.5 37.5t-38.5 15.5h-172zM90 519v-241
h84q32 0 48 22l-15 10q-5 -2 -12 -2h-75v182zM120 10v218l-30 29v-217zM196 267l63 -227l37 -30l-69 252z" />
    </font>
</defs>
</svg>
